<svg xmlns="http://www.w3.org/2000/svg" viewBox="0 0 61.2 91.8"><path fill="#b1b1b1" d="M57.23 91.8H3.94a3.96 3.96 0 0 1-3.96-3.96V3.96A3.96 3.96 0 0 1 3.94 0h53.29a3.96 3.96 0 0 1 3.95 3.96v83.88a3.96 3.96 0 0 1-3.95 3.96"/><path fill="#d6d4d5" d="M54.95 89.25H6.22a3.68 3.68 0 0 1-3.68-3.69V6.23a3.68 3.68 0 0 1 3.68-3.68h48.73a3.68 3.68 0 0 1 3.68 3.68v79.33a3.68 3.68 0 0 1-3.68 3.69"/><path fill="#575756" d="M61.18 76.71v11.11c0 2.2-1.78 3.98-3.97 3.98H3.96a3.97 3.97 0 0 1-3.98-3.98V67.37"/><path fill="#fff" d="M27.17 87.63a.4.4 0 0 1-.28-.12.4.4 0 0 1-.12-.28V76.72a.5.5 0 0 1 .1-.3.39.39 0 0 1 .3-.12h5.01c1.37 0 2.4.28 3.06.84.67.56 1 1.36 1 2.4 0 .52-.13.97-.41 1.34a2.65 2.65 0 0 1-.91.82 2.65 2.65 0 0 1 1.11.97 2.63 2.63 0 0 1 .46 1.52c0 1.09-.36 1.93-1.08 2.54-.72.6-1.75.9-3.09.9Zm4.67-6.85c.4 0 .7-.1.92-.32a1.14 1.14 0 0 0 .33-.84c0-.33-.11-.6-.32-.82-.21-.2-.52-.31-.93-.31h-2.02v2.3zm.15 4.67c.41 0 .74-.12.97-.37a1.24 1.24 0 0 0 .35-.9c0-.36-.12-.67-.36-.91a1.3 1.3 0 0 0-.96-.36h-2.17v2.54zm0 0" aria-label="B"/><path fill="#14110f" d="M9.28 46.52s-.32.93-.02 1.49c.38.69 3.58 5.27 3.58 5.27s-1.38.72-1.16 1.33c.22.62 4.34 5.07 4.34 5.07s-2.22.76-1.92 1.6c.31.83 37.1-.03 37.1-.03s.17-1.14-.91-1.57c-.68-.27 2.98-5.05 2.98-5.05s.3-.9-1.15-1.37C50.8 52.84 55.34 48 55.34 48s.15-.62-.07-1.48c-.3-1.1-30-2.72-30.12-2.72S9.28 46.52 9.28 46.52m4.33-8.16L9 36.6s-.74-.33-.57-1.23C8.7 33.98 31.6 7.63 31.6 7.63s.5.32 1.02 0L55.8 35.38s.17.72-.7 1.14l-10.43 3.46Z"/><path fill="#14110f" d="m16.83 20.87-6.37 5.7a2.4 2.4 0 0 0-.64 1.13l-1.38 7.68c-.08.37.1.45.4.2l6.85-5.9a2.12 2.12 0 0 0 .64-1.12l.92-7.5c.05-.36-.14-.44-.42-.19"/><path fill="#fff" d="m16.36 21.85-5.64 5.03a1.42 1.42 0 0 0-.39.68l-1.2 6.9c-.04.21.08.27.26.11l5.99-5.18a1.28 1.28 0 0 0 .38-.67l.85-6.76c.03-.2-.08-.26-.25-.11"/><path fill="#14110f" d="m24.22 14.25-6.37 5.7a2.12 2.12 0 0 0-.6 1.1l-.92 7.5c-.05.37.16.44.46.18l6.84-5.9a1.87 1.87 0 0 0 .6-1.1l.46-7.3c.02-.35-.19-.43-.47-.18"/><path fill="#fff" d="m23.79 15.21-5.64 5.04a1.25 1.25 0 0 0-.36.66l-.78 6.73c-.03.21.09.26.27.1l5.99-5.17a1.14 1.14 0 0 0 .35-.66l.45-6.6c.01-.2-.11-.25-.28-.1"/><path fill="#14110f" d="m31.6 7.63-6.36 5.7c-.28.26-.53.75-.56 1.1l-.46 7.3c-.02.35.2.42.5.16l6.85-5.9a1.67 1.67 0 0 0 .55-1.08V7.78c0-.33-.23-.4-.51-.15"/><path fill="#fff" d="m31.22 8.57-5.64 5.04a1.11 1.11 0 0 0-.33.65l-.38 6.56c-.01.21.13.26.3.1l6-5.18a1 1 0 0 0 .32-.65l.03-6.42c0-.2-.13-.25-.3-.1"/><path fill="#14110f" d="m47.4 20.87 6.37 5.7a2.4 2.4 0 0 1 .64 1.13l1.39 7.68c.07.37-.12.45-.42.2l-6.84-5.9a2.12 2.12 0 0 1-.64-1.12l-.92-7.5c-.05-.36.14-.44.42-.19"/><path fill="#fff" d="m47.88 21.85 5.63 5.03c.17.15.34.45.39.68l1.2 6.9c.04.21-.07.27-.25.11l-6-5.18a1.28 1.28 0 0 1-.37-.67l-.86-6.76c-.03-.2.08-.26.26-.11"/><path fill="#14110f" d="m40.01 14.25 6.37 5.7a2.12 2.12 0 0 1 .6 1.1l.93 7.5c.04.37-.16.44-.47.18l-6.84-5.9a1.87 1.87 0 0 1-.59-1.1l-.46-7.3c-.03-.35.18-.43.46-.18"/><path fill="#fff" d="m40.44 15.21 5.64 5.04c.17.15.33.45.36.66l.79 6.73c.02.21-.1.26-.28.1l-5.99-5.17a1.14 1.14 0 0 1-.35-.66l-.44-6.6c-.02-.2.1-.25.27-.1"/><path fill="#14110f" d="m32.63 7.63 6.36 5.7c.28.26.53.75.56 1.1l.46 7.3c.02.35-.2.42-.5.16L32.66 16a1.67 1.67 0 0 1-.54-1.08V7.78c0-.33.22-.4.5-.15"/><path fill="#fff" d="m33.01 8.57 5.64 5.04a1.11 1.11 0 0 1 .33.65l.38 6.56c.01.21-.12.26-.3.1l-5.99-5.18a1.01 1.01 0 0 1-.33-.65l-.03-6.42c0-.2.13-.25.3-.1"/><path fill="#14110f" d="M45.29 40.28H18.06l1.65-14.24 23.49-.03z"/><path fill="#14110f" d="m24.79 24.3-10.41.02a1.13 1.13 0 0 0-1.08.87l-1.86 9.86c-.1.47.3.86.87.86H24.1c.57 0 1.06-.39 1.08-.87l.49-9.87a.84.84 0 0 0-.87-.86"/><path fill="#868686" d="m24.12 25.23-9.3.01c-.3 0-.59.24-.64.52l-1.55 8.71c-.05.29.19.52.52.52h10.32c.34 0 .63-.24.64-.52l.53-8.72c.02-.29-.22-.52-.52-.52"/><path fill="#14110f" d="M37.03 24.3H26.6a.95.95 0 0 0-.95.87l-.49 9.87c-.02.48.42.87 1 .87h11.78c.57 0 1-.4.95-.88l-.88-9.87a1 1 0 0 0-1-.87"/><path fill="#868686" d="M36.49 25.22h-9.3c-.3 0-.56.24-.57.53l-.34 8.71c0 .3.26.53.6.53l10.31-.01c.34 0 .6-.24.58-.52l-.7-8.72c-.01-.3-.28-.52-.58-.52"/><path fill="#14110f" d="m49.26 24.28-10.4.01c-.51 0-.89.39-.84.87l.88 9.87c.05.48.54.87 1.11.87H51.8c.57 0 .94-.4.84-.88l-2.27-9.88a1.18 1.18 0 0 0-1.1-.86"/><path fill="#868686" d="m48.85 25.2-9.3.01c-.3 0-.52.24-.5.52l.89 8.73c.02.28.32.52.66.52l10.32-.01c.34 0 .56-.23.5-.52l-1.9-8.73a.7.7 0 0 0-.67-.52"/><path fill="#14110f" d="m24.1 35.9-11.8.01c-.56 0-1.1.4-1.19.87l-1.86 9.86c-.09.48.35.87 1 .87H23.4c.64 0 1.17-.4 1.2-.87l.49-9.87c.02-.48-.43-.86-1-.86"/><path fill="#868686" d="M23.35 36.83H12.84c-.35 0-.67.24-.72.52l-1.55 8.72c-.05.28.22.51.6.51H22.7c.37 0 .7-.23.71-.51l.53-8.72c.02-.29-.25-.52-.6-.52"/><path fill="#14110f" d="M37.95 35.9H26.16c-.57 0-1.05.4-1.07.87l-.5 9.87c-.02.48.48.87 1.12.87h13.16c.63 0 1.12-.4 1.07-.87l-.88-9.87c-.04-.48-.54-.87-1.11-.87"/><path fill="#868686" d="M37.33 36.82H26.82c-.35 0-.64.24-.65.53l-.33 8.72c-.01.28.29.51.67.51h11.52c.38 0 .67-.23.65-.51L38 37.34c-.02-.29-.32-.52-.66-.52"/><path fill="#14110f" d="M51.8 35.9H40.02c-.58 0-1 .39-.96.87l.88 9.87c.05.48.6.87 1.24.87h13.16c.63 0 1.06-.4.95-.87l-2.26-9.88c-.1-.48-.66-.87-1.23-.87"/><path fill="#868686" d="M51.3 36.82H40.8c-.35 0-.6.23-.57.52l.88 8.72c.02.3.36.52.74.52h11.52c.38 0 .64-.23.58-.52l-1.9-8.73c-.06-.28-.4-.52-.74-.51"/><path fill="#14110f" d="m43.51 63.3-22.41-.02-2.67-10.87h27.04z"/><path fill="#14110f" d="M23.4 47.5H10.24c-.64 0-1.07.23-.97.5l2.05 5.64c.1.28.65.5 1.23.5h11.88c.58 0 1.01-.22.98-.5L24.62 48c-.03-.27-.58-.5-1.22-.5"/><path fill="#575756" d="M22.72 48.03H11.2c-.38 0-.65.14-.59.3l1.73 4.99c.06.16.38.3.73.3h10.6c.34 0 .6-.14.57-.3l-.77-4.99c-.03-.16-.36-.3-.74-.3"/><path fill="#14110f" d="M38.87 47.5H25.71c-.64 0-1.12.23-1.09.5l.79 5.65c.03.27.53.5 1.1.5H38.4c.58 0 1.06-.22 1.09-.5l.5-5.65c.01-.27-.49-.5-1.12-.5"/><path fill="#575756" d="M38.07 48.03H26.53c-.37 0-.67.14-.65.3l.6 5c.02.15.32.29.67.29h10.59c.35 0 .64-.13.65-.3l.35-4.99c0-.16-.3-.3-.67-.3"/><path fill="#14110f" d="M54.34 47.5H41.18c-.64 0-1.18.23-1.2.5l-.5 5.65c-.02.28.43.5 1 .5h11.89c.58 0 1.11-.22 1.2-.5L55.33 48c.1-.27-.36-.5-1-.5"/><path fill="#575756" d="M53.42 48.03H41.88c-.37 0-.7.14-.72.3l-.52 5c-.02.16.25.3.6.3h10.59c.35 0 .67-.14.72-.3l1.47-5c.05-.16-.22-.3-.6-.3"/><path fill="#14110f" d="M24.43 54.14H12.55c-.58 0-.97.22-.87.5l2.06 5.64c.1.27.6.5 1.1.5h10.62c.51 0 .9-.22.86-.5l-.78-5.64c-.04-.27-.53-.5-1.1-.5"/><path fill="#575756" d="M23.83 54.67H13.4c-.34 0-.57.13-.51.3l1.72 4.98c.06.16.36.3.67.3h9.46c.31 0 .55-.13.52-.3l-.78-4.98c-.02-.17-.32-.3-.66-.3"/><path fill="#14110f" d="M38.4 54.15H26.52c-.58 0-1.02.22-.98.49l.78 5.65c.04.27.49.5 1 .5h10.61c.52 0 .95-.22.98-.5l.49-5.65c.03-.27-.42-.5-1-.5"/><path fill="#575756" d="M37.68 54.68H27.27c-.35 0-.6.12-.59.29l.6 4.99c.02.16.29.3.6.3h9.47c.3 0 .57-.13.58-.3l.34-4.99c.02-.16-.25-.3-.6-.3"/><path fill="#14110f" d="M52.37 54.15H40.49c-.58 0-1.07.22-1.09.5l-.5 5.64c-.02.28.38.5.9.5l10.6.01c.52 0 1-.22 1.09-.5l1.77-5.65c.08-.27-.31-.5-.9-.5"/><path fill="#575756" d="M51.53 54.68H41.12c-.35 0-.64.13-.65.3l-.53 4.99c-.02.16.22.3.53.3h9.46c.32 0 .6-.13.66-.3l1.47-5c.05-.16-.2-.29-.53-.29"/><path fill="#14110f" d="M25.46 60.78H14.85c-.51 0-.85.21-.75.49l2.05 5.64c.1.27.55.5 1 .5h9.34c.45 0 .79-.21.75-.49l-.78-5.64c-.04-.28-.49-.5-1-.5"/><path fill="#575756" d="M24.93 61.3h-9.29c-.3 0-.5.13-.45.3l1.73 4.98c.06.17.33.3.6.3l8.34.01c.27 0 .47-.13.45-.3l-.78-4.99c-.03-.16-.3-.3-.6-.3"/><path fill="#14110f" d="m37.93 60.8-10.6-.02c-.52 0-.9.22-.87.5l.78 5.64c.04.28.44.5.89.5l9.33.01c.45 0 .84-.22.86-.5l.5-5.64c.02-.28-.37-.5-.89-.5"/><path fill="#575756" d="M37.28 61.32H28c-.3 0-.54.12-.52.29l.6 4.98c.02.17.26.3.53.3l8.34.01c.27 0 .5-.13.52-.3l.34-4.98c.01-.17-.22-.3-.53-.3"/><path fill="#14110f" d="M50.4 60.8H39.8c-.52 0-.96.21-.98.49l-.5 5.65c-.02.27.33.5.78.5h9.34c.45 0 .89-.21.97-.49l1.77-5.65c.09-.28-.26-.5-.78-.5"/><path fill="#575756" d="m49.64 61.33-9.3-.01c-.3 0-.56.13-.57.3l-.53 4.99c-.02.16.2.3.47.3h8.33c.28 0 .54-.12.59-.29l1.47-5c.05-.16-.16-.3-.46-.3"/><path fill="none" stroke="#fff" stroke-linecap="round" stroke-linejoin="round" stroke-miterlimit="10" stroke-width="4.32" d="M36.71 8.28a35.65 35.65 0 0 0-18.46 1.92L17.1 7.76l-4.08 5.9 7.15.59-1.14-2.41C30.9 7.44 43.9 9.79 50.95 17.7l1.34-1.2c-3.83-4.3-9.22-7.14-15.58-8.22Z"/><path fill="none" stroke="#1d1d1b" stroke-linecap="round" stroke-linejoin="round" stroke-miterlimit="10" stroke-width="2.88" d="M36.71 8.28a35.65 35.65 0 0 0-18.46 1.92L17.1 7.76l-4.08 5.9 7.15.59-1.14-2.41C30.9 7.44 43.9 9.79 50.95 17.7l1.34-1.2c-3.83-4.3-9.22-7.14-15.58-8.22Z"/><path fill="none" stroke="#e40428" stroke-miterlimit="10" stroke-width="2.16" d="M51.65 17.22c-7.48-8.38-21.15-10.79-33.73-5.8"/><path fill="#e40428" d="m17.36 7.6-4.32 6.18 7.5.66Z"/></svg>