<svg xmlns="http://www.w3.org/2000/svg" viewBox="0 0 68.4 99"><path fill="#b1b1b1" d="M64.45 91.8H11.16a3.96 3.96 0 0 1-3.96-3.96V3.94A3.96 3.96 0 0 1 11.16 0h53.29a3.96 3.96 0 0 1 3.95 3.96v83.89a3.96 3.96 0 0 1-3.95 3.95"/><path fill="#d6d4d5" d="M62.17 89.24H13.44a3.68 3.68 0 0 1-3.68-3.68V6.22a3.68 3.68 0 0 1 3.67-3.68h48.74a3.68 3.68 0 0 1 3.68 3.68v79.34a3.68 3.68 0 0 1-3.68 3.68"/><path fill="#575756" d="M68.4 76.7v11.12c0 2.2-1.78 3.97-3.97 3.97H11.18a3.97 3.97 0 0 1-3.98-3.97V67.36"/><path fill="#fff" d="M58.66 97.55H5.38a3.96 3.96 0 0 1-3.96-3.96V9.71a3.96 3.96 0 0 1 3.96-3.96h53.28a3.96 3.96 0 0 1 3.96 3.96v83.88a3.96 3.96 0 0 1-3.96 3.96"/><path fill="#b1b1b1" d="M57.22 98.99H3.94a3.96 3.96 0 0 1-3.96-3.96V11.15a3.96 3.96 0 0 1 3.96-3.96h53.28a3.96 3.96 0 0 1 3.96 3.96v83.88A3.96 3.96 0 0 1 57.22 99"/><path fill="#d6d4d5" d="M54.95 96.44H6.2a3.68 3.68 0 0 1-3.68-3.68V13.42A3.68 3.68 0 0 1 6.2 9.74h48.74a3.68 3.68 0 0 1 3.68 3.68v79.34a3.68 3.68 0 0 1-3.68 3.68"/><path fill="#575756" d="M61.18 83.9v11.11c0 2.2-1.78 3.98-3.97 3.98H3.96A3.97 3.97 0 0 1-.02 95V74.56"/><path fill="#fff" d="M27.17 94.83a.4.4 0 0 1-.28-.12.4.4 0 0 1-.12-.29v-10.5c0-.13.03-.23.1-.3a.38.38 0 0 1 .3-.13h5c1.38 0 2.4.28 3.07.84.67.56 1 1.36 1 2.4 0 .52-.14.97-.41 1.35a2.65 2.65 0 0 1-.92.82 2.65 2.65 0 0 1 1.12.97 2.63 2.63 0 0 1 .46 1.5c0 1.1-.36 1.94-1.08 2.55-.72.6-1.75.9-3.09.9zm4.66-6.86c.4 0 .71-.1.93-.32a1.14 1.14 0 0 0 .32-.84c0-.33-.1-.6-.31-.81-.22-.22-.53-.32-.94-.32h-2.02v2.3zm.15 4.67c.42 0 .75-.12.98-.37a1.24 1.24 0 0 0 .35-.9c0-.36-.12-.67-.36-.9a1.3 1.3 0 0 0-.97-.37h-2.17v2.54zm0 0" aria-label="B"/><path fill="#14110f" d="M9.28 53.35s-.33.93-.02 1.5c.38.68 3.58 5.26 3.58 5.26s-1.39.72-1.17 1.34c.22.6 4.35 5.06 4.35 5.06s-2.23.76-1.92 1.6c.3.83 37.09-.03 37.09-.03s.18-1.13-.9-1.57c-.68-.27 2.97-5.05 2.97-5.05s.3-.9-1.15-1.36c-1.3-.43 3.22-5.27 3.22-5.27s.16-.62-.07-1.48c-.29-1.1-29.98-2.72-30.12-2.72S9.28 53.35 9.28 53.35m4.32-8.16-4.59-1.75s-.75-.33-.58-1.23c.26-1.4 23.17-27.75 23.17-27.75s.51.32 1.02 0l23.17 27.76s.18.71-.7 1.13L44.68 46.8Z"/><path fill="#14110f" d="m16.83 27.7-6.37 5.7a2.39 2.39 0 0 0-.64 1.13L8.43 42.2c-.07.37.11.46.42.2l6.84-5.9a2.12 2.12 0 0 0 .63-1.12l.93-7.5c.05-.36-.14-.44-.42-.19"/><path fill="#fff" d="m16.35 28.68-5.63 5.03a1.42 1.42 0 0 0-.39.68l-1.2 6.9c-.04.21.07.27.25.11l5.99-5.17a1.28 1.28 0 0 0 .38-.68l.86-6.75c.03-.22-.09-.27-.26-.12"/><path fill="#14110f" d="m24.22 21.08-6.37 5.7a2.12 2.12 0 0 0-.6 1.11l-.93 7.5c-.04.36.16.43.46.17l6.85-5.9a1.87 1.87 0 0 0 .59-1.1l.46-7.3c.03-.35-.18-.43-.46-.18"/><path fill="#fff" d="m23.79 22.04-5.64 5.04a1.25 1.25 0 0 0-.36.66L17 34.47c-.02.21.1.26.28.1l5.98-5.17a1.14 1.14 0 0 0 .36-.66l.44-6.59c.02-.21-.1-.26-.28-.1"/><path fill="#14110f" d="m31.6 14.46-6.36 5.7c-.29.26-.53.75-.56 1.1l-.46 7.3c-.03.35.2.42.5.16l6.84-5.9a1.67 1.67 0 0 0 .55-1.08v-7.12c0-.34-.23-.41-.5-.16"/><path fill="#fff" d="m31.22 15.4-5.64 5.04a1.11 1.11 0 0 0-.33.65l-.38 6.57c-.01.2.12.25.3.1l5.99-5.18a1 1 0 0 0 .33-.66l.03-6.42c0-.2-.14-.25-.3-.1"/><path fill="#14110f" d="m47.4 27.7 6.36 5.7a2.39 2.39 0 0 1 .65 1.13l1.38 7.68c.08.37-.1.46-.41.2l-6.85-5.9a2.12 2.12 0 0 1-.63-1.12l-.93-7.5c-.04-.36.14-.44.43-.19"/><path fill="#fff" d="m47.87 28.68 5.64 5.03c.17.16.34.46.38.68l1.2 6.9c.04.21-.07.27-.25.11l-5.99-5.17a1.28 1.28 0 0 1-.38-.68l-.85-6.75c-.03-.22.08-.27.25-.12"/><path fill="#14110f" d="m40 21.08 6.38 5.7a2.12 2.12 0 0 1 .6 1.11l.92 7.5c.05.36-.16.43-.46.17l-6.84-5.9a1.87 1.87 0 0 1-.6-1.1l-.46-7.3c-.02-.35.19-.43.47-.18"/><path fill="#fff" d="m40.44 22.04 5.64 5.04c.17.15.33.45.35.66l.8 6.73c.02.21-.1.26-.28.1l-5.99-5.17a1.14 1.14 0 0 1-.35-.66l-.45-6.59c-.01-.21.1-.26.28-.1"/><path fill="#14110f" d="m32.62 14.46 6.37 5.7c.28.26.53.75.55 1.1l.46 7.3c.03.35-.2.42-.5.16l-6.84-5.9a1.67 1.67 0 0 1-.55-1.08v-7.12c0-.34.23-.41.51-.16"/><path fill="#fff" d="m33 15.4 5.64 5.04a1.11 1.11 0 0 1 .34.65l.37 6.57c.02.2-.12.25-.3.1l-5.99-5.18a1 1 0 0 1-.32-.66l-.04-6.42c0-.2.14-.25.3-.1"/><path fill="#14110f" d="M45.29 47.11H18.06l1.64-14.24 23.5-.03z"/><path fill="#14110f" d="m24.78 31.14-10.4.01a1.13 1.13 0 0 0-1.08.87l-1.86 9.86c-.1.48.3.86.87.86h11.78c.57 0 1.05-.39 1.08-.87l.48-9.87c.03-.47-.36-.86-.87-.86"/><path fill="#868686" d="m24.11 32.06-9.29.01c-.3 0-.6.24-.64.52l-1.55 8.72c-.05.28.18.51.52.51h10.32c.33 0 .62-.23.64-.52l.53-8.72c.02-.29-.22-.52-.53-.52"/><path fill="#14110f" d="m37.02 31.12-10.41.02a.95.95 0 0 0-.95.87l-.5 9.86c-.02.48.43.87 1 .87h11.78c.58 0 1-.4.96-.88L38 32a1 1 0 0 0-.99-.87"/><path fill="#868686" d="M36.48 32.05h-9.3c-.3 0-.56.24-.57.53l-.33 8.72c-.01.28.25.52.6.52h10.31c.34 0 .6-.24.57-.53l-.68-8.72a.6.6 0 0 0-.6-.52"/><path fill="#14110f" d="m49.26 31.11-10.41.01c-.5 0-.88.4-.84.87l.89 9.87c.04.48.54.87 1.11.87h11.78c.58 0 .95-.4.84-.87l-2.26-9.88a1.18 1.18 0 0 0-1.11-.87"/><path fill="#868686" d="m48.85 32.03-9.3.01c-.3 0-.53.24-.5.53l.88 8.72c.03.29.33.52.67.52h10.31c.34 0 .57-.24.5-.53l-1.9-8.73a.7.7 0 0 0-.66-.52"/><path fill="#14110f" d="M24.09 42.74H12.31c-.58 0-1.11.4-1.2.87l-1.86 9.86c-.1.48.35.87.99.87H23.4c.63 0 1.17-.39 1.2-.87l.48-9.87c.03-.47-.42-.86-.99-.86"/><path fill="#868686" d="M23.34 43.66h-10.5c-.35 0-.67.24-.72.53l-1.55 8.7c-.05.3.21.53.6.53h11.52c.38 0 .7-.24.72-.52l.53-8.72c.02-.29-.25-.52-.6-.52"/><path fill="#14110f" d="M37.94 42.73H26.16c-.57 0-1.05.4-1.08.87l-.48 9.87c-.03.48.47.87 1.1.87h13.16c.64 0 1.13-.39 1.08-.87l-.89-9.87c-.04-.48-.53-.87-1.1-.87"/><path fill="#868686" d="m37.32 43.65-10.5.01c-.35 0-.64.23-.65.52l-.33 8.72c-.01.28.28.52.66.52h11.53c.38 0 .67-.24.65-.52l-.7-8.73c-.01-.29-.3-.52-.66-.52"/><path fill="#14110f" d="m51.8 42.72-11.8.01c-.57 0-1 .39-.96.87l.9 9.87c.04.48.59.87 1.22.87h13.16c.64 0 1.07-.39.96-.87l-2.26-9.88c-.11-.48-.66-.87-1.24-.87"/><path fill="#868686" d="M51.3 43.65H40.8c-.35 0-.6.23-.58.52l.88 8.73c.03.28.36.52.74.52h11.53c.38 0 .64-.24.58-.53l-1.9-8.72c-.07-.29-.4-.52-.75-.52"/><path fill="#14110f" d="m43.51 70.13-22.41-.02-2.67-10.87h27.04Z"/><path fill="#14110f" d="M23.4 54.34H10.24c-.64 0-1.07.22-.97.5l2.05 5.64c.1.27.65.5 1.22.5h11.89c.57 0 1.01-.23.97-.5l-.78-5.65c-.04-.27-.59-.5-1.22-.5"/><path fill="#575756" d="M22.72 54.86H11.18c-.38 0-.64.14-.58.3l1.72 4.99c.06.16.4.3.74.3h10.59c.34 0 .6-.14.58-.3l-.78-4.99c-.02-.16-.35-.3-.73-.3"/><path fill="#14110f" d="M38.87 54.34H25.7c-.64 0-1.13.22-1.09.5l.78 5.64c.04.27.54.5 1.11.5h11.9c.57 0 1.06-.22 1.08-.5l.5-5.65c.02-.27-.48-.5-1.12-.5"/><path fill="#575756" d="M38.07 54.86H26.53c-.38 0-.67.14-.65.3l.6 5c.02.16.32.29.67.29h10.58c.35 0 .64-.13.66-.3l.34-4.99c.02-.16-.28-.3-.66-.3"/><path fill="#14110f" d="M54.33 54.34H41.17c-.63 0-1.17.22-1.2.5l-.49 5.64c-.02.28.43.5 1 .5h11.89c.57 0 1.1-.22 1.2-.49l1.76-5.66c.09-.27-.36-.5-1-.5"/><path fill="#575756" d="M53.42 54.86H41.88c-.38 0-.7.14-.72.3l-.53 5c-.01.16.26.3.6.3h10.6c.34 0 .67-.14.71-.3l1.47-5c.05-.16-.22-.3-.6-.3"/><path fill="#14110f" d="M24.43 60.97H12.54c-.57 0-.96.22-.86.5l2.05 5.64c.1.27.6.5 1.12.5h10.6c.52 0 .9-.22.87-.5l-.78-5.64c-.04-.27-.54-.5-1.11-.5"/><path fill="#575756" d="M23.82 61.5h-10.4c-.35 0-.58.13-.53.3l1.73 4.98c.06.16.36.3.67.3h9.46c.31 0 .54-.13.52-.3l-.78-4.98c-.03-.16-.33-.3-.67-.3"/><path fill="#14110f" d="M38.4 60.98H26.5c-.57 0-1.01.22-.97.5l.78 5.64c.04.27.48.5 1 .5h10.6c.52 0 .96-.22.98-.5l.5-5.64c.02-.28-.43-.5-1-.5"/><path fill="#575756" d="M37.67 61.5h-10.4c-.35 0-.61.14-.59.3l.6 4.99c.02.16.29.3.6.3h9.46c.31 0 .57-.13.59-.3l.34-4.99c.01-.16-.25-.3-.6-.3"/><path fill="#14110f" d="M52.37 60.98H40.48c-.57 0-1.06.22-1.08.5l-.5 5.65c-.02.27.37.5.89.5H50.4c.51 0 1-.22 1.08-.5l1.77-5.65c.09-.27-.3-.5-.88-.5"/><path fill="#575756" d="M51.52 61.51h-10.4c-.35 0-.64.13-.66.3l-.52 4.99c-.02.16.22.3.53.3h9.46c.31 0 .6-.13.65-.3l1.48-4.99c.04-.16-.2-.3-.54-.3"/><path fill="#14110f" d="M25.46 67.61H14.85c-.52 0-.85.21-.76.49l2.06 5.64c.1.28.55.5 1 .5h9.33c.46 0 .8-.21.76-.48l-.78-5.65c-.04-.28-.49-.5-1-.5"/><path fill="#575756" d="M24.92 68.14h-9.28c-.3 0-.5.12-.45.29l1.73 4.98c.05.17.32.3.6.3l8.33.01c.28 0 .48-.13.45-.3l-.78-4.98c-.02-.17-.29-.3-.6-.3"/><path fill="#14110f" d="M37.93 67.62H27.32c-.52 0-.9.21-.86.49l.78 5.65c.03.27.43.5.88.5h9.34c.45 0 .84-.22.86-.5l.5-5.64c.02-.27-.38-.5-.9-.5"/><path fill="#575756" d="M37.28 68.15h-9.29c-.3 0-.53.12-.51.29l.6 4.99c.02.16.25.3.53.3h8.34c.27 0 .5-.13.51-.3l.35-4.98c.01-.17-.23-.3-.53-.3"/><path fill="#14110f" d="M50.4 67.63H39.79c-.51 0-.95.22-.97.49l-.5 5.65c-.02.27.32.5.78.5l9.33.01c.45 0 .9-.22.98-.5l1.77-5.65c.08-.28-.27-.5-.78-.5"/><path fill="#575756" d="M49.63 68.16h-9.28c-.3 0-.57.12-.59.29l-.53 5c-.01.16.2.29.47.29l8.34.01c.28 0 .54-.13.58-.3l1.48-5c.05-.16-.16-.29-.47-.29m11.55 15.75V95c0 2.2-1.78 3.98-3.97 3.98H3.96A3.97 3.97 0 0 1-.02 95V74.56"/><path fill="#fff" d="M21.86 94.83a.4.4 0 0 1-.29-.12.4.4 0 0 1-.12-.29v-10.5c0-.13.04-.23.12-.3a.39.39 0 0 1 .29-.13h5c1.38 0 2.4.28 3.06.84.68.56 1.01 1.36 1.01 2.4 0 .52-.14.97-.41 1.35a2.65 2.65 0 0 1-.92.82 2.65 2.65 0 0 1 1.12.97 2.63 2.63 0 0 1 .45 1.5c0 1.1-.36 1.94-1.07 2.55-.72.6-1.75.9-3.09.9zm4.66-6.86c.4 0 .71-.1.93-.32a1.14 1.14 0 0 0 .32-.84c0-.33-.1-.6-.32-.81-.2-.22-.52-.32-.93-.32H24.5v2.3zm.15 4.67c.42 0 .75-.12.98-.37a1.24 1.24 0 0 0 .35-.9c0-.36-.12-.67-.36-.9a1.3 1.3 0 0 0-.97-.37H24.5v2.54zm6.2 2.19a.38.38 0 0 1-.28-.12.4.4 0 0 1-.12-.29v-1.21a1 1 0 0 1 .4-.81l1.5-1.48c1.03-.77 1.8-1.38 2.33-1.8a8.13 8.13 0 0 0 1.2-1.18c.27-.35.41-.69.41-1 0-.8-.4-1.2-1.2-1.2-.42 0-.74.13-.97.38a1.98 1.98 0 0 0-.45.95c-.07.25-.25.37-.55.37H33a.35.35 0 0 1-.25-.1.33.33 0 0 1-.1-.24 3.7 3.7 0 0 1 .59-1.93 3.9 3.9 0 0 1 1.56-1.38 5.03 5.03 0 0 1 2.32-.51c.9 0 1.68.15 2.34.44a3.32 3.32 0 0 1 1.5 1.23c.34.53.5 1.14.5 1.84 0 .78-.23 1.48-.71 2.11-.48.63-1.21 1.3-2.2 2.04l-1.34 1.34h4.1a.4.4 0 0 1 .4.4v1.74c0 .1-.04.2-.12.29a.38.38 0 0 1-.28.12zm0 0" aria-label="B2"/><path fill="none" stroke="#fff" stroke-linecap="round" stroke-linejoin="round" stroke-miterlimit="10" stroke-width="4.32" d="M36.7 15.47a35.62 35.62 0 0 0-18.45 1.93l-1.16-2.45-4.08 5.9 7.15.59-1.14-2.41c11.88-4.4 24.87-2.05 31.93 5.86l1.34-1.2c-3.83-4.3-9.22-7.14-15.58-8.22Z"/><path fill="none" stroke="#1d1d1b" stroke-linecap="round" stroke-linejoin="round" stroke-miterlimit="10" stroke-width="2.88" d="M36.7 15.47a35.62 35.62 0 0 0-18.45 1.93l-1.16-2.45-4.08 5.9 7.15.59-1.14-2.41c11.88-4.4 24.87-2.05 31.93 5.86l1.34-1.2c-3.83-4.3-9.22-7.14-15.58-8.22Z"/><path fill="none" stroke="#e40428" stroke-miterlimit="10" stroke-width="2.16" d="M51.65 24.41c-7.48-8.38-21.15-10.79-33.73-5.79"/><path fill="#e40428" d="m17.36 14.8-4.32 6.17 7.5.66Z"/></svg>