<svg xmlns="http://www.w3.org/2000/svg" viewBox="0 0 60.97 91.46"><path fill="#b1b1b1" d="M57.12 91.62H3.82a3.96 3.96 0 0 1-3.95-3.96V3.78A3.96 3.96 0 0 1 3.83-.18h53.29a3.96 3.96 0 0 1 3.95 3.96v83.88a3.96 3.96 0 0 1-3.95 3.96"/><path fill="#d6d4d5" d="M54.84 89.07H6.1a3.68 3.68 0 0 1-3.68-3.68V6.05A3.68 3.68 0 0 1 6.1 2.37h48.74a3.68 3.68 0 0 1 3.68 3.68v79.34a3.68 3.68 0 0 1-3.68 3.68"/><path fill="#14110f" d="M9.17 46.34s-.32.93-.02 1.5c.38.68 3.58 5.26 3.58 5.26s-1.39.72-1.17 1.33c.22.62 4.35 5.07 4.35 5.07s-2.23.76-1.92 1.6c.3.83 37.09-.03 37.09-.03s.18-1.13-.9-1.56c-.68-.27 2.97-5.06 2.97-5.06s.3-.9-1.14-1.36c-1.32-.43 3.21-5.27 3.21-5.27s.16-.62-.06-1.48c-.3-1.1-30-2.72-30.12-2.72-.14 0-15.87 2.72-15.87 2.72m4.32-8.16L8.9 36.43s-.74-.32-.58-1.23C8.6 33.8 31.5 7.45 31.5 7.45s.51.32 1.02 0L55.68 35.2s.18.72-.69 1.14l-10.43 3.47Z"/><path fill="#14110f" d="m16.72 20.7-6.37 5.7a2.4 2.4 0 0 0-.64 1.12L8.32 35.2c-.07.37.12.46.42.2l6.84-5.9a2.12 2.12 0 0 0 .64-1.12l.92-7.5c.05-.35-.14-.44-.42-.19"/><path fill="#fff" d="m16.24 21.67-5.63 5.04a1.42 1.42 0 0 0-.39.67l-1.2 6.9c-.04.22.07.27.25.11l6-5.18a1.28 1.28 0 0 0 .37-.67l.86-6.75c.03-.22-.08-.27-.26-.12"/><path fill="#14110f" d="m24.1 14.07-6.36 5.7a2.12 2.12 0 0 0-.6 1.11l-.93 7.5c-.04.36.16.43.46.18l6.85-5.9a1.87 1.87 0 0 0 .59-1.1l.46-7.32c.03-.34-.18-.42-.46-.17"/><path fill="#fff" d="m23.68 15.04-5.64 5.03a1.25 1.25 0 0 0-.36.66l-.79 6.73c-.02.21.1.26.28.1l5.99-5.17a1.14 1.14 0 0 0 .35-.66l.44-6.6c.02-.2-.1-.25-.27-.1"/><path fill="#14110f" d="m31.5 7.45-6.37 5.71c-.29.25-.53.74-.56 1.08l-.46 7.31c-.02.35.2.42.5.16l6.85-5.9a1.67 1.67 0 0 0 .54-1.08V7.61c0-.34-.23-.4-.5-.16"/><path fill="#fff" d="m31.1 8.4-5.63 5.03a1.11 1.11 0 0 0-.33.65l-.38 6.57c-.01.2.12.25.3.1l5.99-5.18a1 1 0 0 0 .33-.65l.03-6.43c0-.2-.13-.24-.3-.1"/><path fill="#14110f" d="m47.29 20.7 6.36 5.7a2.4 2.4 0 0 1 .65 1.12l1.38 7.68c.08.37-.1.46-.4.2l-6.85-5.9a2.12 2.12 0 0 1-.64-1.12l-.92-7.5c-.05-.35.14-.44.42-.19"/><path fill="#fff" d="m47.76 21.67 5.64 5.04c.17.15.34.45.38.67l1.2 6.9c.05.22-.07.27-.25.11l-5.99-5.18a1.28 1.28 0 0 1-.38-.67l-.85-6.75c-.03-.22.08-.27.25-.12"/><path fill="#14110f" d="m39.9 14.07 6.37 5.7a2.12 2.12 0 0 1 .6 1.11l.92 7.5c.05.36-.16.43-.46.18l-6.84-5.9a1.87 1.87 0 0 1-.6-1.1l-.46-7.32c-.02-.34.19-.42.47-.17"/><path fill="#fff" d="m40.33 15.04 5.64 5.03c.17.15.33.45.36.66l.78 6.73c.03.21-.1.26-.27.1l-5.99-5.17a1.14 1.14 0 0 1-.36-.66l-.44-6.6c-.01-.2.11-.25.28-.1"/><path fill="#14110f" d="m32.51 7.45 6.37 5.71c.28.25.53.74.56 1.08l.46 7.31c.02.35-.2.42-.5.16l-6.85-5.9a1.67 1.67 0 0 1-.55-1.08V7.61c0-.34.23-.4.51-.16"/><path fill="#fff" d="m32.9 8.4 5.64 5.03a1.11 1.11 0 0 1 .33.65l.38 6.57c0 .2-.13.25-.3.1l-6-5.18a1.01 1.01 0 0 1-.32-.65l-.03-6.43c0-.2.13-.24.3-.1"/><path fill="#14110f" d="m45.18 40.1-27.23.01 1.64-14.25 23.5-.02z"/><path fill="#14110f" d="m24.68 24.13-10.42.02a1.13 1.13 0 0 0-1.07.86l-1.86 9.86c-.1.48.3.87.87.87h11.78c.57 0 1.06-.4 1.08-.88l.49-9.87c.02-.47-.37-.86-.88-.86"/><path fill="#868686" d="m24 25.05-9.29.01c-.3 0-.6.24-.64.52l-1.55 8.72c-.05.28.18.52.52.52l10.32-.01c.34 0 .62-.23.64-.52l.53-8.72c.02-.28-.22-.52-.52-.52"/><path fill="#14110f" d="M36.91 24.12h-10.4a.95.95 0 0 0-.96.88l-.5 9.86c-.02.48.43.87 1 .87h11.78c.57 0 1-.4.96-.87l-.89-9.88a1 1 0 0 0-.99-.86"/><path fill="#868686" d="m36.37 25.04-9.3.01c-.3 0-.56.23-.57.52l-.33 8.72c-.01.28.26.52.6.52h10.31c.34 0 .6-.24.57-.53l-.68-8.72a.6.6 0 0 0-.6-.52"/><path fill="#14110f" d="m49.15 24.1-10.41.01c-.5 0-.88.4-.84.87l.9 9.88c.03.47.53.86 1.1.86h11.8c.57 0 .94-.4.83-.87l-2.26-9.88a1.18 1.18 0 0 0-1.11-.87"/><path fill="#868686" d="m48.74 25.02-9.3.01a.5.5 0 0 0-.5.53l.88 8.72c.03.29.33.52.67.52H50.8c.33 0 .56-.24.5-.53l-1.9-8.73a.7.7 0 0 0-.67-.52"/><path fill="#14110f" d="M23.98 35.73H12.2c-.57 0-1.11.4-1.2.87l-1.86 9.86c-.1.48.35.87 1 .87h13.15c.63 0 1.17-.39 1.2-.87l.48-9.87c.03-.47-.42-.86-.99-.86"/><path fill="#868686" d="M23.23 36.65h-10.5c-.35 0-.67.24-.72.53l-1.55 8.7c-.05.3.22.53.6.53h11.52c.38 0 .7-.24.72-.52l.53-8.72c.01-.29-.25-.52-.6-.52"/><path fill="#14110f" d="M37.83 35.72H26.05c-.57 0-1.05.4-1.08.88l-.49 9.87c-.02.47.48.86 1.12.86h13.16c.63 0 1.12-.39 1.07-.87l-.88-9.87c-.05-.48-.55-.87-1.11-.87"/><path fill="#868686" d="M37.21 36.64h-10.5c-.35 0-.64.24-.65.53l-.33 8.72c-.01.28.29.52.67.52h11.52c.38 0 .67-.24.65-.52l-.69-8.72c-.02-.3-.32-.53-.67-.53"/><path fill="#14110f" d="M51.69 35.72H39.9c-.57 0-1 .39-.95.87l.88 9.87c.05.48.6.87 1.24.87h13.15c.64 0 1.07-.39.96-.87l-2.26-9.88c-.11-.48-.66-.86-1.23-.86"/><path fill="#868686" d="M51.2 36.64H40.68c-.35 0-.6.24-.58.52l.9 8.74c.03.28.36.52.75.52h11.52c.38 0 .64-.24.57-.52l-1.9-8.73c-.06-.29-.39-.52-.74-.52"/><path fill="#14110f" d="m43.4 63.13-22.42-.03-2.66-10.88 27.04.01z"/><path fill="#14110f" d="M23.29 47.33H10.13c-.64 0-1.07.22-.97.5l2.05 5.64c.1.27.65.5 1.22.5h11.89c.57 0 1-.23.97-.5l-.78-5.65c-.04-.27-.58-.5-1.22-.5"/><path fill="#575756" d="M22.6 47.86H11.08c-.37 0-.64.13-.58.3l1.72 4.98c.06.16.39.3.74.3h10.59c.35 0 .6-.13.58-.3l-.78-4.99c-.02-.16-.35-.3-.73-.3"/><path fill="#14110f" d="M38.76 47.33H25.6c-.64 0-1.13.22-1.09.5l.78 5.64c.04.27.54.5 1.11.5h11.9c.57 0 1.06-.22 1.08-.5l.5-5.65c.02-.27-.48-.5-1.11-.5"/><path fill="#575756" d="M37.96 47.86H26.42c-.38 0-.67.13-.65.3l.6 4.98c.02.17.32.3.67.3h10.59c.35 0 .64-.13.65-.3l.34-4.99c.02-.16-.28-.3-.66-.3"/><path fill="#14110f" d="M54.22 47.33H41.07c-.64 0-1.18.22-1.2.5l-.5 5.65c-.02.27.43.5 1 .5h11.89c.57 0 1.1-.23 1.2-.5l1.76-5.66c.09-.27-.36-.5-1-.5"/><path fill="#575756" d="M53.3 47.86H41.78c-.38 0-.7.13-.72.3l-.52 4.99c-.02.16.25.3.6.3h10.59c.34 0 .66-.14.72-.3l1.47-5c.04-.16-.22-.3-.6-.3"/><path fill="#14110f" d="M24.32 53.97H12.43c-.57 0-.96.21-.86.49l2.06 5.64c.1.27.6.5 1.1.5h10.62c.51 0 .9-.22.86-.5l-.78-5.64c-.04-.27-.53-.5-1.11-.5"/><path fill="#575756" d="m23.71 54.5-10.4-.01c-.35 0-.58.13-.52.3l1.72 4.98c.06.16.36.3.67.3h9.46c.31 0 .54-.13.52-.3l-.78-4.98c-.03-.16-.32-.3-.67-.3"/><path fill="#14110f" d="M38.29 53.97H26.4c-.57 0-1.01.22-.97.5l.78 5.64c.04.27.48.5 1 .5h10.61c.51 0 .95-.22.97-.5l.5-5.64c.02-.28-.43-.5-1-.5"/><path fill="#575756" d="M37.56 54.5h-10.4c-.35 0-.61.13-.59.3l.6 4.98c.02.17.29.3.6.3h9.46c.31 0 .57-.13.58-.3l.35-4.98c.01-.17-.25-.3-.6-.3"/><path fill="#14110f" d="M52.26 53.98H40.37c-.57 0-1.06.21-1.08.49l-.5 5.65c-.02.27.38.5.9.5h10.6c.52 0 1-.22 1.09-.5l1.76-5.65c.1-.27-.3-.5-.88-.5"/><path fill="#575756" d="M51.41 54.5h-10.4c-.35 0-.64.13-.66.3l-.52 4.99c-.02.16.22.3.53.3h9.46c.32 0 .6-.13.65-.3l1.48-4.99c.05-.16-.2-.3-.54-.3"/><path fill="#14110f" d="M25.35 60.6H14.74c-.52 0-.85.22-.75.49l2.05 5.64c.1.27.55.5 1 .5l9.34.01c.45 0 .79-.22.75-.5l-.78-5.64c-.04-.27-.49-.5-1-.5"/><path fill="#575756" d="M24.82 61.13h-9.29c-.3 0-.5.13-.45.29l1.73 4.98c.06.17.32.3.6.3l8.33.01c.28 0 .48-.13.45-.3l-.77-4.98c-.03-.17-.3-.3-.6-.3"/><path fill="#14110f" d="M37.82 60.61H27.21c-.52 0-.9.22-.87.49l.79 5.65c.04.27.43.5.88.5h9.34c.45 0 .84-.22.86-.49l.5-5.65c.02-.28-.37-.5-.89-.5"/><path fill="#575756" d="M37.17 61.14h-9.29c-.3 0-.53.13-.51.29l.6 4.99c.02.16.26.3.53.3h8.34c.27 0 .5-.13.51-.29l.35-5c.01-.16-.22-.29-.53-.29"/><path fill="#14110f" d="M50.3 60.62H39.67c-.51 0-.95.21-.97.49l-.5 5.65c-.02.27.33.5.78.5h9.34c.45 0 .88-.21.97-.49l1.77-5.65c.08-.28-.26-.5-.78-.5"/><path fill="#575756" d="M49.52 61.15h-9.28c-.3 0-.57.12-.58.29l-.53 5c-.02.16.19.29.47.29l8.33.01c.27 0 .54-.13.59-.3l1.47-5c.05-.16-.16-.3-.47-.3"/><path fill="#3c3c3b" d="M61.07 76.53v11.12a3.97 3.97 0 0 1-3.97 3.97H3.85a3.97 3.97 0 0 1-3.98-3.98V67.2"/><path fill="#fff" d="M24.9 87.46a.4.4 0 0 1-.3-.12.4.4 0 0 1-.11-.29v-10.5c0-.12.03-.22.1-.3a.39.39 0 0 1 .3-.13h5c1.38 0 2.4.28 3.07.85.67.55 1 1.35 1 2.39 0 .52-.14.97-.41 1.35a2.65 2.65 0 0 1-.91.82 2.65 2.65 0 0 1 1.11.97 2.63 2.63 0 0 1 .46 1.5c0 1.1-.36 1.95-1.08 2.55-.72.6-1.75.9-3.09.9zm4.66-6.85c.4 0 .7-.1.92-.33a1.14 1.14 0 0 0 .32-.84c0-.33-.1-.6-.31-.81a1.28 1.28 0 0 0-.93-.32h-2.02v2.3zm.15 4.66c.41 0 .74-.12.97-.36a1.24 1.24 0 0 0 .35-.9c0-.37-.12-.68-.36-.92a1.3 1.3 0 0 0-.96-.36h-2.17v2.54zm6.08-5.13a.31.31 0 0 1-.24-.1.36.36 0 0 1-.07-.27l.5-3.24c.04-.16.1-.3.2-.4.1-.11.23-.17.4-.17h1.98c.09 0 .16.03.21.1.07.06.1.14.1.22a.6.6 0 0 1-.03.18l-1.25 3.23c-.07.14-.15.25-.24.33a.56.56 0 0 1-.38.12zm0 0" aria-label="B’"/><path fill="none" stroke="#fff" stroke-linecap="round" stroke-linejoin="round" stroke-miterlimit="10" stroke-width="4.32" d="M28.49 8.1a35.65 35.65 0 0 1 18.45 1.93l1.16-2.45 4.08 5.9-7.15.59 1.14-2.4C34.3 7.26 21.3 9.6 14.24 17.51l-1.34-1.2c3.84-4.3 9.23-7.14 15.59-8.22Z"/><path fill="none" stroke="#1d1d1b" stroke-linecap="round" stroke-linejoin="round" stroke-miterlimit="10" stroke-width="2.88" d="M28.49 8.1a35.65 35.65 0 0 1 18.45 1.93l1.16-2.45 4.08 5.9-7.15.59 1.14-2.4C34.3 7.26 21.3 9.6 14.24 17.51l-1.34-1.2c3.84-4.3 9.23-7.14 15.59-8.22Z"/><path fill="none" stroke="#e40428" stroke-miterlimit="10" stroke-width="2.16" d="M13.55 17.05c7.47-8.39 21.15-10.8 33.72-5.8"/><path fill="#e40428" d="m44.65 14.26 7.5-.66-4.32-6.17Z"/></svg>