<svg xmlns="http://www.w3.org/2000/svg" viewBox="0 0 61.17 91.75"><path fill="#00a23a" d="M57.23 91.78H3.94A3.96 3.96 0 0 1 0 87.82V3.93A3.96 3.96 0 0 1 3.94-.02h53.29a3.96 3.96 0 0 1 3.96 3.95v83.9a3.96 3.96 0 0 1-3.96 3.95"/><path fill="#33b561" d="M61.18 76.7v11.1c0 2.2-1.78 3.98-3.97 3.98H3.96A3.97 3.97 0 0 1-.01 87.8V67.35"/><path fill="#fff" d="M27.08 87.62a.4.4 0 0 1-.29-.12.4.4 0 0 1-.12-.29v-10.5a.4.4 0 0 1 .11-.3.39.39 0 0 1 .3-.13h4.26c1.6 0 2.83.38 3.72 1.14a4.27 4.27 0 0 1 1.4 3.28 39.28 39.28 0 0 1 0 2.48c-.11 2.96-1.8 4.44-5.04 4.44Zm4.26-2.44c.68 0 1.18-.15 1.5-.48.32-.32.5-.84.52-1.55a16.85 16.85 0 0 0 0-2.42c-.02-.69-.2-1.2-.56-1.52-.35-.33-.86-.5-1.54-.5h-1.54v6.47zm0 0" aria-label="D"/><path fill="#14110f" d="M53 22.18H10.64v38.08H53z"/><path fill="#14110f" d="M11.47 62.76H3.02a.98.98 0 0 1-.98-.98V47.21a.98.98 0 0 1 .98-.98h8.45a.98.98 0 0 1 .97.98v14.57a.98.98 0 0 1-.97.98"/><path fill="#cfcfcf" d="M11.06 61.45h-7.4a.58.58 0 0 1-.58-.58V48.12c0-.32.26-.58.59-.58h7.39c.32 0 .58.26.58.58v12.75a.58.58 0 0 1-.58.58"/><path fill="#14110f" d="M21.65 62.76H13.4a.97.97 0 0 1-.97-.97V47.2a.97.97 0 0 1 .97-.96h8.24a.97.97 0 0 1 .96.97v14.6a.97.97 0 0 1-.96.96"/><path fill="#cfcfcf" d="M21.23 61.45h-7.4a.58.58 0 0 1-.58-.58V48.12c0-.32.26-.58.58-.58h7.4c.32 0 .58.26.58.58v12.75a.58.58 0 0 1-.58.58"/><path fill="#14110f" d="M20.81 46.23H6.75a1.24 1.24 0 0 1-1.24-1.24V30.93a1.23 1.23 0 0 1 1.24-1.23H20.8a1.23 1.23 0 0 1 1.24 1.23v14.06a1.24 1.24 0 0 1-1.24 1.24"/><path fill="#6f6f6e" d="M20 44.91H7.56a.74.74 0 0 1-.74-.74V31.75a.74.74 0 0 1 .74-.74h12.42a.74.74 0 0 1 .74.74v12.42a.74.74 0 0 1-.74.74"/><path fill="#14110f" d="M37.34 46.23H23.28a1.24 1.24 0 0 1-1.23-1.24V30.93a1.23 1.23 0 0 1 1.23-1.23h14.07a1.24 1.24 0 0 1 1.23 1.23v14.06a1.24 1.24 0 0 1-1.23 1.24"/><path fill="#6f6f6e" d="M36.53 44.91H24.1a.74.74 0 0 1-.74-.74V31.75a.74.74 0 0 1 .74-.74h12.43a.74.74 0 0 1 .74.74v12.42a.74.74 0 0 1-.74.74"/><path fill="#14110f" d="M53.88 46.23H39.82a1.23 1.23 0 0 1-1.24-1.24V30.93a1.23 1.23 0 0 1 1.24-1.23h14.06a1.23 1.23 0 0 1 1.23 1.23v14.06a1.24 1.24 0 0 1-1.23 1.24"/><path fill="#6f6f6e" d="M53.06 44.91H40.64a.74.74 0 0 1-.75-.74V31.75a.74.74 0 0 1 .75-.74h12.42a.74.74 0 0 1 .74.74v12.42a.74.74 0 0 1-.74.74"/><path fill="#14110f" d="M20.81 29.7H6.75a1.24 1.24 0 0 1-1.24-1.24V14.4a1.24 1.24 0 0 1 1.24-1.24H20.8a1.24 1.24 0 0 1 1.24 1.24v14.06a1.24 1.24 0 0 1-1.24 1.24"/><path fill="#6f6f6e" d="M20 28.38H7.56a.74.74 0 0 1-.74-.74V15.22a.74.74 0 0 1 .74-.75h12.42a.74.74 0 0 1 .74.75v12.42a.74.74 0 0 1-.74.74"/><path fill="#14110f" d="M37.34 29.7H23.28a1.24 1.24 0 0 1-1.23-1.24V14.4a1.24 1.24 0 0 1 1.23-1.24h14.07a1.24 1.24 0 0 1 1.23 1.24v14.06a1.24 1.24 0 0 1-1.23 1.24"/><path fill="#6f6f6e" d="M36.53 28.38H24.1a.74.74 0 0 1-.74-.74V15.22a.74.74 0 0 1 .74-.75h12.43a.74.74 0 0 1 .74.75v12.42a.74.74 0 0 1-.74.74"/><path fill="#14110f" d="M53.88 29.7H39.82a1.24 1.24 0 0 1-1.24-1.24V14.4a1.23 1.23 0 0 1 1.24-1.24h14.06a1.24 1.24 0 0 1 1.23 1.24v14.06a1.24 1.24 0 0 1-1.23 1.24"/><path fill="#6f6f6e" d="M53.06 28.38H40.64a.74.74 0 0 1-.75-.74V15.22a.74.74 0 0 1 .75-.75h12.42a.74.74 0 0 1 .74.75v12.42a.74.74 0 0 1-.74.74"/><path fill="#14110f" d="M49.6 62.76h-6.96a.9.9 0 0 1-.9-.9V47.12a.9.9 0 0 1 .9-.9h6.96a.9.9 0 0 1 .9.9v14.74a.9.9 0 0 1-.9.9"/><path fill="#fff" d="M49.26 61.45h-6.28a.54.54 0 0 1-.54-.54V48.08c0-.3.24-.54.54-.54h6.28c.3 0 .54.24.54.54V60.9c0 .3-.24.54-.54.54"/><path fill="#14110f" d="M58.57 62.76h-7.33a.92.92 0 0 1-.93-.92V47.02c0-.51.42-.93.93-.93h7.33a.92.92 0 0 1 .92.93v14.82a.92.92 0 0 1-.92.93"/><path fill="#fff" d="M58 61.45h-6.27a.54.54 0 0 1-.54-.54V48.08c0-.3.24-.54.54-.54H58c.3 0 .54.24.54.54V60.9c0 .3-.24.54-.54.54"/><path fill="#14110f" d="M11.48 62.76s.91 0 1.26-.27c.35-.28-.3-1.04-.3-1.04Zm10.17 0s1.1 0 1.26-.27c.15-.28-.3-1.2-.3-1.2Zm9.74 0h3.48l-2.08-3.42Zm11.25 0s-.89.02-1.18-.24c-.29-.27.28-1.47.28-1.47zm8.75 0s-.88 0-1.17-.26c-.28-.25 0-1.05 0-1.05z"/><path fill="#14110f" d="M31.81 62.76H23.6a.97.97 0 0 1-.97-.97V47.2a.97.97 0 0 1 .97-.96h8.23a.97.97 0 0 1 .97.97v14.6a.97.97 0 0 1-.97.96"/><path fill="#cfcfcf" d="M31.4 61.45H24a.58.58 0 0 1-.58-.58V48.12c0-.32.26-.58.58-.58h7.4c.32 0 .58.26.58.58v12.75a.58.58 0 0 1-.58.58"/><path fill="#14110f" d="M40.85 62.76h-6.96a.9.9 0 0 1-.9-.9V47.12a.9.9 0 0 1 .9-.9h6.96a.9.9 0 0 1 .9.9v14.74a.9.9 0 0 1-.9.9"/><path fill="#fff" d="M40.51 61.45h-6.28a.54.54 0 0 1-.54-.54V48.08c0-.3.24-.54.54-.54h6.28c.3 0 .54.24.54.54V60.9c0 .3-.24.54-.54.54"/><path fill="none" stroke="#fff" stroke-linecap="round" stroke-linejoin="round" stroke-miterlimit="10" stroke-width="4.32" d="m5.42 53.24.66-1.68c11.58 4.53 26.83 5.09 42.01 1.57l-.7-2.6 6.94 1.87-5.08 5.07-.7-2.6a88.56 88.56 0 0 1-19.94 2.35c-8.46 0-16.43-1.34-23.19-3.98Z"/><path fill="none" stroke="#1d1d1b" stroke-linecap="round" stroke-linejoin="round" stroke-miterlimit="10" stroke-width="2.88" d="m5.42 53.24.66-1.68c11.58 4.53 26.83 5.09 42.01 1.57l-.7-2.6 6.94 1.87-5.08 5.07-.7-2.6a88.56 88.56 0 0 1-19.94 2.35c-8.46 0-16.43-1.34-23.19-3.98Z"/><path fill="none" stroke="#e40428" stroke-miterlimit="10" stroke-width="2.16" d="M5.95 52.4c11.69 4.58 27.23 5.32 43.34 1.43"/><path fill="#e40428" d="m49.18 57.72 5.34-5.31-7.27-1.97z"/></svg>