<svg xmlns="http://www.w3.org/2000/svg" viewBox="0 0 61.02 91.52"><path fill="#33b561" d="M57.14 91.66H3.86A3.96 3.96 0 0 1-.1 87.71V3.82A3.96 3.96 0 0 1 3.86-.14h53.28a3.96 3.96 0 0 1 3.96 3.96v83.89a3.96 3.96 0 0 1-3.96 3.95"/><path fill="#00a23a" d="M61.1 76.58v11.11c0 2.2-1.78 3.97-3.98 3.97H3.87A3.97 3.97 0 0 1-.1 87.7V67.24"/><path fill="#fff" d="M24.82 87.5a.4.4 0 0 1-.28-.12.4.4 0 0 1-.12-.28V76.59a.4.4 0 0 1 .11-.3.39.39 0 0 1 .3-.12h4.25c1.6 0 2.84.38 3.73 1.13a4.27 4.27 0 0 1 1.39 3.29 39.28 39.28 0 0 1 0 2.47c-.1 2.96-1.79 4.44-5.04 4.44zm4.26-2.43c.68 0 1.18-.16 1.5-.48.33-.33.5-.85.53-1.56a16.85 16.85 0 0 0 0-2.41c-.03-.7-.21-1.2-.56-1.53-.35-.33-.87-.5-1.55-.5h-1.54v6.48Zm6.84-4.89a.3.3 0 0 1-.24-.1c-.06-.06-.08-.15-.07-.27l.5-3.24a.8.8 0 0 1 .2-.4c.09-.11.22-.16.4-.16h1.98c.08 0 .15.03.21.1.06.06.1.13.1.22 0 .06-.02.12-.04.18l-1.25 3.22a1 1 0 0 1-.23.33.55.55 0 0 1-.38.12zm0 0" aria-label="D’"/><path fill="#14110f" d="M52.91 22.07H10.56v38.07H52.9z"/><path fill="#14110f" d="M11.38 62.65H2.94a.98.98 0 0 1-.98-.98V47.09a.98.98 0 0 1 .98-.98h8.44a.98.98 0 0 1 .98.98v14.58a.98.98 0 0 1-.98.98"/><path fill="#cfcfcf" d="M10.97 61.33H3.58a.58.58 0 0 1-.58-.58V48.01c0-.32.26-.58.58-.58h7.4c.31 0 .57.26.57.58v12.75a.58.58 0 0 1-.58.57"/><path fill="#14110f" d="M21.56 62.65h-8.23a.97.97 0 0 1-.97-.97v-14.6a.97.97 0 0 1 .97-.96h8.23a.97.97 0 0 1 .97.96v14.6a.97.97 0 0 1-.97.97"/><path fill="#cfcfcf" d="M21.14 61.33h-7.4a.58.58 0 0 1-.57-.58V48.01c0-.32.26-.58.58-.58h7.4c.31 0 .57.26.57.58v12.75a.58.58 0 0 1-.58.57"/><path fill="#14110f" d="M20.73 46.12H6.67a1.24 1.24 0 0 1-1.24-1.24V30.82a1.24 1.24 0 0 1 1.24-1.24h14.06a1.24 1.24 0 0 1 1.24 1.24v14.06a1.24 1.24 0 0 1-1.24 1.24"/><path fill="#6f6f6e" d="M19.9 44.8H7.49a.74.74 0 0 1-.74-.74V31.64a.74.74 0 0 1 .74-.75h12.43a.74.74 0 0 1 .74.75v12.42a.74.74 0 0 1-.74.74"/><path fill="#14110f" d="M37.26 46.12H23.2a1.24 1.24 0 0 1-1.24-1.24V30.82a1.24 1.24 0 0 1 1.24-1.24h14.06a1.24 1.24 0 0 1 1.24 1.24v14.06a1.24 1.24 0 0 1-1.24 1.24"/><path fill="#6f6f6e" d="M36.44 44.8H24.02a.74.74 0 0 1-.74-.74V31.64a.74.74 0 0 1 .74-.75h12.42a.74.74 0 0 1 .74.75v12.42a.74.74 0 0 1-.74.74"/><path fill="#14110f" d="M53.8 46.12H39.73a1.24 1.24 0 0 1-1.24-1.24V30.82a1.23 1.23 0 0 1 1.24-1.24H53.8a1.24 1.24 0 0 1 1.23 1.24v14.06a1.24 1.24 0 0 1-1.23 1.24"/><path fill="#6f6f6e" d="M52.98 44.8H40.55a.74.74 0 0 1-.74-.74V31.64a.74.74 0 0 1 .74-.75h12.43a.74.74 0 0 1 .74.75v12.42a.74.74 0 0 1-.74.74"/><path fill="#14110f" d="M20.73 29.58H6.67a1.23 1.23 0 0 1-1.24-1.23V14.28a1.24 1.24 0 0 1 1.24-1.23h14.06a1.23 1.23 0 0 1 1.24 1.23v14.07a1.23 1.23 0 0 1-1.24 1.23"/><path fill="#6f6f6e" d="M19.9 28.27H7.49a.74.74 0 0 1-.74-.74V15.1a.74.74 0 0 1 .74-.74h12.43a.74.74 0 0 1 .74.74v12.43a.74.74 0 0 1-.74.74"/><path fill="#14110f" d="M37.26 29.58H23.2a1.24 1.24 0 0 1-1.24-1.23V14.28a1.24 1.24 0 0 1 1.24-1.23h14.06a1.24 1.24 0 0 1 1.24 1.23v14.07a1.24 1.24 0 0 1-1.24 1.23"/><path fill="#6f6f6e" d="M36.44 28.27H24.02a.74.74 0 0 1-.74-.74V15.1a.74.74 0 0 1 .74-.74h12.42a.74.74 0 0 1 .74.74v12.43a.74.74 0 0 1-.74.74"/><path fill="#14110f" d="M53.8 29.58H39.73a1.23 1.23 0 0 1-1.24-1.23V14.28a1.23 1.23 0 0 1 1.24-1.23H53.8a1.23 1.23 0 0 1 1.23 1.23v14.07a1.23 1.23 0 0 1-1.23 1.23"/><path fill="#6f6f6e" d="M52.98 28.27H40.55a.74.74 0 0 1-.74-.74V15.1a.74.74 0 0 1 .74-.74h12.43a.74.74 0 0 1 .74.74v12.43a.74.74 0 0 1-.74.74"/><path fill="#14110f" d="M49.51 62.65h-6.95a.9.9 0 0 1-.9-.9V47.01a.9.9 0 0 1 .9-.9h6.95a.9.9 0 0 1 .9.9v14.74a.9.9 0 0 1-.9.9"/><path fill="#fff" d="M49.18 61.33h-6.29a.54.54 0 0 1-.54-.54V47.97c0-.3.25-.54.54-.54h6.29c.3 0 .54.24.54.54v12.82c0 .3-.25.54-.54.54"/><path fill="#14110f" d="M58.49 62.65h-7.34a.92.92 0 0 1-.92-.93V46.9c0-.51.41-.93.92-.93h7.33a.92.92 0 0 1 .93.93v14.82a.92.92 0 0 1-.93.93"/><path fill="#fff" d="M57.93 61.33h-6.29a.54.54 0 0 1-.54-.54V47.97c0-.3.24-.54.54-.54h6.29c.3 0 .53.24.53.54v12.82c0 .3-.24.54-.53.54"/><path fill="#14110f" d="M11.4 62.65s.9 0 1.26-.28c.35-.27-.3-1.04-.3-1.04Zm10.16 0s1.1 0 1.26-.28c.16-.27-.29-1.19-.29-1.19Zm9.75 0h3.47l-2.08-3.42Zm11.25 0s-.89.02-1.18-.25c-.3-.26.28-1.46.28-1.46zm8.75 0s-.89 0-1.17-.26c-.28-.25 0-1.06 0-1.06z"/><path fill="#14110f" d="M31.73 62.65H23.5a.97.97 0 0 1-.97-.97v-14.6a.97.97 0 0 1 .97-.96h8.23a.97.97 0 0 1 .97.96v14.6a.97.97 0 0 1-.97.97"/><path fill="#cfcfcf" d="M31.31 61.33h-7.4a.58.58 0 0 1-.57-.58V48.01c0-.32.26-.58.58-.58h7.4c.31 0 .57.26.57.58v12.75a.58.58 0 0 1-.58.57"/><path fill="#14110f" d="M40.76 62.65h-6.95a.9.9 0 0 1-.9-.9V47.01a.9.9 0 0 1 .9-.9h6.95a.9.9 0 0 1 .9.9v14.74a.9.9 0 0 1-.9.9"/><path fill="#fff" d="M40.43 61.33h-6.28a.54.54 0 0 1-.54-.54V47.97c0-.3.24-.54.54-.54h6.28c.3 0 .54.24.54.54v12.82c0 .3-.24.54-.54.54"/><path fill="none" stroke="#fff" stroke-linecap="round" stroke-linejoin="round" stroke-miterlimit="10" stroke-width="4.32" d="m54.44 53.12-.66-1.67c-11.58 4.53-26.83 5.09-42.01 1.57l.7-2.6-6.94 1.87 5.08 5.06.7-2.6a88.56 88.56 0 0 0 19.94 2.35c8.46 0 16.43-1.33 23.19-3.98z"/><path fill="none" stroke="#1d1d1b" stroke-linecap="round" stroke-linejoin="round" stroke-miterlimit="10" stroke-width="2.88" d="m54.44 53.12-.66-1.67c-11.58 4.53-26.83 5.09-42.01 1.57l.7-2.6-6.94 1.87 5.08 5.06.7-2.6a88.56 88.56 0 0 0 19.94 2.35c8.46 0 16.43-1.33 23.19-3.98z"/><path fill="none" stroke="#e40428" stroke-miterlimit="10" stroke-width="2.16" d="M53.91 52.3c-11.68 4.57-27.23 5.3-43.34 1.42"/><path fill="#e40428" d="m12.61 50.33-7.27 1.96 5.34 5.32Z"/></svg>