<svg xmlns="http://www.w3.org/2000/svg" viewBox="0 0 68.4 99"><path fill="#00a23a" d="M64.45 91.8h-53.3a3.96 3.96 0 0 1-3.95-3.96V3.96A3.96 3.96 0 0 1 11.16 0h53.28a3.95 3.95 0 0 1 3.96 3.96v83.88a3.96 3.96 0 0 1-3.95 3.96"/><path fill="#33b561" d="M68.4 76.71v11.11c0 2.2-1.78 3.98-3.97 3.98H11.18a3.97 3.97 0 0 1-3.98-3.98V67.37"/><path fill="#fff" d="M58.69 97.56H5.4a3.96 3.96 0 0 1-3.96-3.96V9.7A3.96 3.96 0 0 1 5.4 5.76h53.29a3.96 3.96 0 0 1 3.95 3.95V93.6a3.96 3.96 0 0 1-3.95 3.96"/><path fill="#00a23a" d="M57.25 99H3.96A3.96 3.96 0 0 1 0 95.03V11.15A3.96 3.96 0 0 1 3.96 7.2h53.29a3.96 3.96 0 0 1 3.95 3.95v83.89A3.96 3.96 0 0 1 57.25 99"/><path fill="#33b561" d="M61.2 83.9v11.12c0 2.2-1.78 3.97-3.97 3.97H3.98A3.97 3.97 0 0 1 0 95.02V74.57"/><path fill="#fff" d="M21.79 94.83a.4.4 0 0 1-.29-.12.4.4 0 0 1-.12-.28V83.92c0-.12.04-.22.11-.3a.39.39 0 0 1 .3-.12h4.26c1.6 0 2.84.38 3.72 1.14a4.27 4.27 0 0 1 1.4 3.28 39.28 39.28 0 0 1 0 2.48c-.11 2.95-1.8 4.43-5.04 4.43Zm4.26-2.43c.67 0 1.18-.16 1.5-.48.33-.33.5-.85.52-1.56a18.74 18.74 0 0 0 0-2.41c-.02-.69-.2-1.2-.56-1.53-.35-.33-.86-.5-1.54-.5h-1.54v6.48Zm6.94 2.43a.38.38 0 0 1-.28-.12.4.4 0 0 1-.12-.28V93.2a1 1 0 0 1 .4-.8l1.51-1.48a82.47 82.47 0 0 0 2.32-1.81 8.13 8.13 0 0 0 1.2-1.18c.28-.35.41-.68.41-1 0-.8-.4-1.19-1.2-1.19-.42 0-.74.13-.96.38a1.98 1.98 0 0 0-.46.95c-.06.24-.25.37-.55.37h-2.14a.35.35 0 0 1-.35-.34 3.7 3.7 0 0 1 .59-1.93 3.9 3.9 0 0 1 1.56-1.38 5.03 5.03 0 0 1 2.32-.52c.9 0 1.68.15 2.35.44a3.32 3.32 0 0 1 1.49 1.24c.34.53.5 1.14.5 1.84 0 .78-.23 1.48-.71 2.1a10.9 10.9 0 0 1-2.2 2.04l-1.34 1.35h4.1c.12 0 .21.04.29.11.07.08.11.18.11.3v1.73c0 .1-.04.2-.11.28a.38.38 0 0 1-.3.12zm0 0" aria-label="D2"/><path fill="#14110f" d="M53.02 29.4H10.66v38.07h42.36z"/><path fill="#14110f" d="M11.49 69.98H3.04a.98.98 0 0 1-.98-.98V54.42a.98.98 0 0 1 .98-.98h8.45a.98.98 0 0 1 .98.98V69a.98.98 0 0 1-.98.98"/><path fill="#cfcfcf" d="M11.08 68.66h-7.4a.58.58 0 0 1-.58-.58V55.34c0-.32.26-.58.58-.58h7.4c.32 0 .58.26.58.58v12.74a.58.58 0 0 1-.58.59"/><path fill="#14110f" d="M21.67 69.98h-8.24a.97.97 0 0 1-.96-.97v-14.6a.97.97 0 0 1 .96-.97h8.24a.97.97 0 0 1 .97.97v14.6a.97.97 0 0 1-.97.97"/><path fill="#cfcfcf" d="M21.25 68.66h-7.4a.58.58 0 0 1-.58-.58V55.34c0-.32.26-.58.59-.58h7.39c.32 0 .58.26.58.58v12.74a.58.58 0 0 1-.58.59"/><path fill="#14110f" d="M20.83 53.44H6.77a1.24 1.24 0 0 1-1.24-1.23V38.14a1.24 1.24 0 0 1 1.24-1.23h14.06a1.24 1.24 0 0 1 1.24 1.23v14.07a1.24 1.24 0 0 1-1.24 1.23"/><path fill="#6f6f6e" d="M20.01 52.13H7.6a.74.74 0 0 1-.74-.74V38.96a.74.74 0 0 1 .74-.74H20a.74.74 0 0 1 .75.74V51.4a.74.74 0 0 1-.75.74"/><path fill="#14110f" d="M37.37 53.44H23.3a1.24 1.24 0 0 1-1.23-1.23V38.14a1.24 1.24 0 0 1 1.23-1.23h14.07a1.24 1.24 0 0 1 1.23 1.23v14.07a1.24 1.24 0 0 1-1.23 1.23"/><path fill="#6f6f6e" d="M36.55 52.13H24.12a.74.74 0 0 1-.74-.74V38.96a.74.74 0 0 1 .74-.74h12.43a.74.74 0 0 1 .74.74V51.4a.74.74 0 0 1-.74.74"/><path fill="#14110f" d="M53.9 53.44H39.83a1.24 1.24 0 0 1-1.23-1.23V38.14a1.23 1.23 0 0 1 1.23-1.23H53.9a1.24 1.24 0 0 1 1.23 1.23v14.07a1.24 1.24 0 0 1-1.23 1.23"/><path fill="#6f6f6e" d="M53.08 52.13H40.65a.74.74 0 0 1-.74-.74V38.96a.74.74 0 0 1 .74-.74h12.43a.74.74 0 0 1 .74.74V51.4a.74.74 0 0 1-.74.74"/><path fill="#14110f" d="M20.83 36.91H6.77a1.23 1.23 0 0 1-1.24-1.23V21.6a1.24 1.24 0 0 1 1.24-1.23h14.06a1.23 1.23 0 0 1 1.24 1.23v14.07a1.23 1.23 0 0 1-1.24 1.23"/><path fill="#6f6f6e" d="M20.01 35.6H7.6a.74.74 0 0 1-.74-.74V22.43a.74.74 0 0 1 .74-.74H20a.74.74 0 0 1 .75.74v12.43a.74.74 0 0 1-.75.74"/><path fill="#14110f" d="M37.37 36.91H23.3a1.24 1.24 0 0 1-1.23-1.23V21.6a1.24 1.24 0 0 1 1.23-1.23h14.07a1.24 1.24 0 0 1 1.23 1.23v14.07a1.24 1.24 0 0 1-1.23 1.23"/><path fill="#6f6f6e" d="M36.55 35.6H24.12a.74.74 0 0 1-.74-.74V22.43a.74.74 0 0 1 .74-.74h12.43a.74.74 0 0 1 .74.74v12.43a.74.74 0 0 1-.74.74"/><path fill="#14110f" d="M53.9 36.91H39.83a1.23 1.23 0 0 1-1.23-1.23V21.6a1.23 1.23 0 0 1 1.23-1.23H53.9a1.24 1.24 0 0 1 1.23 1.23v14.07a1.24 1.24 0 0 1-1.23 1.23"/><path fill="#6f6f6e" d="M53.08 35.6H40.65a.74.74 0 0 1-.74-.74V22.43a.74.74 0 0 1 .74-.74h12.43a.74.74 0 0 1 .74.74v12.43a.74.74 0 0 1-.74.74"/><path fill="#14110f" d="M49.62 69.98h-6.96a.9.9 0 0 1-.9-.9V54.34a.9.9 0 0 1 .9-.9h6.96a.9.9 0 0 1 .9.9v14.74a.9.9 0 0 1-.9.9"/><path fill="#fff" d="M49.28 68.66H43a.54.54 0 0 1-.54-.53V55.29c0-.3.24-.53.54-.53h6.28c.3 0 .54.24.54.54v12.83c0 .3-.24.53-.54.53"/><path fill="#14110f" d="M58.59 69.98h-7.33a.92.92 0 0 1-.93-.93V54.23c0-.51.42-.93.93-.93h7.33a.92.92 0 0 1 .93.93v14.82a.92.92 0 0 1-.93.93"/><path fill="#fff" d="M58.03 68.66h-6.28a.54.54 0 0 1-.54-.53V55.29c0-.3.24-.53.54-.53h6.28c.3 0 .54.24.54.54v12.83c0 .3-.24.53-.54.53"/><path fill="#14110f" d="M11.5 69.98s.91 0 1.26-.28c.35-.27-.3-1.04-.3-1.04Zm10.17 0s1.1 0 1.26-.28c.15-.27-.3-1.19-.3-1.19Zm9.74 0h3.48l-2.09-3.43Zm11.25 0s-.89.02-1.18-.25c-.3-.26.29-1.46.29-1.46zm8.75 0s-.88 0-1.16-.26c-.28-.25 0-1.06 0-1.06z"/><path fill="#14110f" d="M31.84 69.98H23.6a.97.97 0 0 1-.96-.97v-14.6a.97.97 0 0 1 .96-.97h8.24a.97.97 0 0 1 .96.97v14.6a.97.97 0 0 1-.96.97"/><path fill="#cfcfcf" d="M31.42 68.66h-7.4a.58.58 0 0 1-.58-.58V55.34c0-.32.26-.58.59-.58h7.39c.32 0 .58.26.58.58v12.74a.58.58 0 0 1-.58.59"/><path fill="#14110f" d="M40.87 69.98H33.9a.9.9 0 0 1-.9-.9V54.34a.9.9 0 0 1 .9-.9h6.96a.9.9 0 0 1 .9.9v14.74a.9.9 0 0 1-.9.9"/><path fill="#fff" d="M40.53 68.66h-6.28a.54.54 0 0 1-.54-.53V55.29c0-.3.24-.53.54-.53h6.28c.3 0 .54.24.54.54v12.83c0 .3-.24.53-.54.53"/><path fill="none" stroke="#fff" stroke-linecap="round" stroke-linejoin="round" stroke-miterlimit="10" stroke-width="4.32" d="m5.44 60.45.66-1.67c11.58 4.53 26.84 5.09 42.01 1.57l-.69-2.6 6.93 1.86-5.08 5.07-.7-2.6a88.54 88.54 0 0 1-19.94 2.35c-8.46 0-16.43-1.33-23.19-3.98Z"/><path fill="none" stroke="#1d1d1b" stroke-linecap="round" stroke-linejoin="round" stroke-miterlimit="10" stroke-width="2.88" d="m5.44 60.45.66-1.67c11.58 4.53 26.84 5.09 42.01 1.57l-.69-2.6 6.93 1.86-5.08 5.07-.7-2.6a88.54 88.54 0 0 1-19.94 2.35c-8.46 0-16.43-1.33-23.19-3.98Z"/><path fill="none" stroke="#e40428" stroke-miterlimit="10" stroke-width="2.16" d="M5.97 59.63c11.68 4.56 27.23 5.3 43.34 1.42"/><path fill="#e40428" d="m49.2 64.94 5.34-5.31-7.27-1.97z"/></svg>