<svg xmlns="http://www.w3.org/2000/svg" viewBox="0 0 61.2 91.8"><path fill="#ffe100" d="M57.23 91.8H3.95a3.96 3.96 0 0 1-3.96-3.96V3.95A3.96 3.96 0 0 1 3.95 0h53.28a3.96 3.96 0 0 1 3.96 3.95v83.89a3.96 3.96 0 0 1-3.96 3.96"/><path fill="#fff080" d="M61.19 76.71v11.1c0 2.2-1.78 3.99-3.98 3.99H3.97a3.97 3.97 0 0 1-3.98-3.98V67.37"/><path fill="#fff" d="M28 87.63a.4.4 0 0 1-.29-.12.4.4 0 0 1-.12-.28V76.72c0-.12.04-.22.11-.3a.38.38 0 0 1 .3-.12h7.53a.4.4 0 0 1 .3.12.4.4 0 0 1 .12.3v1.71a.4.4 0 0 1-.12.3.42.42 0 0 1-.3.1h-4.96v2.26h4.63a.4.4 0 0 1 .3.12.4.4 0 0 1 .12.3v1.72c0 .12-.04.21-.12.29a.42.42 0 0 1-.3.11h-4.63v3.6a.4.4 0 0 1-.4.4zm0 0" aria-label="F"/><path fill="none" stroke="#1d1d1b" stroke-miterlimit="10" stroke-width=".9" d="M28 87.63h2.17a.4.4 0 0 0 .4-.4v-3.6h4.63a.4.4 0 0 0 .3-.11.38.38 0 0 0 .12-.3v-1.7a.4.4 0 0 0-.12-.3.4.4 0 0 0-.3-.13h-4.63v-2.25h4.96c.12 0 .22-.04.3-.11a.38.38 0 0 0 .12-.3v-1.71a.4.4 0 0 0-.12-.3.4.4 0 0 0-.3-.12H28a.37.37 0 0 0-.3.12.4.4 0 0 0-.1.3v10.5c0 .11.03.21.11.3a.4.4 0 0 0 .29.11Z"/><path fill="#14110f" d="m40.65 27.63.92 26.45-23.03.8-.93-26.45z"/><path fill="#14110f" d="m7.97 49.64.42 11.96a1.05 1.05 0 0 0 1.08 1.01l11.95-.42a1.05 1.05 0 0 0 1.02-1.08l-.42-11.96a1.05 1.05 0 0 0-1.08-1.01l-11.96.42a1.05 1.05 0 0 0-1.01 1.08"/><path fill="#6f6f6e" d="m9.1 50.3.38 10.56a.63.63 0 0 0 .65.6l10.56-.36a.63.63 0 0 0 .6-.65l-.36-10.56a.63.63 0 0 0-.65-.61l-10.57.37a.63.63 0 0 0-.6.65"/><path fill="#14110f" d="m7.48 35.6.41 11.94a1.05 1.05 0 0 0 1.09 1.02l11.96-.42a1.05 1.05 0 0 0 1-1.08l-.4-11.96a1.05 1.05 0 0 0-1.1-1.01L8.5 34.5a1.05 1.05 0 0 0-1.01 1.09"/><path fill="#14110f" d="m8.62 36.25.37 10.56a.63.63 0 0 0 .65.6l10.56-.36a.63.63 0 0 0 .6-.65l-.36-10.57a.63.63 0 0 0-.65-.6l-10.56.37a.63.63 0 0 0-.61.65M6.99 21.54l.41 11.95a1.05 1.05 0 0 0 1.1 1.01l11.95-.41A1.05 1.05 0 0 0 21.46 33l-.42-11.95a1.05 1.05 0 0 0-1.09-1.02L8 20.45a1.05 1.05 0 0 0-1.01 1.09"/><path fill="#6f6f6e" d="m8.13 22.2.37 10.55a.63.63 0 0 0 .65.61L19.7 33a.63.63 0 0 0 .6-.65l-.36-10.56a.63.63 0 0 0-.65-.6l-10.56.36a.63.63 0 0 0-.61.66"/><path fill="#14110f" d="m22.02 49.15.42 11.96a1.05 1.05 0 0 0 1.08 1l11.96-.4a1.05 1.05 0 0 0 1.01-1.1l-.42-11.95A1.05 1.05 0 0 0 35 47.65l-11.96.42a1.05 1.05 0 0 0-1.01 1.08"/><path fill="#14110f" d="m23.16 49.8.37 10.57a.63.63 0 0 0 .65.61l10.56-.37a.63.63 0 0 0 .61-.65l-.37-10.56a.63.63 0 0 0-.65-.61l-10.56.37a.63.63 0 0 0-.6.65M21.52 35.1l.42 11.95a1.05 1.05 0 0 0 1.08 1.02L35 47.65a1.05 1.05 0 0 0 1-1.09l-.42-11.95a1.05 1.05 0 0 0-1.08-1.01l-11.96.4a1.05 1.05 0 0 0-1 1.09"/><path fill="#14110f" d="m22.67 35.75.37 10.57a.63.63 0 0 0 .65.6l10.56-.37a.63.63 0 0 0 .61-.65l-.37-10.56a.63.63 0 0 0-.65-.6l-10.56.36a.63.63 0 0 0-.61.65m-1.63-14.7L21.46 33a1.05 1.05 0 0 0 1.08 1.01l11.96-.41a1.05 1.05 0 0 0 1-1.09l-.4-11.96a1.05 1.05 0 0 0-1.1-1l-11.95.4a1.05 1.05 0 0 0-1.01 1.1"/><path fill="#6f6f6e" d="m22.18 21.7.37 10.56a.63.63 0 0 0 .65.61l10.56-.37a.63.63 0 0 0 .61-.65L34 21.3a.63.63 0 0 0-.65-.6l-10.56.36a.63.63 0 0 0-.61.65"/><path fill="#14110f" d="m36.07 48.66.42 11.95a1.05 1.05 0 0 0 1.08 1.02l11.96-.42a1.05 1.05 0 0 0 1.01-1.08l-.41-11.96a1.05 1.05 0 0 0-1.09-1.01l-11.95.41a1.05 1.05 0 0 0-1.02 1.09"/><path fill="#6f6f6e" d="m37.22 49.32.37 10.56a.63.63 0 0 0 .64.6l10.57-.36a.63.63 0 0 0 .6-.65l-.37-10.57a.63.63 0 0 0-.65-.6l-10.56.37a.63.63 0 0 0-.6.65"/><path fill="#14110f" d="M35.58 34.6 36 46.57a1.05 1.05 0 0 0 1.09 1.01l11.95-.41a1.05 1.05 0 0 0 1.01-1.09l-.41-11.96a1.05 1.05 0 0 0-1.09-1l-11.96.41a1.05 1.05 0 0 0-1 1.09"/><path fill="#14110f" d="m36.72 35.27.37 10.56a.63.63 0 0 0 .65.6l10.57-.36a.63.63 0 0 0 .6-.66l-.37-10.56a.63.63 0 0 0-.65-.6l-10.56.36a.63.63 0 0 0-.6.66m-1.64-14.72.42 11.96a1.05 1.05 0 0 0 1.08 1.01l11.96-.42a1.05 1.05 0 0 0 1.01-1.08l-.41-11.96a1.05 1.05 0 0 0-1.09-1l-11.96.41a1.05 1.05 0 0 0-1 1.08"/><path fill="#6f6f6e" d="m36.23 21.21.37 10.56a.63.63 0 0 0 .65.61l10.56-.37a.63.63 0 0 0 .61-.65l-.37-10.56a.63.63 0 0 0-.65-.61l-10.56.37a.63.63 0 0 0-.6.65"/><path fill="#14110f" d="m46.02 49.12-24.88 9.06-7.89-21.67 24.88-9.05Z"/><path fill="#14110f" d="m14.98 24.84-11.24 4.1a1.05 1.05 0 0 0-.63 1.34l4.1 11.24a1.05 1.05 0 0 0 1.34.63l11.24-4.1a1.05 1.05 0 0 0 .62-1.34l-4.09-11.24a1.05 1.05 0 0 0-1.34-.63"/><path fill="#fff" d="m14.7 26.13-9.93 3.62a.63.63 0 0 0-.37.8L8 40.5a.63.63 0 0 0 .8.37l9.94-3.61a.63.63 0 0 0 .38-.81l-3.62-9.93a.63.63 0 0 0-.8-.38"/><path fill="#14110f" d="m28.19 20.03-11.24 4.1a1.05 1.05 0 0 0-.63 1.34l4.1 11.24a1.05 1.05 0 0 0 1.34.63L33 33.24a1.05 1.05 0 0 0 .63-1.34l-4.1-11.24a1.05 1.05 0 0 0-1.34-.62"/><path fill="#fff" d="m27.92 21.32-9.93 3.62a.63.63 0 0 0-.38.8l3.61 9.94a.63.63 0 0 0 .81.37l9.93-3.61a.63.63 0 0 0 .38-.81l-3.62-9.93a.63.63 0 0 0-.8-.38"/><path fill="#14110f" d="m41.4 15.23-11.24 4.09a1.05 1.05 0 0 0-.62 1.34l4.09 11.24a1.05 1.05 0 0 0 1.34.63l11.24-4.1a1.05 1.05 0 0 0 .63-1.34l-4.09-11.24a1.05 1.05 0 0 0-1.35-.62"/><path fill="#fff" d="m41.13 16.51-9.93 3.62a.63.63 0 0 0-.38.8l3.62 9.94a.63.63 0 0 0 .8.37l9.94-3.61a.63.63 0 0 0 .37-.81l-3.61-9.93a.63.63 0 0 0-.8-.38"/><path fill="#14110f" d="M19.79 38.06 8.55 42.15a1.05 1.05 0 0 0-.63 1.34L12 54.74a1.05 1.05 0 0 0 1.35.62l11.23-4.09a1.05 1.05 0 0 0 .63-1.34l-4.09-11.25a1.05 1.05 0 0 0-1.34-.62"/><path fill="#fff" d="m19.51 39.35-9.93 3.6a.63.63 0 0 0-.37.82l3.61 9.93a.63.63 0 0 0 .8.37l9.94-3.61a.63.63 0 0 0 .38-.8l-3.62-9.94a.63.63 0 0 0-.8-.37"/><path fill="#14110f" d="m33 33.25-11.24 4.09a1.05 1.05 0 0 0-.63 1.34l4.1 11.25a1.05 1.05 0 0 0 1.34.62l11.24-4.09a1.05 1.05 0 0 0 .63-1.34l-4.1-11.24a1.05 1.05 0 0 0-1.34-.63"/><path fill="#fff" d="m32.73 34.54-9.93 3.61a.63.63 0 0 0-.38.8l3.61 9.94a.63.63 0 0 0 .81.37l9.93-3.61a.63.63 0 0 0 .38-.8l-3.62-9.94a.63.63 0 0 0-.8-.37"/><path fill="#14110f" d="m46.21 28.44-11.24 4.09a1.05 1.05 0 0 0-.63 1.35l4.1 11.24a1.05 1.05 0 0 0 1.34.62l11.24-4.09a1.05 1.05 0 0 0 .63-1.34l-4.1-11.24a1.05 1.05 0 0 0-1.34-.63"/><path fill="#fff" d="m45.94 29.73-9.93 3.61a.63.63 0 0 0-.38.8l3.62 9.94a.63.63 0 0 0 .8.38L50 40.84a.63.63 0 0 0 .37-.8l-3.61-9.94a.63.63 0 0 0-.8-.37"/><path fill="#14110f" d="m24.6 51.27-11.24 4.1a1.05 1.05 0 0 0-.63 1.34l4.09 11.24a1.05 1.05 0 0 0 1.35.63l11.23-4.1a1.05 1.05 0 0 0 .63-1.34L25.94 51.9a1.05 1.05 0 0 0-1.35-.63"/><path fill="#fff" d="m24.32 52.56-9.93 3.61a.63.63 0 0 0-.38.81l3.62 9.93a.63.63 0 0 0 .8.38l9.94-3.62a.63.63 0 0 0 .37-.8l-3.61-9.93a.63.63 0 0 0-.8-.38"/><path fill="#14110f" d="m37.8 46.46-11.23 4.1a1.05 1.05 0 0 0-.63 1.34l4.1 11.24a1.05 1.05 0 0 0 1.34.63l11.24-4.1a1.05 1.05 0 0 0 .62-1.34l-4.09-11.24a1.05 1.05 0 0 0-1.34-.63"/><path fill="#fff" d="m37.54 47.75-9.93 3.62a.63.63 0 0 0-.38.8l3.61 9.93a.63.63 0 0 0 .81.38l9.93-3.62a.63.63 0 0 0 .38-.8l-3.62-9.93a.63.63 0 0 0-.8-.38"/><path fill="#14110f" d="m51.02 41.65-11.24 4.1a1.05 1.05 0 0 0-.63 1.34l4.1 11.24a1.05 1.05 0 0 0 1.34.63l11.24-4.1a1.05 1.05 0 0 0 .63-1.34l-4.1-11.24a1.05 1.05 0 0 0-1.34-.63"/><path fill="#fff" d="m50.75 42.94-9.93 3.61a.63.63 0 0 0-.38.81l3.62 9.93a.63.63 0 0 0 .8.38l9.93-3.61a.63.63 0 0 0 .38-.81l-3.61-9.93a.63.63 0 0 0-.81-.38"/><path fill="#fff" d="M28 87.63a.4.4 0 0 1-.29-.12.4.4 0 0 1-.12-.28V76.72c0-.12.04-.22.11-.3a.38.38 0 0 1 .3-.12h7.53a.4.4 0 0 1 .3.12.4.4 0 0 1 .12.3v1.71a.4.4 0 0 1-.12.3.42.42 0 0 1-.3.1h-4.96v2.26h4.63a.4.4 0 0 1 .3.12.4.4 0 0 1 .12.3v1.72c0 .12-.04.21-.12.29a.42.42 0 0 1-.3.11h-4.63v3.6a.4.4 0 0 1-.4.4zm0 0" aria-label="F"/><path fill="none" stroke="#fff" stroke-linecap="round" stroke-linejoin="round" stroke-miterlimit="10" stroke-width="4.32" d="M27.93 6.16c6.1-.44 12.37.84 18.2 3.68l1.38-2.32 3.5 6.26-7.18-.1 1.37-2.29c-11.4-5.5-24.57-4.42-32.34 2.78l-1.22-1.32c4.23-3.92 9.86-6.23 16.3-6.7Z"/><path fill="none" stroke="#1d1d1b" stroke-linecap="round" stroke-linejoin="round" stroke-miterlimit="10" stroke-width="2.88" d="M27.93 6.16c6.1-.44 12.37.84 18.2 3.68l1.38-2.32 3.5 6.26-7.18-.1 1.37-2.29c-11.4-5.5-24.57-4.42-32.34 2.78l-1.22-1.32c4.23-3.92 9.86-6.23 16.3-6.7Z"/><path fill="none" stroke="#e40428" stroke-miterlimit="10" stroke-width="2.16" d="M12.21 13.63C20.45 6 34.29 4.92 46.33 11.1"/><path fill="#e40428" d="m43.44 13.84 7.53.07-3.7-6.57Z"/></svg>