<svg xmlns="http://www.w3.org/2000/svg" viewBox="0 0 68.4 99"><path fill="#ffe100" d="M64.43 91.79H11.15a3.96 3.96 0 0 1-3.96-3.96V3.95a3.96 3.96 0 0 1 3.95-3.96h53.29a3.96 3.96 0 0 1 3.96 3.96v83.89a3.96 3.96 0 0 1-3.96 3.95"/><path fill="#fff080" d="M68.39 76.7v11.12c0 2.2-1.78 3.97-3.98 3.97H11.16a3.97 3.97 0 0 1-3.97-3.97V67.36"/><path fill="#fff" d="M58.68 97.55H5.38a3.96 3.96 0 0 1-3.95-3.96V9.7A3.96 3.96 0 0 1 5.4 5.75h53.28a3.96 3.96 0 0 1 3.96 3.95v83.9a3.96 3.96 0 0 1-3.95 3.95"/><path fill="#ffe100" d="M57.24 98.99H3.95a3.96 3.96 0 0 1-3.96-3.96V11.15a3.96 3.96 0 0 1 3.96-3.96h53.28a3.96 3.96 0 0 1 3.96 3.96v83.88A3.96 3.96 0 0 1 57.24 99"/><path fill="#fff080" d="M61.2 83.9v11.11c0 2.2-1.79 3.98-3.98 3.98H3.97A3.97 3.97 0 0 1-.01 95V74.56"/><path fill="#fff" d="M22.6 94.82a.4.4 0 0 1-.29-.12.4.4 0 0 1-.11-.28V83.9c0-.12.03-.22.1-.3a.37.37 0 0 1 .3-.12h7.53a.4.4 0 0 1 .42.42v1.71a.4.4 0 0 1-.12.3.41.41 0 0 1-.3.11h-4.96v2.25h4.63a.4.4 0 0 1 .3.12.4.4 0 0 1 .13.3v1.72c0 .12-.04.22-.13.3a.43.43 0 0 1-.3.1h-4.63v3.6c0 .1-.04.2-.11.28a.38.38 0 0 1-.3.12zm9.56 0a.39.39 0 0 1-.29-.12.4.4 0 0 1-.12-.28V93.2a1 1 0 0 1 .4-.8l1.5-1.48c1.04-.78 1.8-1.38 2.33-1.8a8.13 8.13 0 0 0 1.2-1.18c.28-.35.42-.7.42-1 0-.8-.4-1.2-1.2-1.2-.43 0-.75.13-.97.38a1.98 1.98 0 0 0-.46.95c-.06.25-.25.37-.55.37h-2.14a.34.34 0 0 1-.25-.1.33.33 0 0 1-.1-.24c.02-.71.22-1.36.59-1.93a3.9 3.9 0 0 1 1.56-1.38 5.03 5.03 0 0 1 2.32-.51c.9 0 1.69.14 2.34.44a3.32 3.32 0 0 1 1.5 1.23c.34.53.51 1.14.51 1.84 0 .78-.24 1.48-.72 2.11-.48.63-1.21 1.3-2.2 2.04l-1.34 1.34h4.1a.4.4 0 0 1 .4.4v1.74c0 .1-.04.2-.11.28a.38.38 0 0 1-.3.12zm0 0" aria-label="F2"/><path fill="none" stroke="#1d1d1b" stroke-miterlimit="10" stroke-width=".9" d="M22.6 94.82h2.17c.12 0 .22-.04.29-.12a.4.4 0 0 0 .11-.28v-3.6h4.63c.12 0 .22-.03.3-.1a.4.4 0 0 0 .13-.3V88.7a.41.41 0 0 0-.42-.42h-4.63v-2.25h4.95c.12 0 .22-.04.3-.11a.38.38 0 0 0 .12-.3v-1.71a.4.4 0 0 0-.12-.3.4.4 0 0 0-.3-.12H22.6a.37.37 0 0 0-.3.12.41.41 0 0 0-.1.3v10.5c0 .12.03.21.12.3a.4.4 0 0 0 .28.11Zm9.55 0h8.44c.12 0 .22-.04.29-.12a.4.4 0 0 0 .11-.28v-1.73a.4.4 0 0 0-.1-.3.4.4 0 0 0-.3-.1h-4.1l1.35-1.35c.98-.74 1.71-1.42 2.2-2.04a3.37 3.37 0 0 0 .71-2.1c0-.71-.17-1.32-.5-1.85a3.32 3.32 0 0 0-1.5-1.23 5.77 5.77 0 0 0-2.35-.44c-.88 0-1.65.17-2.32.5a3.93 3.93 0 0 0-1.56 1.38 3.71 3.71 0 0 0-.6 1.94c0 .09.04.16.11.24.07.07.16.1.25.1h2.14c.3 0 .49-.12.55-.37a1.97 1.97 0 0 1 .45-.95c.23-.25.55-.38.98-.38.8 0 1.2.4 1.2 1.2 0 .31-.14.65-.42 1a8 8 0 0 1-1.2 1.17c-.52.43-1.3 1.03-2.32 1.81l-1.5 1.48a1 1 0 0 0-.41.8v1.22c0 .1.04.2.12.28a.4.4 0 0 0 .28.12Z"/><path fill="none" stroke="#fff" stroke-linecap="round" stroke-linejoin="round" stroke-miterlimit="10" stroke-width="4.32" d="M27.94 13.81c6.1-.44 12.37.84 18.18 3.69l1.39-2.33 3.5 6.26-7.18-.1 1.37-2.28c-11.4-5.51-24.56-4.42-32.34 2.77l-1.22-1.32c4.23-3.91 9.86-6.23 16.3-6.69Z"/><path fill="none" stroke="#1d1d1b" stroke-linecap="round" stroke-linejoin="round" stroke-miterlimit="10" stroke-width="2.88" d="M27.94 13.81c6.1-.44 12.37.84 18.18 3.69l1.39-2.33 3.5 6.26-7.18-.1 1.37-2.28c-11.4-5.51-24.56-4.42-32.34 2.77l-1.22-1.32c4.23-3.91 9.86-6.23 16.3-6.69Z"/><path fill="#14110f" d="m41 35.18.94 26.45-23.04.8-.93-26.45z"/><path fill="#14110f" d="m8.33 57.2.42 11.95a1.05 1.05 0 0 0 1.08 1.01l11.96-.42a1.05 1.05 0 0 0 1.01-1.08l-.42-11.96a1.05 1.05 0 0 0-1.08-1.01l-11.96.42a1.05 1.05 0 0 0-1 1.08"/><path fill="#6f6f6e" d="m9.47 57.85.37 10.56a.63.63 0 0 0 .65.61l10.56-.37a.63.63 0 0 0 .61-.65l-.37-10.56a.63.63 0 0 0-.65-.61l-10.56.37a.63.63 0 0 0-.61.65"/><path fill="#14110f" d="m7.84 43.14.42 11.95a1.05 1.05 0 0 0 1.08 1.02l11.96-.42a1.05 1.05 0 0 0 1-1.08l-.4-11.96a1.05 1.05 0 0 0-1.1-1.01l-11.95.41a1.05 1.05 0 0 0-1.01 1.09"/><path fill="#6f6f6e" d="m8.98 43.8.37 10.56a.63.63 0 0 0 .65.6l10.56-.36a.63.63 0 0 0 .61-.65l-.37-10.57a.63.63 0 0 0-.65-.6l-10.56.37a.63.63 0 0 0-.61.65"/><path fill="#14110f" d="m7.35 29.09.41 11.95a1.05 1.05 0 0 0 1.09 1.01l11.96-.41a1.05 1.05 0 0 0 1-1.09l-.4-11.96a1.05 1.05 0 0 0-1.1-1L8.37 28a1.05 1.05 0 0 0-1.01 1.09"/><path fill="#6f6f6e" d="m8.49 29.75.37 10.56a.63.63 0 0 0 .65.6l10.56-.36a.63.63 0 0 0 .6-.66l-.36-10.56a.63.63 0 0 0-.65-.6l-10.56.36a.63.63 0 0 0-.61.66"/><path fill="#14110f" d="m22.38 56.7.42 11.96a1.05 1.05 0 0 0 1.09 1.01l11.95-.42a1.05 1.05 0 0 0 1.01-1.08l-.42-11.96a1.05 1.05 0 0 0-1.08-1.01l-11.96.42a1.05 1.05 0 0 0-1 1.08"/><path fill="#14110f" d="m23.52 57.36.37 10.56a.63.63 0 0 0 .65.61l10.57-.37a.63.63 0 0 0 .6-.65l-.37-10.56a.63.63 0 0 0-.65-.61l-10.56.37a.63.63 0 0 0-.6.65m-1.64-14.71.42 11.96a1.05 1.05 0 0 0 1.08 1l11.96-.41a1.05 1.05 0 0 0 1.01-1.08l-.41-11.96a1.05 1.05 0 0 0-1.09-1.01l-11.96.41a1.05 1.05 0 0 0-1 1.09"/><path fill="#14110f" d="m23.03 43.3.37 10.57a.63.63 0 0 0 .65.6l10.56-.36a.63.63 0 0 0 .61-.65l-.37-10.57a.63.63 0 0 0-.65-.6l-10.56.37a.63.63 0 0 0-.6.65M21.4 28.6l.42 11.95a1.05 1.05 0 0 0 1.08 1.01l11.96-.41a1.05 1.05 0 0 0 1.01-1.09l-.42-11.96a1.05 1.05 0 0 0-1.08-1l-11.96.41a1.05 1.05 0 0 0-1 1.09"/><path fill="#6f6f6e" d="m22.54 29.25.37 10.57a.63.63 0 0 0 .65.6l10.56-.37a.63.63 0 0 0 .61-.65l-.37-10.56a.63.63 0 0 0-.65-.6l-10.56.36a.63.63 0 0 0-.6.65"/><path fill="#14110f" d="m36.43 56.21.42 11.96a1.05 1.05 0 0 0 1.09 1l11.95-.41a1.05 1.05 0 0 0 1.02-1.08l-.42-11.96a1.05 1.05 0 0 0-1.09-1.01l-11.95.42a1.05 1.05 0 0 0-1.02 1.08"/><path fill="#6f6f6e" d="m37.58 56.87.37 10.56a.63.63 0 0 0 .65.61l10.56-.37a.63.63 0 0 0 .6-.65l-.36-10.56a.63.63 0 0 0-.65-.61l-10.57.37a.63.63 0 0 0-.6.65"/><path fill="#14110f" d="m35.95 42.16.41 11.95a1.05 1.05 0 0 0 1.09 1.02l11.95-.42a1.05 1.05 0 0 0 1.02-1.09L50 41.67a1.05 1.05 0 0 0-1.09-1.01l-11.95.41a1.05 1.05 0 0 0-1.01 1.09"/><path fill="#14110f" d="m37.09 42.82.37 10.56a.63.63 0 0 0 .65.6l10.56-.36a.63.63 0 0 0 .6-.66L48.9 42.4a.63.63 0 0 0-.65-.6l-10.56.36a.63.63 0 0 0-.6.66M35.45 28.1l.42 11.96a1.05 1.05 0 0 0 1.09 1.01l11.95-.41a1.05 1.05 0 0 0 1.01-1.09l-.41-11.96a1.05 1.05 0 0 0-1.09-1l-11.96.41a1.05 1.05 0 0 0-1 1.08"/><path fill="#6f6f6e" d="m36.6 28.76.36 10.57a.63.63 0 0 0 .65.6l10.57-.37a.63.63 0 0 0 .6-.65l-.37-10.56a.63.63 0 0 0-.65-.6l-10.56.36a.63.63 0 0 0-.6.65"/><path fill="#14110f" d="M46.38 56.67 21.5 65.73l-7.88-21.66L38.49 35Z"/><path fill="#14110f" d="M15.34 32.4 4.1 36.49a1.05 1.05 0 0 0-.63 1.34l4.1 11.25a1.05 1.05 0 0 0 1.34.62l11.24-4.1a1.05 1.05 0 0 0 .62-1.34l-4.09-11.24a1.05 1.05 0 0 0-1.34-.62"/><path fill="#fff" d="M15.06 33.68 5.13 37.3a.63.63 0 0 0-.37.8l3.61 9.94a.63.63 0 0 0 .81.37l9.93-3.61a.63.63 0 0 0 .38-.81l-3.62-9.93a.63.63 0 0 0-.8-.38"/><path fill="#14110f" d="m28.55 27.59-11.24 4.09a1.05 1.05 0 0 0-.63 1.34l4.1 11.24a1.05 1.05 0 0 0 1.34.63l11.24-4.1a1.05 1.05 0 0 0 .63-1.33l-4.1-11.25a1.05 1.05 0 0 0-1.34-.62"/><path fill="#fff" d="m28.28 28.87-9.93 3.62a.63.63 0 0 0-.38.8l3.62 9.94a.63.63 0 0 0 .8.37l9.93-3.6a.63.63 0 0 0 .38-.81l-3.61-9.93a.63.63 0 0 0-.81-.38"/><path fill="#14110f" d="m41.77 22.78-11.25 4.09a1.05 1.05 0 0 0-.62 1.34l4.09 11.25a1.05 1.05 0 0 0 1.34.62l11.24-4.1a1.05 1.05 0 0 0 .63-1.33L43.11 23.4a1.05 1.05 0 0 0-1.34-.62"/><path fill="#fff" d="m41.5 24.06-9.94 3.62a.63.63 0 0 0-.37.8l3.61 9.94a.63.63 0 0 0 .8.37l9.94-3.61a.63.63 0 0 0 .37-.8l-3.61-9.94a.63.63 0 0 0-.8-.38"/><path fill="#14110f" d="M20.15 45.6 8.9 49.7a1.05 1.05 0 0 0-.63 1.35l4.1 11.24a1.05 1.05 0 0 0 1.34.62l11.24-4.09a1.05 1.05 0 0 0 .62-1.34L21.5 46.24a1.05 1.05 0 0 0-1.34-.63"/><path fill="#fff" d="m19.87 46.9-9.92 3.6a.63.63 0 0 0-.38.8l3.61 9.94a.63.63 0 0 0 .81.38L23.92 58a.63.63 0 0 0 .38-.8l-3.62-9.94a.63.63 0 0 0-.8-.37"/><path fill="#14110f" d="m33.36 40.8-11.24 4.09a1.05 1.05 0 0 0-.63 1.35l4.1 11.24a1.05 1.05 0 0 0 1.34.63L38.17 54a1.05 1.05 0 0 0 .63-1.34l-4.1-11.24a1.05 1.05 0 0 0-1.34-.63"/><path fill="#fff" d="m33.09 42.09-9.93 3.61a.63.63 0 0 0-.38.8l3.62 9.94a.63.63 0 0 0 .8.38l9.93-3.62a.63.63 0 0 0 .38-.8l-3.62-9.94a.63.63 0 0 0-.8-.37"/><path fill="#14110f" d="m46.58 35.99-11.25 4.1a1.05 1.05 0 0 0-.62 1.34l4.09 11.24a1.05 1.05 0 0 0 1.34.63l11.24-4.1a1.05 1.05 0 0 0 .63-1.34l-4.09-11.24a1.05 1.05 0 0 0-1.34-.63"/><path fill="#fff" d="m46.3 37.28-9.93 3.61a.63.63 0 0 0-.37.8l3.61 9.94a.63.63 0 0 0 .8.38l9.94-3.62a.63.63 0 0 0 .37-.8l-3.61-9.94a.63.63 0 0 0-.8-.37"/><path fill="#14110f" d="m24.96 58.82-11.24 4.1a1.05 1.05 0 0 0-.63 1.34l4.1 11.24a1.05 1.05 0 0 0 1.34.63l11.24-4.1a1.05 1.05 0 0 0 .62-1.34L26.3 59.45a1.05 1.05 0 0 0-1.34-.63"/><path fill="#fff" d="m24.68 60.11-9.93 3.62a.63.63 0 0 0-.37.8l3.61 9.93a.63.63 0 0 0 .8.38l9.94-3.61a.63.63 0 0 0 .38-.81l-3.62-9.93a.63.63 0 0 0-.8-.38"/><path fill="#14110f" d="m38.17 54.01-11.24 4.1a1.05 1.05 0 0 0-.63 1.34l4.1 11.24a1.05 1.05 0 0 0 1.34.63l11.24-4.1a1.05 1.05 0 0 0 .63-1.34l-4.1-11.24a1.05 1.05 0 0 0-1.34-.63"/><path fill="#fff" d="m37.9 55.3-9.93 3.62a.63.63 0 0 0-.38.8l3.61 9.93a.63.63 0 0 0 .81.38l9.93-3.61a.63.63 0 0 0 .38-.81l-3.62-9.93a.63.63 0 0 0-.8-.38"/><path fill="#14110f" d="m51.38 49.2-11.24 4.1a1.05 1.05 0 0 0-.62 1.34l4.09 11.24a1.05 1.05 0 0 0 1.34.63l11.24-4.1a1.05 1.05 0 0 0 .63-1.34l-4.09-11.24a1.05 1.05 0 0 0-1.35-.63"/><path fill="#fff" d="m51.11 50.5-9.93 3.6a.63.63 0 0 0-.38.81l3.62 9.93a.63.63 0 0 0 .8.38l9.94-3.61a.63.63 0 0 0 .37-.81l-3.61-9.93a.63.63 0 0 0-.8-.38"/><path fill="none" stroke="#e40428" stroke-miterlimit="10" stroke-width="2.16" d="M12.21 21.28c8.24-7.63 22.09-8.71 34.13-2.54"/><path fill="#e40428" d="m43.44 21.49 7.53.07-3.7-6.57Z"/><path fill="#fff" d="M22.6 94.82a.4.4 0 0 1-.29-.12.4.4 0 0 1-.11-.28V83.9c0-.12.03-.22.1-.3a.37.37 0 0 1 .3-.12h7.53a.4.4 0 0 1 .3.12.4.4 0 0 1 .12.3v1.71a.4.4 0 0 1-.12.3.41.41 0 0 1-.3.11h-4.96v2.25h4.63a.4.4 0 0 1 .3.12.4.4 0 0 1 .13.3v1.72c0 .12-.04.22-.13.3a.43.43 0 0 1-.3.1h-4.63v3.6c0 .1-.04.2-.11.28a.38.38 0 0 1-.3.12zm9.56 0a.39.39 0 0 1-.29-.12.4.4 0 0 1-.12-.28V93.2a1 1 0 0 1 .4-.8l1.51-1.48a82.47 82.47 0 0 0 2.32-1.8 8.13 8.13 0 0 0 1.2-1.18c.28-.35.42-.7.42-1 0-.8-.4-1.2-1.2-1.2-.43 0-.75.13-.97.38a1.98 1.98 0 0 0-.46.95c-.06.25-.24.37-.55.37h-2.14a.34.34 0 0 1-.25-.1.33.33 0 0 1-.1-.24c.02-.71.22-1.36.59-1.93a3.9 3.9 0 0 1 1.56-1.38 5.03 5.03 0 0 1 2.32-.51c.9 0 1.69.14 2.35.44a3.32 3.32 0 0 1 1.5 1.23c.33.53.5 1.14.5 1.84 0 .78-.24 1.48-.72 2.11-.48.63-1.2 1.3-2.2 2.04l-1.34 1.34h4.1c.12 0 .22.04.29.12.08.07.12.17.12.29v1.73c0 .1-.04.2-.12.28a.38.38 0 0 1-.3.12zm0 0" aria-label="F2"/></svg>