<svg xmlns="http://www.w3.org/2000/svg" viewBox="0 0 61.02 91.46"><path fill="#fff080" d="M57.13 91.66H3.84A3.96 3.96 0 0 1-.1 87.7V3.81A3.96 3.96 0 0 1 3.84-.14h53.29a3.96 3.96 0 0 1 3.95 3.95v83.9a3.96 3.96 0 0 1-3.95 3.95"/><path fill="#ffe100" d="M61.08 76.57v11.11c0 2.2-1.77 3.98-3.97 3.98H3.86A3.97 3.97 0 0 1-.1 87.68V67.23"/><path fill="#fff" d="M25.6 87.5a.4.4 0 0 1-.28-.12.4.4 0 0 1-.12-.29V76.6c0-.12.03-.22.1-.3a.38.38 0 0 1 .3-.13h7.53a.4.4 0 0 1 .3.13c.08.08.13.18.13.3v1.7c0 .13-.05.23-.13.3a.41.41 0 0 1-.3.11h-4.95v2.26h4.63a.4.4 0 0 1 .3.12.4.4 0 0 1 .12.3v1.71c0 .12-.04.22-.13.3a.42.42 0 0 1-.3.1h-4.62v3.6c0 .1-.04.2-.12.29a.38.38 0 0 1-.29.12zm9.5-7.32a.31.31 0 0 1-.23-.1c-.06-.06-.08-.15-.07-.28l.5-3.23a.8.8 0 0 1 .2-.4c.1-.11.23-.17.4-.17h1.98c.08 0 .16.03.21.1.06.06.1.14.1.22a.6.6 0 0 1-.03.18l-1.25 3.23c-.07.14-.15.25-.24.33a.55.55 0 0 1-.38.12zm0 0" aria-label="F’"/><path fill="none" stroke="#1d1d1b" stroke-miterlimit="10" stroke-width=".9" d="M25.6 87.5h2.17a.4.4 0 0 0 .4-.4v-3.6h4.64c.12 0 .22-.04.3-.11a.38.38 0 0 0 .12-.3v-1.71a.4.4 0 0 0-.12-.3.4.4 0 0 0-.3-.12h-4.63V78.7h4.95a.4.4 0 0 0 .3-.12.38.38 0 0 0 .12-.29v-1.72a.41.41 0 0 0-.42-.42H25.6a.37.37 0 0 0-.29.13.4.4 0 0 0-.11.3v10.5c0 .11.04.2.12.29a.4.4 0 0 0 .28.12Zm9.5-7.32h1.19c.16 0 .29-.04.38-.12a.97.97 0 0 0 .23-.33l1.25-3.23a.48.48 0 0 0 .03-.18.33.33 0 0 0-.09-.22.28.28 0 0 0-.21-.1H35.9a.5.5 0 0 0-.4.16.89.89 0 0 0-.2.4l-.5 3.24c-.01.12.01.22.07.28.06.07.14.1.24.1Z"/><path fill="#14110f" d="m19.26 31.09-.93 26.45 23.04.8.93-26.45z"/><path fill="#14110f" d="m51.94 53.1-.42 11.96a1.05 1.05 0 0 1-1.08 1.01l-11.96-.42a1.05 1.05 0 0 1-1.01-1.08l.42-11.96a1.05 1.05 0 0 1 1.08-1.01l11.96.42a1.05 1.05 0 0 1 1 1.08"/><path fill="#6f6f6e" d="m50.8 53.76-.37 10.56a.63.63 0 0 1-.65.61l-10.56-.37a.63.63 0 0 1-.61-.65l.37-10.56a.63.63 0 0 1 .65-.6l10.56.36a.63.63 0 0 1 .61.65"/><path fill="#14110f" d="m52.43 39.05-.42 11.96a1.05 1.05 0 0 1-1.08 1l-11.96-.41a1.05 1.05 0 0 1-1.01-1.08l.42-11.96a1.05 1.05 0 0 1 1.08-1.01l11.96.41a1.05 1.05 0 0 1 1.01 1.09"/><path fill="#6f6f6e" d="m51.29 39.7-.37 10.57a.63.63 0 0 1-.65.6l-10.56-.36a.63.63 0 0 1-.61-.65l.37-10.57a.63.63 0 0 1 .65-.6l10.56.37a.63.63 0 0 1 .6.65"/><path fill="#14110f" d="m52.92 25-.42 11.95a1.05 1.05 0 0 1-1.08 1.01l-11.96-.41a1.05 1.05 0 0 1-1.01-1.09l.42-11.96a1.05 1.05 0 0 1 1.08-1l11.96.41a1.05 1.05 0 0 1 1 1.09"/><path fill="#6f6f6e" d="m51.78 25.66-.37 10.56a.63.63 0 0 1-.65.6l-10.56-.36a.63.63 0 0 1-.61-.66l.37-10.56a.63.63 0 0 1 .65-.6l10.56.36a.63.63 0 0 1 .61.66"/><path fill="#14110f" d="m37.89 52.61-.42 11.96a1.05 1.05 0 0 1-1.09 1.01l-11.95-.42a1.05 1.05 0 0 1-1.01-1.08l.41-11.96a1.05 1.05 0 0 1 1.09-1l11.95.4a1.05 1.05 0 0 1 1.02 1.1"/><path fill="#14110f" d="m36.75 53.27-.38 10.56a.63.63 0 0 1-.65.61l-10.56-.37a.63.63 0 0 1-.6-.65l.36-10.56a.63.63 0 0 1 .65-.61l10.57.37a.63.63 0 0 1 .6.65m1.64-14.71-.42 11.96a1.05 1.05 0 0 1-1.09 1l-11.95-.4a1.05 1.05 0 0 1-1.01-1.1l.41-11.95a1.05 1.05 0 0 1 1.09-1.01l11.95.41a1.05 1.05 0 0 1 1.02 1.09"/><path fill="#14110f" d="m37.23 39.22-.36 10.56a.63.63 0 0 1-.65.6l-10.57-.36a.63.63 0 0 1-.6-.65l.37-10.56a.63.63 0 0 1 .65-.61l10.56.37a.63.63 0 0 1 .6.65m1.64-14.71-.42 11.95a1.05 1.05 0 0 1-1.09 1.01l-11.95-.41a1.05 1.05 0 0 1-1.01-1.09l.42-11.95A1.05 1.05 0 0 1 25.9 23l11.95.42a1.05 1.05 0 0 1 1.02 1.09"/><path fill="#6f6f6e" d="m37.73 25.17-.37 10.56a.63.63 0 0 1-.65.6l-10.57-.37a.63.63 0 0 1-.6-.65l.37-10.56a.63.63 0 0 1 .65-.6l10.56.37a.63.63 0 0 1 .6.65"/><path fill="#14110f" d="m23.83 52.12-.41 11.96a1.05 1.05 0 0 1-1.09 1l-11.96-.4a1.05 1.05 0 0 1-1-1.1l.4-11.95a1.05 1.05 0 0 1 1.1-1.01l11.95.42a1.05 1.05 0 0 1 1.01 1.08"/><path fill="#6f6f6e" d="m22.7 52.78-.38 10.56a.63.63 0 0 1-.65.61l-10.56-.37a.63.63 0 0 1-.6-.65l.36-10.56a.63.63 0 0 1 .65-.61l10.56.37a.63.63 0 0 1 .61.65"/><path fill="#14110f" d="m24.32 38.07-.41 11.95a1.05 1.05 0 0 1-1.09 1.02l-11.95-.42a1.05 1.05 0 0 1-1.02-1.09l.42-11.95a1.05 1.05 0 0 1 1.09-1.01l11.95.41a1.05 1.05 0 0 1 1.01 1.09"/><path fill="#14110f" d="m23.18 38.73-.37 10.56a.63.63 0 0 1-.65.6l-10.56-.36a.63.63 0 0 1-.6-.65l.36-10.57a.63.63 0 0 1 .65-.6l10.56.37a.63.63 0 0 1 .61.65m1.64-14.71-.42 11.95a1.05 1.05 0 0 1-1.09 1.01l-11.95-.41a1.05 1.05 0 0 1-1.02-1.09l.42-11.95a1.05 1.05 0 0 1 1.09-1.02l11.95.42a1.05 1.05 0 0 1 1.02 1.09"/><path fill="#6f6f6e" d="m23.67 24.67-.37 10.57a.63.63 0 0 1-.65.6l-10.56-.37a.63.63 0 0 1-.6-.65l.36-10.56a.63.63 0 0 1 .65-.6l10.57.36a.63.63 0 0 1 .6.65"/><path fill="#14110f" d="m13.9 52.58 24.87 9.06 7.88-21.66-24.87-9.06Z"/><path fill="#14110f" d="m44.93 28.3 11.24 4.1a1.05 1.05 0 0 1 .63 1.34l-4.1 11.24a1.05 1.05 0 0 1-1.34.63l-11.24-4.09a1.05 1.05 0 0 1-.63-1.35l4.1-11.24a1.05 1.05 0 0 1 1.34-.62"/><path fill="#fff" d="m45.2 29.6 9.93 3.6a.63.63 0 0 1 .38.82l-3.61 9.93a.63.63 0 0 1-.81.37l-9.93-3.61a.63.63 0 0 1-.38-.8l3.61-9.94a.63.63 0 0 1 .81-.38"/><path fill="#14110f" d="m31.72 23.5 11.24 4.09a1.05 1.05 0 0 1 .62 1.34L39.5 40.17a1.05 1.05 0 0 1-1.34.63L26.9 36.71a1.05 1.05 0 0 1-.63-1.34l4.1-11.25a1.05 1.05 0 0 1 1.34-.62"/><path fill="#fff" d="m31.99 24.79 9.93 3.6a.63.63 0 0 1 .38.82l-3.62 9.93a.63.63 0 0 1-.8.37l-9.94-3.61a.63.63 0 0 1-.37-.8l3.61-9.94a.63.63 0 0 1 .8-.37"/><path fill="#14110f" d="m18.5 18.69 11.24 4.09a1.05 1.05 0 0 1 .63 1.34l-4.1 11.25a1.05 1.05 0 0 1-1.34.62L13.7 31.9a1.05 1.05 0 0 1-.62-1.34l4.09-11.25a1.05 1.05 0 0 1 1.34-.62"/><path fill="#fff" d="m18.78 19.98 9.93 3.6a.63.63 0 0 1 .37.82l-3.61 9.93a.63.63 0 0 1-.8.37l-9.94-3.61a.63.63 0 0 1-.38-.8l3.62-9.94a.63.63 0 0 1 .8-.37"/><path fill="#14110f" d="m40.12 41.52 11.24 4.09a1.05 1.05 0 0 1 .63 1.35l-4.1 11.24a1.05 1.05 0 0 1-1.34.62l-11.24-4.09a1.05 1.05 0 0 1-.63-1.34l4.1-11.24a1.05 1.05 0 0 1 1.34-.63"/><path fill="#fff" d="m40.4 42.8 9.92 3.62a.63.63 0 0 1 .38.81l-3.61 9.93a.63.63 0 0 1-.81.38l-9.93-3.62a.63.63 0 0 1-.38-.8l3.62-9.94a.63.63 0 0 1 .8-.37"/><path fill="#14110f" d="m26.9 36.71 11.25 4.09a1.05 1.05 0 0 1 .62 1.35l-4.09 11.24a1.05 1.05 0 0 1-1.34.63l-11.24-4.1a1.05 1.05 0 0 1-.63-1.34l4.1-11.24a1.05 1.05 0 0 1 1.34-.63"/><path fill="#fff" d="m27.18 38 9.93 3.61a.63.63 0 0 1 .38.8l-3.62 9.94a.63.63 0 0 1-.8.38l-9.93-3.62a.63.63 0 0 1-.38-.8l3.61-9.94a.63.63 0 0 1 .81-.37"/><path fill="#14110f" d="M13.7 31.9 24.92 36a1.05 1.05 0 0 1 .63 1.34l-4.09 11.24a1.05 1.05 0 0 1-1.35.63L8.9 45.1a1.05 1.05 0 0 1-.63-1.34l4.09-11.24a1.05 1.05 0 0 1 1.34-.63"/><path fill="#fff" d="m13.97 33.19 9.93 3.61a.63.63 0 0 1 .37.8l-3.61 9.94a.63.63 0 0 1-.8.38L9.91 44.3a.63.63 0 0 1-.38-.8l3.62-9.94a.63.63 0 0 1 .8-.37"/><path fill="#14110f" d="m35.31 54.73 11.24 4.1a1.05 1.05 0 0 1 .63 1.34l-4.1 11.24a1.05 1.05 0 0 1-1.34.63l-11.24-4.1a1.05 1.05 0 0 1-.63-1.34l4.1-11.24a1.05 1.05 0 0 1 1.34-.63"/><path fill="#fff" d="m35.58 56.02 9.94 3.62a.63.63 0 0 1 .37.8l-3.61 9.93a.63.63 0 0 1-.81.38l-9.93-3.61a.63.63 0 0 1-.38-.81l3.62-9.93a.63.63 0 0 1 .8-.38"/><path fill="#14110f" d="M22.1 49.93 33.34 54a1.05 1.05 0 0 1 .62 1.35L29.87 66.6a1.05 1.05 0 0 1-1.34.63l-11.24-4.1a1.05 1.05 0 0 1-.63-1.34l4.1-11.24a1.05 1.05 0 0 1 1.34-.63"/><path fill="#fff" d="m22.37 51.21 9.93 3.62a.63.63 0 0 1 .38.8l-3.62 9.93a.63.63 0 0 1-.8.38l-9.93-3.61a.63.63 0 0 1-.38-.81l3.61-9.93a.63.63 0 0 1 .81-.38"/><path fill="#14110f" d="m8.89 45.11 11.23 4.1a1.05 1.05 0 0 1 .63 1.34l-4.09 11.24a1.05 1.05 0 0 1-1.35.63l-11.24-4.1a1.05 1.05 0 0 1-.62-1.34l4.09-11.23a1.05 1.05 0 0 1 1.35-.63"/><path fill="#fff" d="m9.16 46.4 9.93 3.62a.63.63 0 0 1 .38.8l-3.62 9.93a.63.63 0 0 1-.8.38L5.1 57.52a.63.63 0 0 1-.37-.81l3.61-9.93a.63.63 0 0 1 .8-.38"/><path fill="#fff" d="M25.6 87.5a.4.4 0 0 1-.28-.12.4.4 0 0 1-.12-.29V76.6c0-.12.03-.22.1-.3a.38.38 0 0 1 .3-.13h7.53a.4.4 0 0 1 .3.13c.08.08.13.18.13.3v1.7c0 .13-.05.23-.13.3a.41.41 0 0 1-.3.11h-4.95v2.26h4.63a.4.4 0 0 1 .3.12.4.4 0 0 1 .12.3v1.71c0 .12-.04.22-.13.3a.42.42 0 0 1-.3.1h-4.62v3.6c0 .1-.04.2-.12.29a.38.38 0 0 1-.29.12zm9.5-7.32a.31.31 0 0 1-.23-.1c-.06-.06-.08-.15-.07-.28l.5-3.23a.8.8 0 0 1 .2-.4c.1-.11.23-.17.4-.17h1.98c.08 0 .16.03.21.1.06.06.1.14.1.22 0 .07-.02.13-.03.18l-1.25 3.23c-.07.14-.15.25-.24.33a.55.55 0 0 1-.38.12zm0 0" aria-label="F’"/><path fill="none" stroke="#fff" stroke-linecap="round" stroke-linejoin="round" stroke-miterlimit="10" stroke-width="4.32" d="M36.76 9.1c-6.1-.43-12.37.85-18.19 3.7l-1.38-2.33-3.5 6.26 7.18-.1-1.37-2.29c11.4-5.5 24.56-4.41 32.34 2.78l1.22-1.32c-4.23-3.92-9.87-6.23-16.3-6.7Z"/><path fill="none" stroke="#1d1d1b" stroke-linecap="round" stroke-linejoin="round" stroke-miterlimit="10" stroke-width="2.88" d="M36.76 9.1c-6.1-.43-12.37.85-18.19 3.7l-1.38-2.33-3.5 6.26 7.18-.1-1.37-2.29c11.4-5.5 24.56-4.41 32.34 2.78l1.22-1.32c-4.23-3.92-9.87-6.23-16.3-6.7Z"/><path fill="none" stroke="#e40428" stroke-miterlimit="10" stroke-width="2.16" d="M52.49 16.58c-8.25-7.63-22.09-8.71-34.13-2.54"/><path fill="#e40428" d="m17.43 10.3-3.7 6.55 7.53-.06z"/></svg>