<svg xmlns="http://www.w3.org/2000/svg" viewBox="0 0 61.2 91.8"><path fill="#ef7d00" d="M57.24 91.8H3.95a3.96 3.96 0 0 1-3.96-3.95V3.96A3.96 3.96 0 0 1 3.95 0h53.29a3.95 3.95 0 0 1 3.95 3.96v83.89a3.96 3.96 0 0 1-3.95 3.95"/><path fill="#f29733" d="M61.2 76.72v11.1c0 2.2-1.79 3.98-3.98 3.98H3.97a3.97 3.97 0 0 1-3.98-3.97V67.37"/><path fill="#fff" d="M28.24 87.64a.4.4 0 0 1-.29-.12.4.4 0 0 1-.12-.29V76.71a.4.4 0 0 1 .12-.3.42.42 0 0 1 .29-.1h2.27a.4.4 0 0 1 .29.11.4.4 0 0 1 .11.3v8.38h4.86a.4.4 0 0 1 .3.12.4.4 0 0 1 .12.3v1.71c0 .12-.04.22-.13.3a.42.42 0 0 1-.3.11Zm0 0" aria-label="L"/><path fill="#14110f" d="M46.56 58.11H8.48V15.76h38.08Z"/><path fill="#14110f" d="M5.98 57.29v8.44a.98.98 0 0 0 .98.98h14.57a.98.98 0 0 0 .98-.98V57.3a.98.98 0 0 0-.98-.98H6.96a.98.98 0 0 0-.98.98"/><path fill="#cfcfcf" d="M7.29 57.7v7.4c0 .3.26.57.58.57h12.75a.58.58 0 0 0 .58-.58v-7.4a.58.58 0 0 0-.58-.57H7.87a.58.58 0 0 0-.58.58"/><path fill="#14110f" d="M5.98 47.1v8.24a.97.97 0 0 0 .97.97h14.6a.97.97 0 0 0 .96-.97v-8.23a.97.97 0 0 0-.97-.97H6.94a.97.97 0 0 0-.96.97"/><path fill="#cfcfcf" d="M7.29 47.53v7.4c0 .31.26.57.58.57h12.75a.58.58 0 0 0 .58-.58v-7.4a.58.58 0 0 0-.58-.57H7.87a.58.58 0 0 0-.58.58"/><path fill="#14110f" d="M22.51 47.94v14.07a1.23 1.23 0 0 0 1.23 1.23h14.07A1.23 1.23 0 0 0 39.04 62V47.94a1.23 1.23 0 0 0-1.23-1.23H23.74a1.23 1.23 0 0 0-1.23 1.23"/><path fill="#6f6f6e" d="M23.82 48.76V61.2a.74.74 0 0 0 .74.74H37a.74.74 0 0 0 .74-.74V48.76a.74.74 0 0 0-.74-.74H24.56a.74.74 0 0 0-.74.74"/><path fill="#14110f" d="M22.51 31.41v14.06a1.23 1.23 0 0 0 1.23 1.24h14.07a1.23 1.23 0 0 0 1.23-1.24V31.41a1.23 1.23 0 0 0-1.23-1.23H23.74a1.23 1.23 0 0 0-1.23 1.23"/><path fill="#6f6f6e" d="M23.82 32.23v12.42a.74.74 0 0 0 .74.74H37a.74.74 0 0 0 .74-.74V32.23a.74.74 0 0 0-.74-.74H24.56a.74.74 0 0 0-.74.74"/><path fill="#14110f" d="M22.51 14.87v14.07a1.24 1.24 0 0 0 1.23 1.23h14.07a1.23 1.23 0 0 0 1.23-1.23V14.87a1.24 1.24 0 0 0-1.23-1.23H23.74a1.24 1.24 0 0 0-1.23 1.23"/><path fill="#6f6f6e" d="M23.82 15.7v12.42a.74.74 0 0 0 .74.74H37a.74.74 0 0 0 .74-.74V15.69a.74.74 0 0 0-.74-.74H24.56a.74.74 0 0 0-.74.74"/><path fill="#14110f" d="M39.04 47.94v14.07a1.23 1.23 0 0 0 1.24 1.23h14.06A1.23 1.23 0 0 0 55.58 62V47.94a1.23 1.23 0 0 0-1.24-1.23H40.28a1.24 1.24 0 0 0-1.24 1.23"/><path fill="#6f6f6e" d="M40.36 48.76V61.2a.74.74 0 0 0 .74.74h12.42a.74.74 0 0 0 .74-.74V48.76a.74.74 0 0 0-.74-.74H41.1a.74.74 0 0 0-.74.74"/><path fill="#14110f" d="M39.04 31.41v14.06a1.24 1.24 0 0 0 1.24 1.24h14.06a1.23 1.23 0 0 0 1.24-1.24V31.41a1.23 1.23 0 0 0-1.24-1.23H40.28a1.24 1.24 0 0 0-1.24 1.23"/><path fill="#6f6f6e" d="M40.36 32.23v12.42a.74.74 0 0 0 .74.74h12.42a.74.74 0 0 0 .74-.74V32.23a.74.74 0 0 0-.74-.74H41.1a.74.74 0 0 0-.74.74"/><path fill="#14110f" d="M39.04 14.87v14.07a1.24 1.24 0 0 0 1.24 1.23h14.06a1.23 1.23 0 0 0 1.24-1.23V14.87a1.24 1.24 0 0 0-1.24-1.23H40.28a1.24 1.24 0 0 0-1.24 1.23"/><path fill="#6f6f6e" d="M40.36 15.7v12.42a.74.74 0 0 0 .74.74h12.42a.74.74 0 0 0 .74-.74V15.69a.74.74 0 0 0-.74-.74H41.1a.74.74 0 0 0-.74.74"/><path fill="#14110f" d="M5.98 19.16v6.95a.9.9 0 0 0 .9.9H21.6a.9.9 0 0 0 .9-.9v-6.95a.9.9 0 0 0-.9-.9H6.87a.9.9 0 0 0-.9.9"/><path fill="#fff" d="M7.29 19.5v6.27c0 .3.24.54.54.54h12.83c.3 0 .54-.24.54-.54V19.5c0-.3-.24-.54-.54-.54H7.83c-.3 0-.54.25-.54.54"/><path fill="#14110f" d="M5.98 10.18v7.34c0 .5.4.92.92.92h14.83c.5 0 .92-.41.92-.93V10.2a.92.92 0 0 0-.93-.93H6.9a.92.92 0 0 0-.92.93"/><path fill="#fff" d="M7.29 10.75v6.28c0 .3.24.53.54.53h12.83c.3 0 .54-.23.54-.53v-6.29c0-.3-.24-.53-.54-.53H7.83c-.3 0-.54.24-.54.53"/><path fill="#14110f" d="M5.98 57.28s0-.92.27-1.27c.28-.35 1.04.3 1.04.3Zm0-10.17s0-1.1.27-1.26c.28-.16 1.2.29 1.2.29Zm0-9.75V33.9l3.42 2.08Zm0-11.25s-.02.89.24 1.18c.27.3 1.47-.28 1.47-.28zm0-8.75s0 .89.25 1.17c.26.28 1.06 0 1.06 0z"/><path fill="#14110f" d="M5.98 36.94v8.23a.97.97 0 0 0 .97.97h14.6a.97.97 0 0 0 .96-.97v-8.23a.97.97 0 0 0-.97-.97H6.94a.97.97 0 0 0-.96.97"/><path fill="#cfcfcf" d="M7.29 37.36v7.4c0 .31.26.57.58.57h12.75a.58.58 0 0 0 .58-.58v-7.4a.58.58 0 0 0-.58-.57H7.87a.58.58 0 0 0-.58.58"/><path fill="#14110f" d="M5.98 27.9v6.96a.9.9 0 0 0 .9.9H21.6a.9.9 0 0 0 .9-.9v-6.95a.9.9 0 0 0-.9-.9H6.87a.9.9 0 0 0-.9.9"/><path fill="#fff" d="M7.29 28.24v6.28c0 .3.24.54.54.54h12.83c.3 0 .54-.24.54-.54v-6.28c0-.3-.24-.54-.54-.54H7.83c-.3 0-.54.24-.54.54"/><path fill="none" stroke="#fff" stroke-linecap="round" stroke-linejoin="round" stroke-miterlimit="10" stroke-width="4.32" d="m15.5 14.23 1.68.65c-4.53 11.59-5.1 26.84-1.57 42.02l2.6-.7-1.87 6.94-5.07-5.08 2.6-.7a88.56 88.56 0 0 1-2.35-19.94c0-8.46 1.34-16.43 3.98-23.19z"/><path fill="none" stroke="#1d1d1b" stroke-linecap="round" stroke-linejoin="round" stroke-miterlimit="10" stroke-width="2.88" d="m15.5 14.23 1.68.65c-4.53 11.59-5.1 26.84-1.57 42.02l2.6-.7-1.87 6.94-5.07-5.08 2.6-.7a88.56 88.56 0 0 1-2.35-19.94c0-8.46 1.34-16.43 3.98-23.19z"/><path fill="none" stroke="#e40428" stroke-miterlimit="10" stroke-width="2.16" d="M16.33 14.76c-4.57 11.68-5.31 27.23-1.42 43.34"/><path fill="#e40428" d="m11.01 57.99 5.32 5.34 1.97-7.27z"/></svg>