<svg xmlns="http://www.w3.org/2000/svg" viewBox="0 0 68.61 98.69"><path fill="#f29733" d="M64.65 91.8H11.36a3.96 3.96 0 0 1-3.96-3.95V3.96A3.96 3.96 0 0 1 11.36.01h53.29a3.96 3.96 0 0 1 3.95 3.95v83.89a3.96 3.96 0 0 1-3.95 3.96"/><path fill="#ef7d00" d="M68.6 76.72v11.11c0 2.2-1.78 3.98-3.97 3.98H11.38a3.98 3.98 0 0 1-3.98-3.98V67.38"/><path fill="#fff" d="M58.83 97.63H5.54a3.96 3.96 0 0 1-3.96-3.96V9.78a3.96 3.96 0 0 1 3.96-3.95h53.29a3.96 3.96 0 0 1 3.95 3.95v83.89a3.96 3.96 0 0 1-3.95 3.96"/><path fill="#f29733" d="M57.24 98.69H3.95A3.96 3.96 0 0 1 0 94.73V10.84A3.96 3.96 0 0 1 3.95 6.9h53.29a3.96 3.96 0 0 1 3.96 3.95v83.89a3.96 3.96 0 0 1-3.96 3.96"/><path fill="#ef7d00" d="M61.2 83.6v11.12c0 2.2-1.78 3.97-3.98 3.97H3.97A3.98 3.98 0 0 1 0 94.72V74.26"/><path fill="#fff" d="M4.36 0q-.5 0-.83-.32-.32-.32-.32-.83v-29.83q0-.5.32-.83.33-.32.83-.32h6.06q.46 0 .78.32.37.32.37.83v24.05h13.86q.5 0 .82.37.37.32.37.82v4.6q0 .5-.37.82-.32.32-.82.32Zm26.12 0q-.5 0-.87-.32-.33-.32-.33-.83V-4.4q0-.32.19-.96.18-.69.96-1.29l4.78-4.68q3.67-2.8 6-4.73 2.4-1.97 3.54-3.48 1.15-1.52 1.15-2.85 0-1.56-.83-2.57-.78-1.06-2.75-1.06-1.33 0-2.25.6-.87.55-1.33 1.47-.46.92-.64 1.88-.19.6-.65.83-.4.23-.91.23H30.8q-.41 0-.69-.28-.28-.27-.28-.69.05-2.2.92-4.13.92-1.92 2.53-3.4 1.65-1.5 3.9-2.33 2.3-.83 5.14-.83 3.9 0 6.6 1.24 2.76 1.24 4.19 3.49 1.42 2.2 1.42 5.18 0 2.25-1.01 4.23-.96 1.92-2.8 3.71-1.8 1.75-4.27 3.63l-4.22 4.27h11.8q.5 0 .82.32.37.32.37.83v4.63q0 .5-.37.83-.32.32-.83.32Z" aria-label="L2" font-family="Rubik" font-size="45.9" font-weight="700" style="-inkscape-font-specification:Rubik" transform="translate(20.5 94.52) scale(.35277)"/><path fill="#14110f" d="M46.56 65H8.49V22.63h38.07z"/><path fill="#14110f" d="M5.98 64.17v8.45a.98.98 0 0 0 .98.98h14.58a.98.98 0 0 0 .97-.98v-8.45a.98.98 0 0 0-.97-.98H6.96a.98.98 0 0 0-.98.98"/><path fill="#cfcfcf" d="M7.3 64.58v7.4c0 .31.25.57.58.57h12.74a.58.58 0 0 0 .58-.58v-7.39a.58.58 0 0 0-.58-.58H7.87a.58.58 0 0 0-.58.58"/><path fill="#14110f" d="M5.98 53.99v8.23a.97.97 0 0 0 .97.97h14.6a.97.97 0 0 0 .96-.97V54a.97.97 0 0 0-.96-.97H6.95a.97.97 0 0 0-.97.97"/><path fill="#cfcfcf" d="M7.3 54.41v7.4c0 .31.25.57.58.57h12.74a.58.58 0 0 0 .58-.58v-7.39a.58.58 0 0 0-.58-.58H7.87a.58.58 0 0 0-.58.58"/><path fill="#14110f" d="M22.51 54.82V68.9a1.23 1.23 0 0 0 1.24 1.23H37.8a1.23 1.23 0 0 0 1.24-1.23V54.82a1.23 1.23 0 0 0-1.24-1.23H23.75a1.23 1.23 0 0 0-1.24 1.23"/><path fill="#6f6f6e" d="M23.83 55.64v12.43a.74.74 0 0 0 .74.74h12.42a.74.74 0 0 0 .74-.74V55.64a.74.74 0 0 0-.74-.74H24.57a.74.74 0 0 0-.74.74"/><path fill="#14110f" d="M22.51 38.29v14.06a1.23 1.23 0 0 0 1.24 1.24H37.8a1.23 1.23 0 0 0 1.24-1.24V38.3a1.23 1.23 0 0 0-1.24-1.23H23.75a1.23 1.23 0 0 0-1.24 1.23"/><path fill="#6f6f6e" d="M23.83 39.1v12.43a.74.74 0 0 0 .74.75h12.42a.74.74 0 0 0 .74-.75V39.11a.74.74 0 0 0-.74-.74H24.57a.74.74 0 0 0-.74.74"/><path fill="#14110f" d="M22.51 21.76v14.06a1.24 1.24 0 0 0 1.24 1.24H37.8a1.23 1.23 0 0 0 1.24-1.24V21.76a1.24 1.24 0 0 0-1.24-1.24H23.75a1.24 1.24 0 0 0-1.24 1.24m16.54 33.06V68.9a1.23 1.23 0 0 0 1.23 1.23h14.07a1.23 1.23 0 0 0 1.23-1.23V54.82a1.23 1.23 0 0 0-1.23-1.23H40.28a1.24 1.24 0 0 0-1.23 1.23"/><path fill="#6f6f6e" d="M40.36 55.64v12.43a.74.74 0 0 0 .74.74h12.43a.74.74 0 0 0 .74-.74V55.64a.74.74 0 0 0-.74-.74H41.1a.74.74 0 0 0-.74.74M23.83 22.58V35a.74.74 0 0 0 .74.74h12.42a.74.74 0 0 0 .74-.74V22.58a.74.74 0 0 0-.74-.74H24.57a.74.74 0 0 0-.74.74"/><path fill="#14110f" d="M39.05 38.29v14.06a1.24 1.24 0 0 0 1.23 1.24h14.07a1.23 1.23 0 0 0 1.23-1.24V38.3a1.23 1.23 0 0 0-1.23-1.23H40.28a1.24 1.24 0 0 0-1.23 1.23"/><path fill="#6f6f6e" d="M40.36 39.1v12.43a.74.74 0 0 0 .74.75h12.43a.74.74 0 0 0 .74-.75V39.11a.74.74 0 0 0-.74-.74H41.1a.74.74 0 0 0-.74.74"/><path fill="#14110f" d="M39.05 21.76v14.06a1.24 1.24 0 0 0 1.23 1.24h14.07a1.23 1.23 0 0 0 1.23-1.24V21.76a1.24 1.24 0 0 0-1.23-1.24H40.28a1.24 1.24 0 0 0-1.23 1.24"/><path fill="#6f6f6e" d="M40.36 22.58V35a.74.74 0 0 0 .74.74h12.43a.74.74 0 0 0 .74-.74V22.58a.74.74 0 0 0-.74-.74H41.1a.74.74 0 0 0-.74.74"/><path fill="#14110f" d="M5.98 26.04v6.95a.9.9 0 0 0 .9.9h14.74a.9.9 0 0 0 .9-.9v-6.95a.9.9 0 0 0-.9-.9H6.88a.9.9 0 0 0-.9.9"/><path fill="#fff" d="M7.3 26.38v6.28c0 .3.23.54.53.54h12.83c.3 0 .54-.24.54-.54v-6.28c0-.3-.24-.54-.54-.54H7.83c-.3 0-.54.24-.54.54"/><path fill="#14110f" d="M5.98 17.07v7.33a.92.92 0 0 0 .92.92h14.83c.51 0 .92-.41.92-.92v-7.33a.93.93 0 0 0-.92-.93H6.9a.92.92 0 0 0-.92.93"/><path fill="#fff" d="M7.3 17.63v6.28c0 .3.23.54.53.54h12.83c.3 0 .54-.24.54-.54v-6.28c0-.3-.24-.54-.54-.54H7.83c-.3 0-.54.24-.54.54"/><path fill="#14110f" d="M5.98 64.16s0-.92.27-1.26c.28-.35 1.05.3 1.05.3Zm0-10.17s0-1.1.28-1.26c.27-.15 1.19.3 1.19.3Zm0-9.75v-3.47l3.42 2.08Zm0-11.24s-.02.88.24 1.18c.27.29 1.47-.29 1.47-.29z"/><path fill="#14110f" d="M5.98 43.82v8.23a.97.97 0 0 0 .97.97h14.6a.97.97 0 0 0 .96-.97v-8.23a.97.97 0 0 0-.96-.97H6.95a.97.97 0 0 0-.97.97m0-19.57s0 .88.26 1.16c.25.28 1.05 0 1.05 0z"/><path fill="#cfcfcf" d="M7.3 44.24v7.4c0 .32.25.57.58.57h12.74a.58.58 0 0 0 .58-.58v-7.39a.58.58 0 0 0-.58-.58H7.87a.58.58 0 0 0-.58.58"/><path fill="#14110f" d="M5.98 34.79v6.95a.9.9 0 0 0 .9.9h14.74a.9.9 0 0 0 .9-.9V34.8a.9.9 0 0 0-.9-.9H6.88a.9.9 0 0 0-.9.9"/><path fill="#fff" d="M7.3 35.13v6.28c0 .3.23.54.53.54h12.83c.3 0 .54-.24.54-.54v-6.28c0-.3-.24-.54-.54-.54H7.83c-.3 0-.54.24-.54.54"/><path fill="none" stroke="#fff" stroke-linecap="round" stroke-linejoin="round" stroke-miterlimit="10" stroke-width="4.32" d="m15.5 70.21 1.68-.65c-4.53-11.58-5.09-26.84-1.57-42.02l2.6.7-1.87-6.93-5.06 5.08 2.6.7a88.57 88.57 0 0 0-2.35 19.93c0 8.47 1.33 16.43 3.97 23.2Z"/><path fill="none" stroke="#1d1d1b" stroke-linecap="round" stroke-linejoin="round" stroke-miterlimit="10" stroke-width="2.88" d="m15.5 70.21 1.68-.65c-4.53-11.58-5.09-26.84-1.57-42.02l2.6.7-1.87-6.93-5.06 5.08 2.6.7a88.57 88.57 0 0 0-2.35 19.93c0 8.47 1.33 16.43 3.97 23.2Z"/><path fill="none" stroke="#e40428" stroke-miterlimit="10" stroke-width="2.16" d="M16.33 69.69c-4.57-11.69-5.3-27.24-1.42-43.34"/><path fill="#e40428" d="m18.3 28.39-1.97-7.28-5.31 5.34Z"/></svg>