<svg xmlns="http://www.w3.org/2000/svg" viewBox="0 0 61.02 91.52"><path fill="#f29733" d="M57.14 91.66H3.86A3.96 3.96 0 0 1-.1 87.7V3.82A3.96 3.96 0 0 1 3.86-.14h53.28a3.95 3.95 0 0 1 3.96 3.96V87.7a3.96 3.96 0 0 1-3.96 3.96"/><path fill="#ef7d00" d="M61.1 76.57v11.11c0 2.2-1.78 3.98-3.98 3.98H3.87A3.97 3.97 0 0 1-.1 87.68V67.23"/><path fill="#fff" d="M26.66 87.5a.4.4 0 0 1-.29-.12.4.4 0 0 1-.12-.29V76.56a.4.4 0 0 1 .4-.4h2.28a.4.4 0 0 1 .29.12.4.4 0 0 1 .11.29v8.38h4.86c.12 0 .22.04.3.13a.4.4 0 0 1 .12.3v1.71a.4.4 0 0 1-.12.3.41.41 0 0 1-.3.1zm7.42-7.32a.31.31 0 0 1-.24-.1c-.06-.06-.08-.16-.07-.28l.5-3.24c.03-.16.1-.3.2-.4.1-.1.23-.16.4-.16h1.98c.08 0 .15.03.21.1.06.06.1.14.1.22 0 .07-.02.13-.04.18l-1.25 3.23c-.06.13-.14.25-.23.33a.58.58 0 0 1-.38.12zm0 0" aria-label="L’"/><path fill="#14110f" d="M46.46 57.97H8.4V15.6h38.07z"/><path fill="#14110f" d="M5.88 57.14v8.45a.98.98 0 0 0 .98.98h14.58a.98.98 0 0 0 .98-.98v-8.45a.98.98 0 0 0-.98-.97H6.86a.98.98 0 0 0-.98.97"/><path fill="#cfcfcf" d="M7.2 57.55v7.4c0 .31.26.58.58.58h12.74a.58.58 0 0 0 .58-.59v-7.39a.58.58 0 0 0-.58-.58H7.78a.58.58 0 0 0-.59.58"/><path fill="#14110f" d="M5.88 46.96v8.24a.97.97 0 0 0 .97.96h14.6a.97.97 0 0 0 .97-.96v-8.24a.97.97 0 0 0-.97-.96H6.85a.97.97 0 0 0-.97.96"/><path fill="#cfcfcf" d="M7.2 47.38v7.4c0 .32.26.58.58.58h12.74a.58.58 0 0 0 .58-.58v-7.4a.58.58 0 0 0-.58-.58H7.78a.58.58 0 0 0-.59.58"/><path fill="#14110f" d="M22.42 47.8v14.06a1.23 1.23 0 0 0 1.23 1.23h14.06a1.23 1.23 0 0 0 1.24-1.23V47.8a1.23 1.23 0 0 0-1.24-1.24H23.65a1.23 1.23 0 0 0-1.23 1.24"/><path fill="#6f6f6e" d="M23.73 48.62v12.42a.74.74 0 0 0 .74.74H36.9a.74.74 0 0 0 .74-.74V48.62a.74.74 0 0 0-.74-.74H24.47a.74.74 0 0 0-.74.74"/><path fill="#14110f" d="M22.42 31.26v14.07a1.23 1.23 0 0 0 1.23 1.23h14.06a1.23 1.23 0 0 0 1.24-1.23V31.26a1.23 1.23 0 0 0-1.24-1.23H23.65a1.23 1.23 0 0 0-1.23 1.23"/><path fill="#6f6f6e" d="M23.73 32.08v12.43a.74.74 0 0 0 .74.74H36.9a.74.74 0 0 0 .74-.74V32.08a.74.74 0 0 0-.74-.74H24.47a.74.74 0 0 0-.74.74"/><path fill="#14110f" d="M22.42 14.73v14.06a1.24 1.24 0 0 0 1.23 1.24h14.06a1.23 1.23 0 0 0 1.24-1.24V14.73a1.24 1.24 0 0 0-1.24-1.23H23.65a1.24 1.24 0 0 0-1.23 1.23"/><path fill="#6f6f6e" d="M23.73 15.55v12.42a.74.74 0 0 0 .74.75H36.9a.74.74 0 0 0 .74-.75V15.55a.74.74 0 0 0-.74-.74H24.47a.74.74 0 0 0-.74.74"/><path fill="#14110f" d="M38.95 47.8v14.06a1.23 1.23 0 0 0 1.23 1.23h14.07a1.23 1.23 0 0 0 1.23-1.23V47.8a1.23 1.23 0 0 0-1.23-1.24H40.18a1.24 1.24 0 0 0-1.23 1.24"/><path fill="#6f6f6e" d="M40.26 48.62v12.42a.74.74 0 0 0 .74.74h12.43a.74.74 0 0 0 .74-.74V48.62a.74.74 0 0 0-.74-.74H41a.74.74 0 0 0-.74.74"/><path fill="#14110f" d="M38.95 31.26v14.07a1.24 1.24 0 0 0 1.23 1.23h14.07a1.23 1.23 0 0 0 1.23-1.23V31.26a1.23 1.23 0 0 0-1.23-1.23H40.18a1.24 1.24 0 0 0-1.23 1.23"/><path fill="#6f6f6e" d="M40.26 32.08v12.43a.74.74 0 0 0 .74.74h12.43a.74.74 0 0 0 .74-.74V32.08a.74.74 0 0 0-.74-.74H41a.74.74 0 0 0-.74.74"/><path fill="#14110f" d="M38.95 14.73v14.06a1.24 1.24 0 0 0 1.23 1.24h14.07a1.23 1.23 0 0 0 1.23-1.24V14.73a1.24 1.24 0 0 0-1.23-1.23H40.18a1.24 1.24 0 0 0-1.23 1.23"/><path fill="#6f6f6e" d="M40.26 15.55v12.42a.74.74 0 0 0 .74.75h12.43a.74.74 0 0 0 .74-.75V15.55a.74.74 0 0 0-.74-.74H41a.74.74 0 0 0-.74.74"/><path fill="#14110f" d="M5.88 19.01v6.96a.9.9 0 0 0 .9.9h14.74a.9.9 0 0 0 .9-.9V19a.9.9 0 0 0-.9-.9H6.78a.9.9 0 0 0-.9.9"/><path fill="#fff" d="M7.2 19.35v6.28c0 .3.24.54.53.54h12.83c.3 0 .54-.24.54-.54v-6.28c0-.3-.24-.54-.54-.54H7.73c-.3 0-.54.24-.54.54"/><path fill="#14110f" d="M5.88 10.04v7.33a.92.92 0 0 0 .93.93h14.82c.51 0 .93-.42.93-.93v-7.33a.93.93 0 0 0-.93-.92H6.81a.92.92 0 0 0-.93.92"/><path fill="#fff" d="M7.2 10.6v6.28c0 .3.24.54.53.54h12.83c.3 0 .54-.24.54-.54V10.6c0-.3-.24-.54-.54-.54H7.73c-.3 0-.54.24-.54.54"/><path fill="#14110f" d="M5.88 57.13s0-.91.28-1.26c.27-.35 1.04.3 1.04.3Zm0-10.17s0-1.1.28-1.26c.27-.15 1.19.3 1.19.3Zm0-9.74v-3.48l3.42 2.08Zm0-11.25s-.02.89.25 1.18c.26.29 1.46-.28 1.46-.28zm0-8.75s0 .88.26 1.16c.25.29 1.06 0 1.06 0z"/><path fill="#14110f" d="M5.88 36.8v8.23a.97.97 0 0 0 .97.97h14.6a.97.97 0 0 0 .97-.97v-8.24a.97.97 0 0 0-.97-.97H6.85a.97.97 0 0 0-.97.97"/><path fill="#cfcfcf" d="M7.2 37.21v7.4c0 .32.26.58.58.58h12.74a.58.58 0 0 0 .58-.58v-7.4a.58.58 0 0 0-.58-.58H7.78a.58.58 0 0 0-.59.59"/><path fill="#14110f" d="M5.88 27.76v6.96a.9.9 0 0 0 .9.9h14.74a.9.9 0 0 0 .9-.9v-6.96a.9.9 0 0 0-.9-.9H6.78a.9.9 0 0 0-.9.9"/><path fill="#fff" d="M7.2 28.1v6.28c0 .3.24.54.53.54h12.83c.3 0 .54-.24.54-.54V28.1c0-.3-.24-.54-.54-.54H7.73c-.3 0-.54.24-.54.54"/><path fill="none" stroke="#fff" stroke-linecap="round" stroke-linejoin="round" stroke-miterlimit="10" stroke-width="4.32" d="m15.4 63.19 1.68-.66C12.55 50.95 12 35.7 15.51 20.52l2.6.7-1.86-6.94-5.07 5.08 2.6.7A88.57 88.57 0 0 0 11.43 40c0 8.46 1.33 16.43 3.98 23.19Z"/><path fill="none" stroke="#1d1d1b" stroke-linecap="round" stroke-linejoin="round" stroke-miterlimit="10" stroke-width="2.88" d="m15.4 63.19 1.68-.66C12.55 50.95 12 35.7 15.51 20.52l2.6.7-1.86-6.94-5.07 5.08 2.6.7A88.57 88.57 0 0 0 11.43 40c0 8.46 1.33 16.43 3.98 23.19Z"/><path fill="none" stroke="#e40428" stroke-miterlimit="10" stroke-width="2.16" d="M16.24 62.66c-4.58-11.69-5.32-27.23-1.43-43.34"/><path fill="#e40428" d="m18.2 21.36-1.96-7.28-5.32 5.35Z"/></svg>