<svg xmlns="http://www.w3.org/2000/svg" viewBox="0 0 61.03 91.55"><path fill="#e40428" d="M57.16 91.67H3.87A3.96 3.96 0 0 1-.08 87.7V3.83A3.96 3.96 0 0 1 3.87-.13h53.29a3.96 3.96 0 0 1 3.95 3.96V87.7a3.96 3.96 0 0 1-3.95 3.96"/><path fill="#e93653" d="M61.11 76.59v11.1c0 2.2-1.77 3.98-3.97 3.98H3.89a3.97 3.97 0 0 1-3.97-3.98V67.24"/><path fill="#fff" d="M27.2 87.5a.4.4 0 0 1-.28-.11.4.4 0 0 1-.12-.29V76.6c0-.13.03-.22.1-.3a.4.4 0 0 1 .3-.13h4.45c1.43 0 2.54.33 3.35.97.8.65 1.2 1.56 1.2 2.74 0 .76-.17 1.4-.52 1.93a3.5 3.5 0 0 1-1.45 1.23l2.19 3.95a.4.4 0 0 1 .04.18c0 .08-.03.16-.1.23a.31.31 0 0 1-.23.1h-2.29a.67.67 0 0 1-.66-.43l-1.78-3.52h-1.56v3.55a.4.4 0 0 1-.12.3.42.42 0 0 1-.3.1zm4.44-6.33c.46 0 .82-.11 1.06-.34a1.27 1.27 0 0 0 .37-.97c0-.4-.13-.74-.37-.99-.24-.24-.6-.37-1.06-.37h-1.8v2.68zm0 0" aria-label="R"/><path fill="#14110f" d="M14.92 57.98h38.07V15.62H14.92Z"/><path fill="#14110f" d="M55.5 57.15v8.45a.98.98 0 0 1-.98.98H39.94a.98.98 0 0 1-.98-.98v-8.45a.98.98 0 0 1 .98-.97h14.58a.98.98 0 0 1 .98.97"/><path fill="#cfcfcf" d="M54.18 57.56v7.4a.58.58 0 0 1-.58.58H40.86a.58.58 0 0 1-.58-.58v-7.4c0-.32.26-.58.58-.58H53.6c.32 0 .59.26.59.58"/><path fill="#14110f" d="M55.5 46.97v8.24a.97.97 0 0 1-.97.97h-14.6a.97.97 0 0 1-.96-.97v-8.24a.97.97 0 0 1 .96-.97h14.6a.97.97 0 0 1 .97.97"/><path fill="#cfcfcf" d="M54.18 47.4v7.39a.58.58 0 0 1-.58.58H40.86a.58.58 0 0 1-.58-.58v-7.4c0-.32.26-.58.58-.58H53.6c.32 0 .59.26.59.58"/><path fill="#14110f" d="M38.97 47.8v14.07a1.23 1.23 0 0 1-1.24 1.24H23.66a1.23 1.23 0 0 1-1.23-1.24V47.81a1.23 1.23 0 0 1 1.23-1.24h14.07a1.24 1.24 0 0 1 1.24 1.24"/><path fill="#6f6f6e" d="M37.65 48.63v12.42a.74.74 0 0 1-.74.74H24.48a.74.74 0 0 1-.74-.74V48.63a.74.74 0 0 1 .74-.74h12.43a.74.74 0 0 1 .74.74"/><path fill="#14110f" d="M38.97 31.27v14.07a1.24 1.24 0 0 1-1.24 1.23H23.66a1.23 1.23 0 0 1-1.23-1.23V31.27a1.23 1.23 0 0 1 1.23-1.23h14.07a1.24 1.24 0 0 1 1.24 1.23"/><path fill="#6f6f6e" d="M37.65 32.1v12.42a.74.74 0 0 1-.74.74H24.48a.74.74 0 0 1-.74-.74V32.1a.74.74 0 0 1 .74-.74h12.43a.74.74 0 0 1 .74.74"/><path fill="#14110f" d="M38.97 14.74V28.8a1.24 1.24 0 0 1-1.24 1.24H23.66a1.23 1.23 0 0 1-1.23-1.24V14.74a1.24 1.24 0 0 1 1.23-1.23h14.07a1.24 1.24 0 0 1 1.24 1.23"/><path fill="#6f6f6e" d="M37.65 15.56v12.43a.74.74 0 0 1-.74.74H24.48a.74.74 0 0 1-.74-.74V15.56a.74.74 0 0 1 .74-.74h12.43a.74.74 0 0 1 .74.74"/><path fill="#14110f" d="M22.43 47.8v14.07a1.24 1.24 0 0 1-1.23 1.24H7.13a1.23 1.23 0 0 1-1.23-1.24V47.81a1.24 1.24 0 0 1 1.23-1.24H21.2a1.24 1.24 0 0 1 1.23 1.24"/><path fill="#6f6f6e" d="M21.12 48.63v12.42a.74.74 0 0 1-.74.74H7.95a.74.74 0 0 1-.74-.74V48.63a.74.74 0 0 1 .74-.74h12.43a.74.74 0 0 1 .74.74"/><path fill="#14110f" d="M22.43 31.27v14.07a1.24 1.24 0 0 1-1.23 1.23H7.13a1.24 1.24 0 0 1-1.23-1.23V31.27a1.24 1.24 0 0 1 1.23-1.23H21.2a1.24 1.24 0 0 1 1.23 1.23"/><path fill="#6f6f6e" d="M21.12 32.1v12.42a.74.74 0 0 1-.74.74H7.95a.74.74 0 0 1-.74-.74V32.1a.74.74 0 0 1 .74-.74h12.43a.74.74 0 0 1 .74.74"/><path fill="#14110f" d="M22.43 14.74V28.8a1.24 1.24 0 0 1-1.23 1.24H7.13A1.24 1.24 0 0 1 5.9 28.8V14.74a1.24 1.24 0 0 1 1.23-1.23H21.2a1.24 1.24 0 0 1 1.23 1.23"/><path fill="#6f6f6e" d="M21.12 15.56v12.43a.74.74 0 0 1-.74.74H7.95a.74.74 0 0 1-.74-.74V15.56a.74.74 0 0 1 .74-.74h12.43a.74.74 0 0 1 .74.74"/><path fill="#14110f" d="M55.5 19.02v6.96a.9.9 0 0 1-.9.9H39.86a.9.9 0 0 1-.9-.9v-6.95a.9.9 0 0 1 .9-.9H54.6a.9.9 0 0 1 .9.9"/><path fill="#fff" d="M54.18 19.36v6.28c0 .3-.23.54-.53.54H40.8a.54.54 0 0 1-.53-.54v-6.28c0-.3.24-.54.54-.54h12.83c.3 0 .53.24.53.54"/><path fill="#14110f" d="M55.5 10.05v7.33a.92.92 0 0 1-.93.93H39.75a.92.92 0 0 1-.93-.93v-7.33a.92.92 0 0 1 .93-.92h14.83a.92.92 0 0 1 .92.92"/><path fill="#fff" d="M54.18 10.6v6.3c0 .29-.23.53-.53.53H40.8a.54.54 0 0 1-.53-.54v-6.28c0-.3.24-.54.54-.54h12.83c.3 0 .53.24.53.54"/><path fill="#14110f" d="M55.5 57.14s0-.91-.28-1.26c-.27-.35-1.04.3-1.04.3Zm0-10.17s0-1.1-.28-1.26c-.27-.15-1.19.3-1.19.3Zm0-9.74v-3.48l-3.42 2.09Zm0-11.25s.02.89-.25 1.18c-.26.29-1.46-.28-1.46-.28zm0-8.75s0 .88-.26 1.16c-.25.29-1.06 0-1.06 0z"/><path fill="#14110f" d="M55.5 36.8v8.24a.97.97 0 0 1-.97.96h-14.6a.97.97 0 0 1-.96-.96V36.8a.97.97 0 0 1 .96-.97h14.6a.97.97 0 0 1 .97.97"/><path fill="#cfcfcf" d="M54.18 37.23v7.39a.58.58 0 0 1-.58.58H40.86a.58.58 0 0 1-.58-.58v-7.4c0-.32.26-.58.58-.58H53.6c.32 0 .59.26.59.58"/><path fill="#14110f" d="M55.5 27.77v6.96a.9.9 0 0 1-.9.9H39.86a.9.9 0 0 1-.9-.9v-6.96a.9.9 0 0 1 .9-.9H54.6a.9.9 0 0 1 .9.9"/><path fill="#fff" d="M54.18 28.1v6.29c0 .3-.23.54-.53.54H40.8a.54.54 0 0 1-.53-.54v-6.28c0-.3.24-.54.54-.54h12.83c.3 0 .53.24.53.54"/><path fill="none" stroke="#fff" stroke-linecap="round" stroke-linejoin="round" stroke-miterlimit="10" stroke-width="4.32" d="m45.97 63.2-1.67-.66c4.52-11.58 5.09-26.84 1.57-42.01l-2.6.7 1.87-6.94 5.06 5.08-2.6.7A88.56 88.56 0 0 1 49.95 40c0 8.46-1.33 16.43-3.98 23.19Z"/><path fill="none" stroke="#1d1d1b" stroke-linecap="round" stroke-linejoin="round" stroke-miterlimit="10" stroke-width="2.88" d="m45.97 63.2-1.67-.66c4.52-11.58 5.09-26.84 1.57-42.01l-2.6.7 1.87-6.94 5.06 5.08-2.6.7A88.56 88.56 0 0 1 49.95 40c0 8.46-1.33 16.43-3.98 23.19Z"/><path fill="none" stroke="#e40428" stroke-miterlimit="10" stroke-width="2.16" d="M45.15 62.67c4.57-11.68 5.3-27.23 1.42-43.34"/><path fill="#e40428" d="m50.46 19.44-5.31-5.34-1.97 7.27z"/></svg>