<svg xmlns="http://www.w3.org/2000/svg" viewBox="0 0 68.4 99"><path fill="#e40428" d="M64.42 91.8H11.14a3.96 3.96 0 0 1-3.96-3.96V3.95a3.96 3.96 0 0 1 3.96-3.96h53.28a3.96 3.96 0 0 1 3.96 3.96v83.89a3.96 3.96 0 0 1-3.96 3.95"/><path fill="#e93653" d="M68.38 76.7v11.12c0 2.2-1.78 3.97-3.98 3.97H11.15a3.97 3.97 0 0 1-3.97-3.97V67.36"/><path fill="#fff" d="M58.66 97.55H5.38a3.96 3.96 0 0 1-3.96-3.96V9.71a3.96 3.96 0 0 1 3.96-3.96h53.28a3.96 3.96 0 0 1 3.96 3.96v83.88a3.96 3.96 0 0 1-3.96 3.96"/><path fill="#e40428" d="M57.22 98.99H3.94a3.96 3.96 0 0 1-3.96-3.96V11.15a3.96 3.96 0 0 1 3.96-3.96h53.28a3.96 3.96 0 0 1 3.96 3.96v83.88A3.96 3.96 0 0 1 57.22 99"/><path fill="#fff" d="M21.96 94.83a.4.4 0 0 1-.29-.12.4.4 0 0 1-.12-.29v-10.5a.4.4 0 0 1 .11-.3.4.4 0 0 1 .3-.13h4.45c1.43 0 2.54.32 3.34.97.8.65 1.21 1.56 1.21 2.74 0 .75-.17 1.4-.52 1.92-.36.53-.84.95-1.46 1.24l2.2 3.95a.4.4 0 0 1 .04.18c0 .08-.03.16-.1.23a.31.31 0 0 1-.24.1H28.6a.67.67 0 0 1-.66-.43l-1.78-3.52H24.6v3.55a.4.4 0 0 1-.12.3.42.42 0 0 1-.3.1zm4.44-6.34c.46 0 .81-.11 1.05-.35a1.27 1.27 0 0 0 .37-.96c0-.4-.12-.74-.37-.99-.24-.24-.6-.37-1.05-.37h-1.8v2.67zm6.38 6.34a.39.39 0 0 1-.29-.12.4.4 0 0 1-.12-.29V93.2a1 1 0 0 1 .4-.8l1.51-1.48a82.47 82.47 0 0 0 2.32-1.8 8.13 8.13 0 0 0 1.2-1.18c.28-.35.42-.69.42-1 0-.8-.4-1.2-1.2-1.2-.42 0-.75.13-.97.38a1.98 1.98 0 0 0-.46.95c-.06.25-.25.37-.55.37H32.9a.35.35 0 0 1-.25-.1.33.33 0 0 1-.1-.24c.02-.71.22-1.35.59-1.93a3.9 3.9 0 0 1 1.56-1.38 5.03 5.03 0 0 1 2.32-.51c.9 0 1.69.14 2.35.44a3.32 3.32 0 0 1 1.5 1.23c.33.53.5 1.14.5 1.84 0 .78-.24 1.48-.72 2.11-.48.63-1.21 1.3-2.2 2.04l-1.34 1.34h4.1a.4.4 0 0 1 .4.41v1.73c0 .1-.03.2-.11.29a.38.38 0 0 1-.29.12zm0 0" aria-label="R2"/><path fill="#14110f" d="M14.98 65.3h38.08V22.94H14.98Z"/><path fill="#14110f" d="M55.56 64.47v8.45a.98.98 0 0 1-.98.98H40.01a.98.98 0 0 1-.98-.98v-8.45a.98.98 0 0 1 .98-.98h14.58a.98.98 0 0 1 .98.98"/><path fill="#cfcfcf" d="M54.25 64.88v7.4a.58.58 0 0 1-.58.58H40.92a.58.58 0 0 1-.58-.58v-7.4c0-.32.26-.58.58-.58h12.75c.32 0 .58.26.58.58"/><path fill="#14110f" d="M55.56 54.3v8.23a.97.97 0 0 1-.96.96H40a.97.97 0 0 1-.97-.96v-8.24a.97.97 0 0 1 .97-.96h14.6a.97.97 0 0 1 .96.96"/><path fill="#cfcfcf" d="M54.25 54.71v7.4a.58.58 0 0 1-.58.58H40.92a.58.58 0 0 1-.58-.58v-7.4c0-.31.26-.58.58-.58h12.75c.32 0 .58.26.58.59"/><path fill="#14110f" d="M39.03 55.13v14.06a1.24 1.24 0 0 1-1.23 1.24H23.73a1.23 1.23 0 0 1-1.23-1.24V55.13a1.23 1.23 0 0 1 1.23-1.24H37.8a1.24 1.24 0 0 1 1.23 1.24"/><path fill="#6f6f6e" d="M37.72 55.95v12.42a.74.74 0 0 1-.74.74H24.55a.74.74 0 0 1-.74-.74V55.95a.74.74 0 0 1 .74-.75h12.43a.74.74 0 0 1 .74.75"/><path fill="#14110f" d="M39.03 38.6v14.06a1.24 1.24 0 0 1-1.23 1.23H23.73a1.23 1.23 0 0 1-1.23-1.23V38.59a1.24 1.24 0 0 1 1.23-1.23H37.8a1.24 1.24 0 0 1 1.23 1.23"/><path fill="#6f6f6e" d="M37.72 39.41v12.43a.74.74 0 0 1-.74.74H24.55a.74.74 0 0 1-.74-.74V39.4a.74.74 0 0 1 .74-.74h12.43a.74.74 0 0 1 .74.74"/><path fill="#14110f" d="M39.03 22.06v14.07a1.23 1.23 0 0 1-1.23 1.23H23.73a1.23 1.23 0 0 1-1.23-1.23V22.06a1.23 1.23 0 0 1 1.23-1.23H37.8a1.24 1.24 0 0 1 1.23 1.23"/><path fill="#6f6f6e" d="M37.72 22.88V35.3a.74.74 0 0 1-.74.74H24.55a.74.74 0 0 1-.74-.74V22.88a.74.74 0 0 1 .74-.74h12.43a.74.74 0 0 1 .74.74"/><path fill="#14110f" d="M22.5 55.13v14.06a1.24 1.24 0 0 1-1.24 1.24H7.2a1.24 1.24 0 0 1-1.23-1.24V55.13a1.24 1.24 0 0 1 1.23-1.24h14.06a1.24 1.24 0 0 1 1.24 1.24"/><path fill="#6f6f6e" d="M21.18 55.95v12.42a.74.74 0 0 1-.74.74H8.02a.74.74 0 0 1-.74-.74V55.95a.74.74 0 0 1 .74-.75h12.42a.74.74 0 0 1 .74.75"/><path fill="#14110f" d="M22.5 38.6v14.06a1.24 1.24 0 0 1-1.24 1.23H7.2a1.24 1.24 0 0 1-1.23-1.23V38.59a1.24 1.24 0 0 1 1.23-1.23h14.06a1.24 1.24 0 0 1 1.24 1.23"/><path fill="#6f6f6e" d="M21.18 39.41v12.43a.74.74 0 0 1-.74.74H8.02a.74.74 0 0 1-.74-.74V39.4a.74.74 0 0 1 .74-.74h12.42a.74.74 0 0 1 .74.74"/><path fill="#14110f" d="M22.5 22.06v14.07a1.24 1.24 0 0 1-1.24 1.23H7.2a1.23 1.23 0 0 1-1.23-1.23V22.06a1.24 1.24 0 0 1 1.23-1.23h14.06a1.24 1.24 0 0 1 1.24 1.23"/><path fill="#6f6f6e" d="M21.18 22.88V35.3a.74.74 0 0 1-.74.74H8.02a.74.74 0 0 1-.74-.74V22.88a.74.74 0 0 1 .74-.74h12.42a.74.74 0 0 1 .74.74"/><path fill="#14110f" d="M55.56 26.34v6.96a.9.9 0 0 1-.9.9H39.94a.9.9 0 0 1-.9-.9v-6.96a.9.9 0 0 1 .9-.9h14.74a.9.9 0 0 1 .9.9"/><path fill="#fff" d="M54.25 26.68v6.28c0 .3-.24.54-.54.54H40.88a.54.54 0 0 1-.54-.54v-6.28c0-.3.24-.54.54-.54h12.83c.3 0 .54.24.54.54"/><path fill="#14110f" d="M55.56 17.37v7.33a.92.92 0 0 1-.92.93H39.82a.92.92 0 0 1-.93-.93v-7.33a.92.92 0 0 1 .93-.92h14.82a.92.92 0 0 1 .93.92"/><path fill="#fff" d="M54.25 17.93v6.28c0 .3-.24.54-.54.54H40.88a.54.54 0 0 1-.54-.54v-6.28c0-.3.24-.54.54-.54h12.83c.3 0 .54.24.54.54"/><path fill="#14110f" d="M55.56 64.46s0-.91-.27-1.26-1.04.3-1.04.3Zm0-10.17s0-1.1-.27-1.25c-.27-.16-1.2.29-1.2.29Zm0-9.74v-3.48l-3.42 2.09Zm0-11.25s.02.89-.24 1.18c-.26.3-1.47-.29-1.47-.29zm0-8.75s0 .88-.25 1.16c-.25.29-1.06 0-1.06 0z"/><path fill="#14110f" d="M55.56 44.12v8.24a.97.97 0 0 1-.96.97H40a.97.97 0 0 1-.97-.97v-8.24a.97.97 0 0 1 .97-.96h14.6a.97.97 0 0 1 .96.96"/><path fill="#cfcfcf" d="M54.25 44.54v7.4a.58.58 0 0 1-.58.58H40.92a.58.58 0 0 1-.58-.58v-7.4c0-.32.26-.58.58-.58h12.75c.32 0 .58.26.58.58"/><path fill="#14110f" d="M55.56 35.1v6.95a.9.9 0 0 1-.9.9H39.94a.9.9 0 0 1-.9-.9v-6.96a.9.9 0 0 1 .9-.9h14.74a.9.9 0 0 1 .9.9"/><path fill="#fff" d="M54.25 35.43v6.28c0 .3-.24.54-.54.54H40.88a.54.54 0 0 1-.54-.54v-6.28c0-.3.24-.54.54-.54h12.83c.3 0 .54.24.54.54"/><path fill="none" stroke="#fff" stroke-linecap="round" stroke-linejoin="round" stroke-miterlimit="10" stroke-width="4.32" d="m46.04 70.52-1.68-.66c4.53-11.58 5.1-26.83 1.58-42.01l-2.6.69 1.86-6.93 5.07 5.08-2.6.7a88.56 88.56 0 0 1 2.35 19.94c0 8.46-1.34 16.43-3.98 23.19Z"/><path fill="none" stroke="#1d1d1b" stroke-linecap="round" stroke-linejoin="round" stroke-miterlimit="10" stroke-width="2.88" d="m46.04 70.52-1.68-.66c4.53-11.58 5.1-26.83 1.58-42.01l-2.6.69 1.86-6.93 5.07 5.08-2.6.7a88.56 88.56 0 0 1 2.35 19.94c0 8.46-1.34 16.43-3.98 23.19Z"/><path fill="none" stroke="#e40428" stroke-miterlimit="10" stroke-width="2.16" d="M45.21 70c4.57-11.7 5.31-27.24 1.42-43.35"/><path fill="#e40428" d="m50.53 26.76-5.32-5.34-1.97 7.27z"/></svg>