<svg xmlns="http://www.w3.org/2000/svg" viewBox="0 0 61.01 91.52"><path fill="#e93653" d="M57.14 91.65H3.84A3.95 3.95 0 0 1-.1 87.69V3.81A3.95 3.95 0 0 1 3.85-.15h53.29a3.95 3.95 0 0 1 3.95 3.96v83.88a3.96 3.96 0 0 1-3.95 3.96"/><path fill="#e40428" d="M61.1 76.57v11.1c0 2.2-1.79 3.98-3.98 3.98H3.87a3.97 3.97 0 0 1-3.98-3.97V67.22"/><path fill="#fff" d="M25.01 87.5a.4.4 0 0 1-.29-.13.4.4 0 0 1-.11-.29v-10.5c0-.12.03-.22.1-.3a.38.38 0 0 1 .3-.13h4.45a5.2 5.2 0 0 1 3.35.97c.8.65 1.2 1.57 1.2 2.74 0 .76-.17 1.4-.52 1.93s-.84.94-1.45 1.23l2.19 3.95a.34.34 0 0 1-.05.42.31.31 0 0 1-.24.1h-2.3a.67.67 0 0 1-.65-.44l-1.78-3.51h-1.56v3.54a.4.4 0 0 1-.12.3.41.41 0 0 1-.3.11zm4.44-6.34c.46 0 .81-.12 1.06-.35a1.27 1.27 0 0 0 .36-.96c0-.42-.12-.74-.36-1-.25-.24-.6-.36-1.06-.36h-1.8v2.67zm6.26-.99a.3.3 0 0 1-.23-.1c-.06-.06-.08-.15-.07-.27l.5-3.24c.03-.16.1-.3.2-.4.09-.11.22-.16.4-.16h1.97c.09 0 .16.03.22.1a.3.3 0 0 1 .09.22c0 .06-.01.12-.03.17l-1.25 3.23a.83.83 0 0 1-.24.33.55.55 0 0 1-.37.12zm0 0" aria-label="R’"/><path fill="#14110f" d="M14.9 57.96h38.07V15.61H14.9Z"/><path fill="#14110f" d="M55.47 57.14v8.44a.98.98 0 0 1-.97.98H39.92a.98.98 0 0 1-.98-.98v-8.44a.98.98 0 0 1 .98-.98H54.5a.98.98 0 0 1 .98.98"/><path fill="#cfcfcf" d="M54.16 57.55v7.4a.58.58 0 0 1-.58.57H40.83a.58.58 0 0 1-.58-.58v-7.4c0-.31.26-.57.58-.57h12.75c.32 0 .58.26.58.58"/><path fill="#14110f" d="M55.47 46.96v8.23a.97.97 0 0 1-.96.97H39.9a.97.97 0 0 1-.97-.97v-8.23a.97.97 0 0 1 .97-.97h14.6a.97.97 0 0 1 .96.97"/><path fill="#cfcfcf" d="M54.16 47.38v7.39a.58.58 0 0 1-.58.58H40.83a.58.58 0 0 1-.58-.58v-7.4c0-.32.26-.58.58-.58h12.75c.32 0 .58.26.58.59"/><path fill="#14110f" d="M38.94 47.8v14.06a1.23 1.23 0 0 1-1.23 1.23H23.64a1.23 1.23 0 0 1-1.23-1.23V47.79a1.23 1.23 0 0 1 1.23-1.23h14.07a1.24 1.24 0 0 1 1.23 1.23"/><path fill="#6f6f6e" d="M37.63 48.61v12.43a.74.74 0 0 1-.74.74H24.46a.74.74 0 0 1-.74-.74V48.6a.74.74 0 0 1 .74-.74h12.42a.74.74 0 0 1 .75.74"/><path fill="#14110f" d="M38.94 31.26v14.06a1.24 1.24 0 0 1-1.23 1.24H23.64a1.23 1.23 0 0 1-1.23-1.24V31.26a1.23 1.23 0 0 1 1.23-1.24h14.07a1.24 1.24 0 0 1 1.23 1.24"/><path fill="#6f6f6e" d="M37.63 32.08V44.5a.74.74 0 0 1-.74.74H24.46a.74.74 0 0 1-.74-.74V32.08a.74.74 0 0 1 .74-.74h12.42a.74.74 0 0 1 .75.74"/><path fill="#14110f" d="M38.94 14.72V28.8a1.24 1.24 0 0 1-1.23 1.23H23.64a1.23 1.23 0 0 1-1.23-1.23V14.72a1.24 1.24 0 0 1 1.23-1.23h14.07a1.24 1.24 0 0 1 1.23 1.23"/><path fill="#6f6f6e" d="M37.63 15.54v12.43a.74.74 0 0 1-.74.74H24.46a.74.74 0 0 1-.74-.74V15.54a.74.74 0 0 1 .74-.74h12.42a.74.74 0 0 1 .75.74"/><path fill="#14110f" d="M22.41 47.8v14.06a1.24 1.24 0 0 1-1.24 1.23H7.11a1.23 1.23 0 0 1-1.23-1.23V47.79a1.24 1.24 0 0 1 1.23-1.23h14.06a1.24 1.24 0 0 1 1.24 1.23"/><path fill="#6f6f6e" d="M21.1 48.61v12.43a.74.74 0 0 1-.75.74H7.93a.74.74 0 0 1-.74-.74V48.6a.74.74 0 0 1 .74-.74h12.42a.74.74 0 0 1 .74.74"/><path fill="#14110f" d="M22.41 31.26v14.06a1.24 1.24 0 0 1-1.24 1.24H7.11a1.24 1.24 0 0 1-1.23-1.24V31.26a1.24 1.24 0 0 1 1.23-1.24h14.06a1.24 1.24 0 0 1 1.24 1.24"/><path fill="#6f6f6e" d="M21.1 32.08V44.5a.74.74 0 0 1-.75.74H7.93a.74.74 0 0 1-.74-.74V32.08a.74.74 0 0 1 .74-.74h12.42a.74.74 0 0 1 .74.74"/><path fill="#14110f" d="M22.41 14.72V28.8a1.24 1.24 0 0 1-1.24 1.23H7.11a1.24 1.24 0 0 1-1.23-1.23V14.72A1.24 1.24 0 0 1 7.1 13.5h14.06a1.24 1.24 0 0 1 1.24 1.23"/><path fill="#6f6f6e" d="M21.1 15.54v12.43a.74.74 0 0 1-.75.74H7.93a.74.74 0 0 1-.74-.74V15.54a.74.74 0 0 1 .74-.74h12.42a.74.74 0 0 1 .74.74"/><path fill="#14110f" d="M55.47 19v6.96a.9.9 0 0 1-.9.9H39.85a.9.9 0 0 1-.9-.9v-6.95a.9.9 0 0 1 .9-.9h14.74a.9.9 0 0 1 .9.9"/><path fill="#fff" d="M54.16 19.34v6.28c0 .3-.24.54-.54.54H40.8a.54.54 0 0 1-.53-.54v-6.28c0-.3.23-.53.53-.53h12.83c.3 0 .54.23.54.53"/><path fill="#14110f" d="M55.47 10.03v7.34a.92.92 0 0 1-.92.92H39.73a.92.92 0 0 1-.93-.93v-7.32c0-.52.42-.93.93-.93h14.82a.92.92 0 0 1 .93.93"/><path fill="#fff" d="M54.16 10.6v6.28c0 .3-.24.53-.54.53H40.8a.54.54 0 0 1-.53-.53V10.6c0-.3.23-.54.53-.54h12.83c.3 0 .54.24.54.54"/><path fill="#14110f" d="M55.47 57.13s0-.92-.27-1.27-1.04.3-1.04.3Zm0-10.17s0-1.1-.27-1.26c-.27-.16-1.2.29-1.2.29Zm0-9.75v-3.47l-3.42 2.08Zm0-11.25s.03.89-.24 1.18c-.26.3-1.47-.28-1.47-.28zm0-8.75s0 .89-.25 1.17c-.25.28-1.06 0-1.06 0z"/><path fill="#14110f" d="M55.47 36.79v8.23a.97.97 0 0 1-.96.97H39.9a.97.97 0 0 1-.97-.97V36.8a.97.97 0 0 1 .97-.97h14.6a.97.97 0 0 1 .96.97"/><path fill="#cfcfcf" d="M54.16 37.2v7.4a.58.58 0 0 1-.58.58H40.83a.58.58 0 0 1-.58-.58v-7.4c0-.31.26-.57.58-.57h12.75c.32 0 .58.26.58.58"/><path fill="#14110f" d="M55.47 27.75v6.96a.9.9 0 0 1-.9.9H39.85a.9.9 0 0 1-.9-.9v-6.95a.9.9 0 0 1 .9-.9h14.74a.9.9 0 0 1 .9.9"/><path fill="#fff" d="M54.16 28.1v6.27c0 .3-.24.54-.54.54H40.8a.54.54 0 0 1-.53-.54V28.1c0-.3.23-.54.53-.54h12.83c.3 0 .54.24.54.54"/><path fill="none" stroke="#fff" stroke-linecap="round" stroke-linejoin="round" stroke-miterlimit="10" stroke-width="4.32" d="m45.95 14.08-1.68.65c4.53 11.58 5.1 26.84 1.58 42.02l-2.6-.7L45.1 63l5.07-5.08-2.6-.7a88.56 88.56 0 0 0 2.35-19.94c0-8.46-1.33-16.43-3.98-23.19Z"/><path fill="none" stroke="#1d1d1b" stroke-linecap="round" stroke-linejoin="round" stroke-miterlimit="10" stroke-width="2.88" d="m45.95 14.08-1.68.65c4.53 11.58 5.1 26.84 1.58 42.02l-2.6-.7L45.1 63l5.07-5.08-2.6-.7a88.56 88.56 0 0 0 2.35-19.94c0-8.46-1.33-16.43-3.98-23.19Z"/><path fill="none" stroke="#e40428" stroke-miterlimit="10" stroke-width="2.16" d="M45.12 14.6c4.57 11.7 5.31 27.24 1.42 43.35"/><path fill="#e40428" d="m43.16 55.9 1.96 7.28 5.32-5.34Z"/></svg>