<svg xmlns="http://www.w3.org/2000/svg" viewBox="0 0 61.02 91.52"><path fill="#0053a1" d="M57.15 91.66H3.86A3.96 3.96 0 0 1-.09 87.7V3.81A3.96 3.96 0 0 1 3.86-.14h53.29A3.96 3.96 0 0 1 61.1 3.8v83.9a3.96 3.96 0 0 1-3.96 3.96"/><path fill="#3375b4" d="M61.1 76.57v11.11c0 2.2-1.78 3.98-3.97 3.98H3.88A3.97 3.97 0 0 1-.1 87.68V67.23"/><path fill="#fff" d="M31.33 87.65a5.36 5.36 0 0 1-3.6-1.11c-.87-.75-1.3-1.86-1.3-3.35v-6.61c0-.12.03-.22.1-.3a.38.38 0 0 1 .3-.12h2.22c.11 0 .21.04.3.12a.4.4 0 0 1 .12.3v6.57c0 .67.16 1.18.47 1.51.32.34.78.5 1.37.5.6 0 1.05-.17 1.37-.5.32-.35.48-.85.48-1.5v-6.58a.4.4 0 0 1 .12-.3.4.4 0 0 1 .3-.12h2.2a.4.4 0 0 1 .3.12.4.4 0 0 1 .13.3v6.6c0 1.5-.44 2.61-1.3 3.36a5.3 5.3 0 0 1-3.58 1.11zm0 0" aria-label="U"/><path fill="#14110f" d="M52.92 52.76H10.56V14.7h42.36z"/><path fill="#14110f" d="M11.39 12.19H2.94a.98.98 0 0 0-.98.98v14.57a.98.98 0 0 0 .98.98h8.45a.98.98 0 0 0 .97-.98V13.17a.98.98 0 0 0-.97-.98"/><path fill="#cfcfcf" d="M10.98 13.5h-7.4a.58.58 0 0 0-.58.58v12.75c0 .32.26.58.59.58h7.39a.58.58 0 0 0 .58-.58V14.08a.58.58 0 0 0-.58-.58"/><path fill="#14110f" d="M21.57 12.19h-8.24a.97.97 0 0 0-.97.96v14.6a.97.97 0 0 0 .97.97h8.24a.97.97 0 0 0 .96-.97v-14.6a.97.97 0 0 0-.96-.96"/><path fill="#cfcfcf" d="M21.15 13.5h-7.4a.58.58 0 0 0-.58.58v12.75c0 .32.26.58.58.58h7.4a.58.58 0 0 0 .58-.58V14.08a.58.58 0 0 0-.58-.58"/><path fill="#14110f" d="M20.73 28.72H6.67a1.23 1.23 0 0 0-1.24 1.23v14.07a1.23 1.23 0 0 0 1.24 1.23h14.06a1.24 1.24 0 0 0 1.24-1.23V29.95a1.24 1.24 0 0 0-1.24-1.23"/><path fill="#6f6f6e" d="M19.91 30.03H7.5a.74.74 0 0 0-.74.74V43.2a.74.74 0 0 0 .74.74h12.4a.74.74 0 0 0 .74-.74V30.77a.74.74 0 0 0-.74-.74"/><path fill="#14110f" d="M37.26 28.72H23.2a1.23 1.23 0 0 0-1.23 1.23v14.07a1.23 1.23 0 0 0 1.23 1.23h14.07a1.23 1.23 0 0 0 1.23-1.23V29.95a1.23 1.23 0 0 0-1.23-1.23"/><path fill="#6f6f6e" d="M36.45 30.03H24.02a.74.74 0 0 0-.74.74V43.2a.74.74 0 0 0 .74.74h12.43a.74.74 0 0 0 .74-.74V30.77a.74.74 0 0 0-.74-.74"/><path fill="#14110f" d="M53.8 28.72H39.74a1.23 1.23 0 0 0-1.24 1.23v14.07a1.23 1.23 0 0 0 1.24 1.23H53.8a1.23 1.23 0 0 0 1.23-1.23V29.95a1.23 1.23 0 0 0-1.23-1.23"/><path fill="#6f6f6e" d="M52.98 30.03H40.56a.74.74 0 0 0-.75.74V43.2a.74.74 0 0 0 .75.74h12.42a.74.74 0 0 0 .74-.74V30.77a.74.74 0 0 0-.74-.74"/><path fill="#14110f" d="M20.73 45.25H6.67a1.23 1.23 0 0 0-1.24 1.24v14.06a1.23 1.23 0 0 0 1.24 1.23h14.06a1.23 1.23 0 0 0 1.24-1.23V46.5a1.24 1.24 0 0 0-1.24-1.24"/><path fill="#6f6f6e" d="M19.91 46.57H7.5a.74.74 0 0 0-.74.74v12.42a.74.74 0 0 0 .74.74h12.4a.74.74 0 0 0 .74-.74V47.31a.74.74 0 0 0-.74-.74"/><path fill="#14110f" d="M37.26 45.25H23.2a1.23 1.23 0 0 0-1.23 1.24v14.06a1.23 1.23 0 0 0 1.23 1.23h14.07a1.23 1.23 0 0 0 1.23-1.23V46.5a1.23 1.23 0 0 0-1.23-1.24"/><path fill="#6f6f6e" d="M36.45 46.57H24.02a.74.74 0 0 0-.74.74v12.42a.74.74 0 0 0 .74.74h12.43a.74.74 0 0 0 .74-.74V47.31a.74.74 0 0 0-.74-.74"/><path fill="#14110f" d="M53.8 45.25H39.74a1.23 1.23 0 0 0-1.24 1.24v14.06a1.23 1.23 0 0 0 1.24 1.23H53.8a1.23 1.23 0 0 0 1.23-1.23V46.5a1.23 1.23 0 0 0-1.23-1.24"/><path fill="#6f6f6e" d="M52.98 46.57H40.56a.74.74 0 0 0-.75.74v12.42a.74.74 0 0 0 .75.74h12.42a.74.74 0 0 0 .74-.74V47.31a.74.74 0 0 0-.74-.74"/><path fill="#14110f" d="M49.51 12.19h-6.95a.9.9 0 0 0-.9.9v14.73a.9.9 0 0 0 .9.9h6.96a.9.9 0 0 0 .9-.9V13.08a.9.9 0 0 0-.9-.9"/><path fill="#fff" d="M49.18 13.5H42.9c-.3 0-.54.24-.54.54v12.83c0 .3.24.53.54.53h6.28c.3 0 .54-.23.54-.53V14.04c0-.3-.24-.54-.54-.54"/><path fill="#14110f" d="M58.5 12.19h-7.34a.92.92 0 0 0-.93.92v14.83c0 .5.42.92.93.92h7.33a.92.92 0 0 0 .92-.93V13.11a.93.93 0 0 0-.92-.93"/><path fill="#fff" d="M57.93 13.5h-6.28c-.3 0-.54.24-.54.54v12.83c0 .3.24.53.54.53h6.28c.3 0 .54-.23.54-.53V14.04c0-.3-.24-.54-.54-.54"/><path fill="#14110f" d="M11.4 13.99s.91 0 1.26.27-.3 1.04-.3 1.04Zm10.17 0s1.1 0 1.26.27c.15.27-.3 1.2-.3 1.2Zm9.74 0h3.48L32.7 17.4Zm11.25 0s-.89-.03-1.18.24c-.29.27.28 1.47.28 1.47zm8.75 0s-.88 0-1.17.25c-.28.26 0 1.06 0 1.06z"/><path fill="#14110f" d="M31.73 12.19h-8.22a.97.97 0 0 0-.97.96v14.6a.97.97 0 0 0 .97.97h8.23a.97.97 0 0 0 .97-.97v-14.6a.97.97 0 0 0-.97-.96"/><path fill="#cfcfcf" d="M31.32 13.5h-7.4a.58.58 0 0 0-.58.58v12.75c0 .32.26.58.58.58h7.4a.58.58 0 0 0 .58-.58V14.08a.58.58 0 0 0-.58-.58"/><path fill="#14110f" d="M40.77 12.19H33.8a.9.9 0 0 0-.9.9v14.73a.9.9 0 0 0 .9.9h6.96a.9.9 0 0 0 .9-.9V13.08a.9.9 0 0 0-.9-.9"/><path fill="#fff" d="M40.43 13.5h-6.28c-.3 0-.54.24-.54.54v12.83c0 .3.24.53.54.53h6.28c.3 0 .54-.23.54-.53V14.04c0-.3-.24-.54-.54-.54"/><path fill="none" stroke="#fff" stroke-linecap="round" stroke-linejoin="round" stroke-miterlimit="10" stroke-width="4.32" d="m54.44 18.75-.65-1.68c-11.58 4.53-26.84 5.09-42.02 1.57l.7-2.6-6.93 1.87 5.08 5.07.7-2.6a88.56 88.56 0 0 0 19.93 2.34c8.47 0 16.43-1.33 23.2-3.97z"/><path fill="none" stroke="#1d1d1b" stroke-linecap="round" stroke-linejoin="round" stroke-miterlimit="10" stroke-width="2.88" d="m54.44 18.75-.65-1.68c-11.58 4.53-26.84 5.09-42.02 1.57l.7-2.6-6.93 1.87 5.08 5.07.7-2.6a88.56 88.56 0 0 0 19.93 2.34c8.47 0 16.43-1.33 23.2-3.97z"/><path fill="none" stroke="#e40428" stroke-miterlimit="10" stroke-width="2.16" d="M53.92 17.92c-11.69 4.57-27.24 5.3-43.34 1.42"/><path fill="#e40428" d="m12.62 15.95-7.28 1.97 5.34 5.31Z"/></svg>