<svg xmlns="http://www.w3.org/2000/svg" viewBox="0 0 68.4 99"><path fill="#0053a1" d="M64.43 91.8H11.14a3.96 3.96 0 0 1-3.96-3.96V3.96A3.96 3.96 0 0 1 11.14 0h53.29a3.95 3.95 0 0 1 3.95 3.96v83.88a3.96 3.96 0 0 1-3.95 3.96"/><path fill="#e40428" d="m21.7 16.81-7.28 1.97 5.34 5.32Z"/><path fill="#3375b4" d="M68.38 76.71v11.11c0 2.2-1.78 3.98-3.97 3.98H11.16a3.97 3.97 0 0 1-3.98-3.98V67.37"/><path fill="#fff" d="M58.67 97.55H5.38a3.96 3.96 0 0 1-3.95-3.95V9.7a3.96 3.96 0 0 1 3.95-3.95h53.29a3.95 3.95 0 0 1 3.96 3.95v83.9a3.96 3.96 0 0 1-3.96 3.95"/><path fill="#0053a1" d="M57.23 99H3.94A3.96 3.96 0 0 1 0 95.04V11.15A3.96 3.96 0 0 1 3.94 7.2h53.3a3.95 3.95 0 0 1 3.95 3.95v83.89A3.96 3.96 0 0 1 57.23 99"/><path fill="#14110f" d="M53 60.1H10.65V22.03H53z"/><path fill="#14110f" d="M11.47 19.53H3.02a.98.98 0 0 0-.98.98v14.57a.98.98 0 0 0 .98.98h8.45a.98.98 0 0 0 .98-.98V20.5a.98.98 0 0 0-.98-.98"/><path fill="#cfcfcf" d="M11.06 20.84h-7.4a.58.58 0 0 0-.58.58v12.74c0 .32.27.58.59.58h7.39a.58.58 0 0 0 .58-.58V21.42a.58.58 0 0 0-.58-.58"/><path fill="#14110f" d="M21.65 19.53h-8.23a.97.97 0 0 0-.97.96v14.6a.97.97 0 0 0 .97.97h8.23a.97.97 0 0 0 .97-.97v-14.6a.97.97 0 0 0-.97-.97"/><path fill="#cfcfcf" d="M21.23 20.84h-7.4a.58.58 0 0 0-.58.58v12.74c0 .32.26.58.59.58h7.39a.58.58 0 0 0 .58-.58V21.42a.58.58 0 0 0-.58-.58"/><path fill="#14110f" d="M20.81 36.06H6.75a1.24 1.24 0 0 0-1.23 1.23v14.07a1.23 1.23 0 0 0 1.23 1.23H20.8a1.24 1.24 0 0 0 1.24-1.23V37.29a1.24 1.24 0 0 0-1.24-1.23"/><path fill="#6f6f6e" d="M20 37.37H7.57a.74.74 0 0 0-.74.74v12.43a.74.74 0 0 0 .74.74H20a.74.74 0 0 0 .74-.74V38.1a.74.74 0 0 0-.74-.74"/><path fill="#14110f" d="M37.35 36.06H23.28a1.24 1.24 0 0 0-1.23 1.23v14.07a1.24 1.24 0 0 0 1.23 1.23h14.07a1.24 1.24 0 0 0 1.23-1.23V37.29a1.24 1.24 0 0 0-1.23-1.23"/><path fill="#6f6f6e" d="M36.53 37.37H24.1a.74.74 0 0 0-.74.74v12.43a.74.74 0 0 0 .74.74h12.43a.74.74 0 0 0 .74-.74V38.1a.74.74 0 0 0-.74-.74"/><path fill="#14110f" d="M53.88 36.06H39.82a1.24 1.24 0 0 0-1.24 1.23v14.07a1.23 1.23 0 0 0 1.24 1.23h14.06a1.24 1.24 0 0 0 1.24-1.23V37.29a1.24 1.24 0 0 0-1.24-1.23"/><path fill="#6f6f6e" d="M53.06 37.37H40.64a.74.74 0 0 0-.74.74v12.43a.74.74 0 0 0 .74.74h12.42a.74.74 0 0 0 .74-.74V38.1a.74.74 0 0 0-.74-.74"/><path fill="#14110f" d="M20.81 52.6H6.75a1.23 1.23 0 0 0-1.23 1.22V67.9a1.23 1.23 0 0 0 1.23 1.23H20.8a1.24 1.24 0 0 0 1.24-1.23V53.82a1.24 1.24 0 0 0-1.24-1.23"/><path fill="#6f6f6e" d="M20 53.9H7.57a.74.74 0 0 0-.74.74v12.43a.74.74 0 0 0 .74.74H20a.74.74 0 0 0 .74-.74V54.64a.74.74 0 0 0-.74-.74"/><path fill="#14110f" d="M37.35 52.6H23.28a1.23 1.23 0 0 0-1.23 1.22V67.9a1.23 1.23 0 0 0 1.23 1.23h14.07a1.23 1.23 0 0 0 1.23-1.23V53.82a1.23 1.23 0 0 0-1.23-1.23"/><path fill="#6f6f6e" d="M36.53 53.9H24.1a.74.74 0 0 0-.74.74v12.43a.74.74 0 0 0 .74.74h12.43a.74.74 0 0 0 .74-.74V54.64a.74.74 0 0 0-.74-.74"/><path fill="#14110f" d="M53.88 52.6H39.82a1.23 1.23 0 0 0-1.24 1.22V67.9a1.23 1.23 0 0 0 1.24 1.23h14.06a1.23 1.23 0 0 0 1.24-1.23V53.82a1.23 1.23 0 0 0-1.24-1.23"/><path fill="#6f6f6e" d="M53.06 53.9H40.64a.74.74 0 0 0-.74.74v12.43a.74.74 0 0 0 .74.74h12.42a.74.74 0 0 0 .74-.74V54.64a.74.74 0 0 0-.74-.74"/><path fill="#14110f" d="M49.6 19.53h-6.96a.9.9 0 0 0-.9.9v14.73a.9.9 0 0 0 .9.9h6.96a.9.9 0 0 0 .9-.9V20.42a.9.9 0 0 0-.9-.9"/><path fill="#fff" d="M49.26 20.84h-6.28c-.3 0-.54.24-.54.54V34.2c0 .3.24.53.54.53h6.28c.3 0 .54-.24.54-.53V21.38c0-.3-.24-.54-.54-.54"/><path fill="#14110f" d="M58.57 19.53h-7.33a.92.92 0 0 0-.93.92v14.82a.93.93 0 0 0 .93.93h7.33a.92.92 0 0 0 .93-.93V20.45a.92.92 0 0 0-.93-.93"/><path fill="#fff" d="M58.01 20.84h-6.28c-.3 0-.54.24-.54.54V34.2c0 .3.24.53.54.53h6.28c.3 0 .54-.24.54-.53V21.38c0-.3-.24-.54-.54-.54"/><path fill="#14110f" d="M11.48 21.33s.91 0 1.26.27-.3 1.04-.3 1.04Zm10.17 0s1.1 0 1.26.27c.15.27-.3 1.2-.3 1.2Zm9.74 0h3.48l-2.08 3.41Zm11.25 0s-.88-.03-1.18.24c-.29.26.29 1.46.29 1.46zm8.75 0s-.88 0-1.16.25c-.28.25 0 1.06 0 1.06z"/><path fill="#14110f" d="M31.82 19.53h-8.24a.97.97 0 0 0-.96.96v14.6a.97.97 0 0 0 .96.97h8.24a.97.97 0 0 0 .97-.97v-14.6a.97.97 0 0 0-.97-.97"/><path fill="#cfcfcf" d="M31.4 20.84H24a.58.58 0 0 0-.58.58v12.74c0 .32.26.58.58.58h7.4a.58.58 0 0 0 .58-.58V21.42a.58.58 0 0 0-.58-.58"/><path fill="#14110f" d="M40.85 19.53H33.9a.9.9 0 0 0-.9.9v14.73a.9.9 0 0 0 .9.9h6.95a.9.9 0 0 0 .9-.9V20.42a.9.9 0 0 0-.9-.9"/><path fill="#fff" d="M40.51 20.84h-6.28c-.3 0-.54.24-.54.54V34.2c0 .3.24.53.54.53h6.28c.3 0 .54-.24.54-.53V21.38c0-.3-.24-.54-.54-.54"/><path fill="none" stroke="#fff" stroke-linecap="round" stroke-linejoin="round" stroke-miterlimit="10" stroke-width="4.32" d="m54.53 26.8-.66-1.67c-11.58 4.52-26.84 5.09-42.01 1.57l.69-2.6-6.93 1.87 5.08 5.06.7-2.6a88.56 88.56 0 0 0 19.94 2.35c8.46 0 16.43-1.33 23.19-3.98z"/><path fill="none" stroke="#1d1d1b" stroke-linecap="round" stroke-linejoin="round" stroke-miterlimit="10" stroke-width="2.88" d="m54.53 26.8-.66-1.67c-11.58 4.52-26.84 5.09-42.01 1.57l.69-2.6-6.93 1.87 5.08 5.06.7-2.6a88.56 88.56 0 0 0 19.94 2.35c8.46 0 16.43-1.33 23.19-3.98z"/><path fill="none" stroke="#e40428" stroke-miterlimit="10" stroke-width="2.16" d="M54 25.98c-11.69 4.57-27.24 5.3-43.34 1.42"/><path fill="#e40428" d="m12.7 24-7.28 1.98 5.35 5.31Z"/><path fill="#3375b4" d="M61.19 83.9v11.12c0 2.2-1.78 3.98-3.98 3.98H3.96A3.98 3.98 0 0 1 0 95.02V74.57"/><path fill="#fff" d="M26.1 95a5.37 5.37 0 0 1-3.6-1.12c-.87-.75-1.3-1.86-1.3-3.35v-6.61c0-.12.03-.22.1-.3a.39.39 0 0 1 .3-.12h2.22a.4.4 0 0 1 .3.12.4.4 0 0 1 .12.3v6.57c0 .67.16 1.17.47 1.51.32.34.78.5 1.37.5.6 0 1.05-.17 1.37-.5.32-.35.48-.85.48-1.5v-6.58a.4.4 0 0 1 .12-.3.4.4 0 0 1 .3-.12h2.2a.4.4 0 0 1 .3.12.4.4 0 0 1 .13.3v6.6c0 1.5-.44 2.61-1.3 3.36A5.3 5.3 0 0 1 26.1 95zm6.95-.17a.42.42 0 0 1-.29-.12.4.4 0 0 1-.12-.28V93.2a1 1 0 0 1 .4-.8l1.52-1.48c1.02-.78 1.8-1.38 2.32-1.81a8.13 8.13 0 0 0 1.2-1.17c.27-.36.41-.7.41-1 0-.8-.4-1.2-1.2-1.2-.42 0-.74.13-.97.38a1.98 1.98 0 0 0-.45.95c-.07.24-.25.37-.55.37h-2.14a.35.35 0 0 1-.25-.1.33.33 0 0 1-.11-.24 3.6 3.6 0 0 1 .6-1.93 3.9 3.9 0 0 1 1.55-1.38 5.03 5.03 0 0 1 2.32-.51c.9 0 1.69.14 2.35.43a3.32 3.32 0 0 1 1.5 1.24c.33.53.5 1.14.5 1.84 0 .78-.23 1.48-.72 2.11-.47.62-1.2 1.3-2.2 2.04l-1.33 1.34h4.1a.4.4 0 0 1 .28.11.4.4 0 0 1 .12.3v1.73c0 .1-.04.2-.12.28a.38.38 0 0 1-.29.12zm0 0" aria-label="U2"/></svg>