<svg xmlns="http://www.w3.org/2000/svg" viewBox="0 0 61.05 91.58"><path fill="#3375b4" d="M3.88 91.68h53.28a3.96 3.96 0 0 0 3.96-3.96V3.84a3.96 3.96 0 0 0-3.95-3.96H3.88A3.96 3.96 0 0 0-.08 3.84v83.88a3.96 3.96 0 0 0 3.96 3.96"/><path fill="#14110f" d="M8.1 52.79h42.36V14.7H8.11Z"/><path fill="#14110f" d="M49.64 12.2h8.44a.98.98 0 0 1 .98.99v14.57a.98.98 0 0 1-.98.98h-8.44a.98.98 0 0 1-.98-.98V13.2a.98.98 0 0 1 .98-.98"/><path fill="#fff" d="M50.05 13.52h7.4c.31 0 .57.26.57.58v12.75a.58.58 0 0 1-.58.58h-7.4a.58.58 0 0 1-.57-.58V14.1c0-.32.26-.58.58-.58"/><path fill="#14110f" d="M39.46 12.2h8.23a.97.97 0 0 1 .97.98v14.6a.97.97 0 0 1-.97.96h-8.23a.97.97 0 0 1-.97-.97v-14.6a.97.97 0 0 1 .97-.96"/><path fill="#fff" d="M39.88 13.52h7.4c.31 0 .57.26.57.58v12.75a.58.58 0 0 1-.58.58h-7.4a.58.58 0 0 1-.57-.58V14.1c0-.32.26-.58.58-.58"/><path fill="#14110f" d="M40.3 28.74h14.06a1.23 1.23 0 0 1 1.23 1.23v14.07a1.23 1.23 0 0 1-1.23 1.23H40.29a1.23 1.23 0 0 1-1.23-1.23V29.97a1.24 1.24 0 0 1 1.23-1.23"/><path fill="#6f6f6e" d="M41.11 30.05h12.43a.74.74 0 0 1 .74.74v12.43a.74.74 0 0 1-.74.74H41.1a.74.74 0 0 1-.74-.74V30.8a.74.74 0 0 1 .74-.74"/><path fill="#14110f" d="M23.76 28.74h14.07a1.23 1.23 0 0 1 1.23 1.23v14.07a1.23 1.23 0 0 1-1.23 1.23H23.76a1.23 1.23 0 0 1-1.23-1.23V29.97a1.23 1.23 0 0 1 1.23-1.23"/><path fill="#6f6f6e" d="M24.58 30.05H37a.74.74 0 0 1 .74.74v12.43a.74.74 0 0 1-.74.74H24.58a.74.74 0 0 1-.74-.74V30.8a.74.74 0 0 1 .74-.74"/><path fill="#14110f" d="M7.23 28.74h14.06a1.23 1.23 0 0 1 1.24 1.23v14.07a1.23 1.23 0 0 1-1.24 1.23H7.23a1.23 1.23 0 0 1-1.24-1.23V29.97a1.24 1.24 0 0 1 1.24-1.23"/><path fill="#6f6f6e" d="M8.05 30.05h12.42a.74.74 0 0 1 .74.74v12.43a.74.74 0 0 1-.74.74H8.05a.74.74 0 0 1-.74-.74V30.8a.74.74 0 0 1 .74-.74"/><path fill="#14110f" d="M40.3 45.27h14.06a1.23 1.23 0 0 1 1.23 1.24v14.06a1.23 1.23 0 0 1-1.23 1.24H40.29a1.23 1.23 0 0 1-1.23-1.24V46.51a1.24 1.24 0 0 1 1.23-1.24"/><path fill="#6f6f6e" d="M41.11 46.59h12.43a.74.74 0 0 1 .74.74v12.42a.74.74 0 0 1-.74.74H41.1a.74.74 0 0 1-.74-.74V47.33a.74.74 0 0 1 .74-.74"/><path fill="#14110f" d="M23.76 45.27h14.07a1.24 1.24 0 0 1 1.23 1.24v14.06a1.23 1.23 0 0 1-1.23 1.24H23.76a1.23 1.23 0 0 1-1.23-1.24V46.51a1.24 1.24 0 0 1 1.23-1.24"/><path fill="#6f6f6e" d="M24.58 46.59H37a.74.74 0 0 1 .74.74v12.42a.74.74 0 0 1-.74.74H24.58a.74.74 0 0 1-.74-.74V47.33a.74.74 0 0 1 .74-.74"/><path fill="#14110f" d="M7.23 45.27h14.06a1.23 1.23 0 0 1 1.24 1.24v14.06a1.23 1.23 0 0 1-1.24 1.24H7.23a1.23 1.23 0 0 1-1.24-1.24V46.51a1.24 1.24 0 0 1 1.24-1.24"/><path fill="#6f6f6e" d="M8.05 46.59h12.42a.74.74 0 0 1 .74.74v12.42a.74.74 0 0 1-.74.74H8.05a.74.74 0 0 1-.74-.74V47.33a.74.74 0 0 1 .74-.74"/><path fill="#14110f" d="M11.51 12.2h6.95a.9.9 0 0 1 .9.9v14.74a.9.9 0 0 1-.9.9h-6.95a.9.9 0 0 1-.9-.9V13.1a.9.9 0 0 1 .9-.9"/><path fill="#cfcfcf" d="M11.85 13.52h6.28c.3 0 .54.24.54.54v12.83c0 .3-.25.54-.54.54h-6.28a.54.54 0 0 1-.54-.54V14.06c0-.3.24-.54.54-.54"/><path fill="#14110f" d="M2.54 12.2h7.33a.92.92 0 0 1 .92.93v14.83c0 .5-.41.92-.92.92H2.54a.92.92 0 0 1-.93-.92V13.13a.92.92 0 0 1 .93-.92"/><path fill="#cfcfcf" d="M3.1 13.52h6.28c.3 0 .54.24.54.54v12.83c0 .3-.24.54-.54.54H3.1a.54.54 0 0 1-.54-.54V14.06c0-.3.24-.54.54-.54"/><path fill="#14110f" d="M49.63 12.2s-.91 0-1.26.28.29 1.05.29 1.05zm-10.17 0s-1.1.01-1.26.29c-.15.27.29 1.19.29 1.19zm-9.75 0h-3.47l2.08 3.43zm-11.25 0s.9-.01 1.18.25c.3.27-.28 1.47-.28 1.47Zm-8.75 0s.89.01 1.17.26c.28.26 0 1.06 0 1.06z"/><path fill="#14110f" d="M29.29 12.2h8.23a.97.97 0 0 1 .97.98v14.6a.97.97 0 0 1-.97.96H29.3a.97.97 0 0 1-.97-.97v-14.6a.97.97 0 0 1 .97-.96"/><path fill="#fff" d="M29.71 13.52h7.4c.31 0 .58.26.58.58v12.75a.58.58 0 0 1-.59.58h-7.39a.58.58 0 0 1-.58-.58V14.1c0-.32.26-.58.58-.58"/><path fill="#14110f" d="M20.26 12.2h6.95a.9.9 0 0 1 .9.9v14.74a.9.9 0 0 1-.9.9h-6.95a.9.9 0 0 1-.9-.9V13.1a.9.9 0 0 1 .9-.9"/><path fill="#cfcfcf" d="M20.6 13.52h6.28c.3 0 .53.24.53.54v12.83c0 .3-.23.54-.53.54h-6.29a.54.54 0 0 1-.53-.54V14.06c0-.3.24-.54.53-.54"/><path fill="none" stroke="#fff" stroke-linecap="round" stroke-linejoin="round" stroke-miterlimit="10" stroke-width="4.32" d="m6.58 19.49.66-1.68c11.58 4.53 26.83 5.1 42.01 1.57l-.69-2.6 6.93 1.87-5.08 5.07-.7-2.6a88.57 88.57 0 0 1-19.94 2.35c-8.46 0-16.43-1.34-23.19-3.98Z"/><path fill="none" stroke="#1d1d1b" stroke-linecap="round" stroke-linejoin="round" stroke-miterlimit="10" stroke-width="2.88" d="m6.58 19.49.66-1.68c11.58 4.53 26.83 5.1 42.01 1.57l-.69-2.6 6.93 1.87-5.08 5.07-.7-2.6a88.57 88.57 0 0 1-19.94 2.35c-8.46 0-16.43-1.34-23.19-3.98Z"/><path fill="none" stroke="#e40428" stroke-miterlimit="10" stroke-width="2.16" d="M7.1 18.66c11.7 4.57 27.24 5.3 43.35 1.42"/><path fill="#e40428" d="m50.34 23.97 5.34-5.3-7.27-1.98z"/><path fill="#0053a1" d="M61.12 76.6v11.1c0 2.2-1.78 3.98-3.97 3.98H3.9A3.97 3.97 0 0 1-.08 87.7V67.25"/><path fill="#fff" d="M29.18 87.68a5.36 5.36 0 0 1-3.6-1.12c-.87-.74-1.3-1.86-1.3-3.35v-6.6c0-.13.03-.23.1-.3a.38.38 0 0 1 .3-.13h2.21a.4.4 0 0 1 .3.12.4.4 0 0 1 .12.3v6.58c0 .67.16 1.17.48 1.5.32.34.78.5 1.37.5.6 0 1.05-.17 1.37-.5.31-.35.47-.85.47-1.5V76.6a.4.4 0 0 1 .13-.3.4.4 0 0 1 .3-.12h2.2a.4.4 0 0 1 .3.12.4.4 0 0 1 .12.3v6.6c0 1.5-.43 2.61-1.3 3.36a5.3 5.3 0 0 1-3.57 1.11zM36 80.2a.31.31 0 0 1-.24-.1c-.05-.06-.08-.15-.07-.28l.5-3.23c.04-.17.1-.3.2-.41.1-.1.23-.16.4-.16h1.98c.09 0 .16.03.21.1.07.06.1.14.1.22a.6.6 0 0 1-.03.18l-1.25 3.22c-.07.14-.15.26-.24.34a.56.56 0 0 1-.38.12zm0 0" aria-label="U’"/></svg>